<?xml version="1.0" encoding="utf-8" ?>
<svg baseProfile="full" height="300mm" version="1.1" viewBox="0,0,200,300" width="200mm" xmlns="http://www.w3.org/2000/svg" xmlns:ev="http://www.w3.org/2001/xml-events" xmlns:xlink="http://www.w3.org/1999/xlink"><defs /><rect fill="#222222" height="300" width="200" x="0" y="0" /><text fill="#FFFFFF" style="font-size:12px; font-family:Arial; font-weight:bold;" x="10" y="20">Over 10 Running</text><text fill="#FFFFFF" style="font-size:4px; font-family:Arial" x="10" y="280">Runner</text><text fill="#FFFFFF" style="font-size:9px; font-family:Arial" x="10" y="290">chensoul</text><text fill="#FFFFFF" style="font-size:4px; font-family:Arial" x="65" y="280">SPECIAL TRACKS</text><rect fill="yellow" height="2.6" width="2.6" x="65" y="283" /><text fill="#FFFFFF" style="font-size:3px; font-family:Arial" x="70" y="285.5">Over 20.0 km</text><rect fill="red" height="2.6" width="2.6" x="65" y="287" /><text fill="#FFFFFF" style="font-size:3px; font-family:Arial" x="70" y="289.5">Over 40.0 km</text><text fill="#FFFFFF" style="font-size:4px; font-family:Arial" x="120" y="280">STATISTICS</text><text fill="#FFFFFF" style="font-size:3px; font-family:Arial" x="120" y="285">Number: 7</text><text fill="#FFFFFF" style="font-size:3px; font-family:Arial" x="120" y="290">Weekly: 1.0</text><text fill="#FFFFFF" style="font-size:3px; font-family:Arial" x="141" y="285">Total: 85.0 km</text><text fill="#FFFFFF" style="font-size:3px; font-family:Arial" x="141" y="290">Avg: 12.1 km</text><text fill="#FFFFFF" style="font-size:3px; font-family:Arial" x="167" y="285">Min: 10.2 km</text><text fill="#FFFFFF" style="font-size:3px; font-family:Arial" x="167" y="290">Max: 15.2 km</text><polyline fill="none" points="31.044705878943205,52.76654964504996 52.17451749765314,42.985238145512994 44.21425605681725,87.0 44.44838139344938,86.18493845313787 51.35507881967351,45.63435763749294 42.224190696608275,33.0 44.21425605681725,84.55481234425679 53.93045752146281,38.0945281086606 30.4008612036705,56.5703539121896 29.23023452120833,59.62696647713892 28.118139173137024,62.14017066330416 27.532825831556693,63.226958702958655 27.06457515875809,64.99298545613419 26.596324485726655,66.82693132077111 26.186605146620423,68.86464298004285 26.069542478537187,69.54387880384456" stroke="#4DD2FF" stroke-linecap="round" stroke-linejoin="round" stroke-width="0.5"><title>2026-02-25 12.3km</title><desc>9223370264873335807</desc></polyline><polyline fill="none" points="164.07958104956197,56.98669889776647 163.9570185287157,57.25126288319734 163.78192921329173,57.47512416145037 163.65936669250368,57.7091604078596 163.60683989789686,57.91266973493475 163.36171485626255,58.39091499697679 163.20413447238388,58.64529982775275 163.0465540884761,58.90985935422941 162.89772817038465,59.11336619834037 162.69637545762816,59.357573855762894 162.42498701871955,59.54072920115868 162.23238877175027,59.83581209619297 161.94349140126724,59.98844083267613 161.68085742814583,60.222471102191776 161.3656966603594,60.436150427442044 161.06804482408916,60.7210554728008 160.7266206590284,60.86350768618286 160.40270542548387,61.25016265459999 160.11380805502995,61.51471517882601 160.0437723288196,61.70804157368548 159.61480350603233,62.206618418582366 159.2996427382459,62.715367697615875 159.0720266282151,63.091840471097385 158.66932120270212,63.45813692259253 158.3804238322482,63.692158941805246 158.1265443248849,63.885481059718586 157.79387462555314,64.13985168904765 157.53999511821894,64.42474601340655 157.18106202155468,64.99453218834242 156.95344591149478,65.20820115357492 156.66454854104086,65.43204433397477 156.35814223904163,65.63553769259306 156.0779993343167,65.84920526639326 155.90291001889273,66.08322160073294 155.64903051152942,66.4596814929464 155.45643226456014,66.82596541153907 155.22881615447113,67.19224796717754 155.03621790753095,67.65009924508195 154.79984733171295,68.11812279475998 154.4496687008359,68.7082362727233 154.08198113841354,69.38991468001768 153.91564628877677,69.72566499633103 153.82810163105023,70.00036894885125 153.71429357602028,70.29542048845906 153.5304497948382,70.87534679946839 153.36411494517233,71.24161428840307 153.14525330089964,71.58753233225434 152.91763719083974,71.94362316662591 152.70753001232515,72.32006064818415 152.49742283381056,72.6659749027749 152.29607012105407,73.01188794198242 152.19101653178222,73.21536563261907 151.83208343514707,73.68336272509623 151.62197625663248,74.05979355475574 151.4381324754213,74.49726541346172 151.2105163653905,74.89404053450562 151.07919937878614,75.1076880143155 150.91286452912027,75.33150868642406 150.7552841452416,75.6468914971556 150.55393143254332,75.93175252241053 150.44887784327148,76.17591845955758 150.2825429935765,76.43025733353716 150.14247154124314,76.70494257952669 150.01115455463878,76.90841263805487 149.94987329427386,77.07118838215683 149.67848485536524,77.46795313106122 149.3895874848822,77.9257566239321 148.8818284701265,78.7396242446921 148.6804757574282,79.07534267855954 148.47912304467172,79.42123320113751 148.1902256741887,79.87902761283476 147.87506490640226,80.37751244073297 147.67371219367487,80.6521866757248 147.4898684124637,80.95737937163358 147.2885156997363,81.26257112168241 147.18346211049356,81.47620478393947 146.7895111507387,81.9543355867936 146.68445756149595,82.17814069689484 146.5618950407079,82.43246406823164 146.39556019101292,82.7173054644154 146.22922534137615,82.98180030886579 146.07164495746838,83.29715861809382 145.9140645735897,83.6023431171343 145.77399312122725,83.79562614401948 145.49385021656053,84.16184557576344 145.32751536689466,84.48737281631475 145.12616265413817,84.78238094862172 144.933564407198,85.12825142669317 144.80224742059363,85.43343025162176 144.59214024207904,85.73860813086503 144.469577721291,86.07430270587793 144.18943481662427,86.62361863329716 143.94430977498996,86.96948264545063 144.09313569311053,86.75586089900753 144.18068035083706,86.47103118299128 144.31199733741232,86.2065457091594 144.5221045158978,85.90136927984713 144.63591257095686,85.71826296833751 144.86352868101676,85.15876935176493 145.02986353065353,84.83324433042435 145.1874439145322,84.52806364569551 145.34502429843997,84.39581838866434 145.47634128501522,84.21270927801379 145.68644846355892,83.7752805800992 145.95783690246753,83.20560308398854 146.1504351494077,82.85972585355194 146.3605423279514,82.64609519262012 146.52687717758818,82.39177237297554 147.0346361923439,82.30021599710017 147.2447433708585,82.46298282867065 147.5248862755543,82.60540358559956 147.84004704334075,82.59523068123963 148.03264529033913,82.67661388682609 148.26901586612803,82.50367449451005 148.39157838691608,82.24935130709491 148.51414090773324,81.99502746283542 148.6454578943085,81.74070296177524 148.8555650728522,81.41516664199298 149.05691778560868,81.02859086458193 149.23200710100355,80.70305219074362 149.3458151560335,80.50976309395628 149.42460534797283,80.3571661706228 149.51215000569937,80.20456901080615 149.5734312660934,80.04179844634928 149.76602951306268,79.92989352723089 149.844819705002,79.77729570527299 149.96738222584827,79.62469764687557 150.11620814393973,79.4822725789927 150.21250726739527,79.35002054581128 150.3000519251509,79.2075950806393 150.45763230902958,79.02447632272379 150.545176966727,78.84135722428618 150.58019482981763,78.64806447314186 150.64147609021165,78.46494467472075 150.7465296794835,78.29199788570986 150.84282880296814,78.12922415976209 150.9741457895434,77.89523645726877 151.09670831036055,77.74263548220188 151.2367797626648,77.55951399988408 152.47115943647805,74.66004514370434 152.6287398203567,74.34465917188936 152.8125836015388,74.02927218976401 152.93514612235595,73.89701283206523 153.0401997116278,73.724058019332 153.11023543777992,73.59179825161846 153.23279795859708,73.45953830624057 153.32034261632361,73.29675659110217 153.41664173980826,73.16449624937377 153.48667746596038,72.97119235336868 153.5479587263835,72.82875766084908 153.5216953290801,72.67614883305941 153.7405569733528,72.49301792742335 153.82810163105023,72.35058254306205 153.9681730834127,72.20814695266745 154.07322667268454,72.0555371628434 154.10824453574605,71.85205707509158 154.16077133038198,71.67909866981063 154.2483159880794,71.42474752181442 154.35336957735126,71.20091796803172 154.39714190619998,71.02795841878833 154.4759320981684,70.82447620714811 154.57223122162395,70.64134185705916 156.0692448685877,68.09777399106679 156.22682525243727,67.812890297384 155.27258848334895,69.53235434802627 155.27258848334895,69.48148306167423 155.42141440146952,69.2474748059467 155.53522245649947,69.0643375221407 155.5877492511354,68.89137421904888 155.76283856658847,68.52509798575193 155.6140126484679,68.45387744875916 156.3318788417091,66.15444385292358 156.11301719743642,66.21549145664903 155.43892333304393,68.26056430300378 155.5789947853482,68.07742518313898 155.73657516925596,67.94515782911185 155.90291001889273,67.82306472920027 156.0342270054971,67.69079703339958 157.14604415846406,64.84191121489857 157.40867813161458,64.52649378654314 157.76761122824973,64.15002650053066 158.21408898261143,63.7633829241895 158.50298635306535,63.559885694950935 158.72184799733805,63.26481396527379 158.95821857318515,63.06131570525031 159.17708021745784,62.84764207941771 159.3171516698203,62.766242480880464 159.40469632751774,62.59326811045321 159.5360133141221,62.420293436072825 159.7461204926076,61.93189271444862 159.85992854766664,61.942067754192976 159.9737366026675,61.77926699189993 160.14007145233336,61.63681610396452 160.52526794627192,60.995784556849685 160.77039298787713,60.812631919339765 161.03302696105675,60.60912858903612 161.33067879726877,60.51755195315491 161.6283306335099,60.35474883441202 161.8384378120245,60.1614197811723 161.99601819590316,60.03931702555565 162.3286878952349,59.60178090719273 162.5650584710238,59.38809977033088 162.83644690996152,59.32704793171433 163.0115362254437,58.92003470642521 163.15160767774796,58.66565058581182 163.30043359586853,58.41126580767741 163.39673271935317,58.36038877310784 163.51929524014122,58.20775751167821 163.61559436362586,58.03477512918471 163.86947387101827,57.30214049112692 164.04456318644225,57.03757664251316 164.1846346388047,56.650905122747645 164.3684784199868,56.42704196948762 164.44726861195522,56.46774439890578 164.70990258504753,55.68421967602626 164.93751869513653,55.42982719063002 165.04257228440838,55.21613699464069 165.0688356817118,55.053325105283875 165.19139820249984,54.88033717766666 165.2964517917717,54.72770051842235 165.37524198374012,54.61576681780571 165.48029557298287,54.463129748131905 165.46278664140846,54.198558266500186 165.5590857649222,54.05609640481998 165.67289381995215,53.88310672407533 165.90926439577015,53.96451367056579 166.0580903138616,53.83222734832816 166.18065283470787,53.740644405675994 166.32072428704123,53.6185336828712 166.40826894473867,53.5065987205453 166.5133225340105,53.374311782681616 166.59211272597895,53.21149684576085 166.7234297125542,52.9570979675409 166.84599223334226,52.69252243642404 166.88976456219098,52.560234404074436 166.89851902797818,52.13284108404332 167.06485387761495,52.285481768609316 167.1961708642193,52.13284108404332 168.21168889370165,49.151212222241156 168.29047908564098,48.82556810200185 167.66891201588442,51.02364499714167 167.70392987894593,50.79976904099021 167.70392987894593,50.52501148945885 168.84201042927452,47.614569572549954 169.06087207354722,47.38050931425096 169.29724264936522,47.166801635568845 169.34976944400114,46.87168074466899 169.45482303324388,46.57655896842334 169.63866681445506,46.31196627841564 169.80500166409183,46.09825627847022 169.9625820479996,45.955782687269675 170.06763563727145,45.79295547326183 170.23397048690822,45.57924434581946 170.400305336545,45.34517924495594 170.55788572045276,45.11111358721246 170.73297503590584,44.86687056795199 170.8730464882392,44.65315742862731 171.02187240635976,44.41909012429096 171.17945279023843,44.246083497899235 171.29326084526838,44.052722790671396 171.42457783181453,43.81865405759163 171.5734037499351,43.655823306093225 171.74849306538817,43.29963009750645 171.89731898347964,43.07573656336899 172.11618062778143,42.862019532673 172.2825154774764,42.53635459300858 172.44885032711318,42.31245932157617 172.63269410832436,42.159803162481694 172.7465021633252,41.99696966499323 172.84280128683895,41.823958778557426 172.9566093418689,41.640770449441334 173.1754709861416,41.35581014830677 173.32429690426216,41.10138061035832 173.47312282238272,40.908013721382304 173.59568534317077,40.72482368643978 173.76202019283664,40.368619864028005 173.9108461109863,40.10401047515188 174.05967202910688,39.85975502284418 174.21725241298554,39.59514426498936 174.3398149337736,39.32035541681398 174.47113192031975,39.0353883929929 174.68999356465065,38.71988822498679 174.86508288007462,38.353499663040566 175.07519005858921,38.00746476796485 175.2765427713166,37.69196130254568 175.45163208676968,37.38663440458913 175.62672140219365,37.18308261272614 175.81931964913383,36.989708020213584 175.9944089645869,36.87775413497002 176.03818129340652,36.694556593363814 176.04693575922283,36.531714047632704 176.01191789613222,36.41975964108133 175.9593911014963,36.27727203020913 175.78430178607232,35.971940740295395 175.62672140219365,35.798919255255896 175.4954044155893,35.62589746579033 175.35533296328504,35.45287537192053 175.23277044249699,35.25949737740302 175.11020792165073,35.04576336207538 174.92636414046865,34.64882752986887 174.77753822234808,34.34349118408136 174.65497570156003,34.027975964185316 174.49739531765226,33.93637458167359 174.22600687874365,33.681925849326944 173.94586397404782,33.51907831509743 173.61319427471608,33.22391647196491 173.34180583580746,33.09160225470259 173.07917186265695,33.0203560639784 172.87781914992956,33.071246205501666 172.65020303989877,33.11195829974167 172.38756906669005,33.071246205501666 172.16870742241736,33.15267037711601 171.87981005196343,33.20356045012886 171.64343947614543,33.27480650814687 171.44208676341805,33.38676449499326 171.1356804613897,33.61068008628354 170.9080643513298,34.00762010876497 170.77674736472545,34.292601700959494 170.68920270705712,34.59793820474442 170.6716937755118,34.85238456704246 170.68920270705712,35.00505206842354 170.93432774863322,35.12718589888391 171.24948851641966,35.25949737740302 171.5471403526608,35.29003077022935 171.86230112044723,35.26967517605226 172.06365383320372,35.17807495013403 172.37006013517384,35.03558554025949 172.61518517680815,35.02540771735221 172.54514945056872,35.32056415360421 172.2825154774764,35.40198646287172 171.61717607881292,35.50376425464492 171.17945279023843,35.46305315059726 170.74172950166394,35.32056415360421 170.34777854196727,35.19843056326499 170.03261777418084,35.05594118288718 169.65617574600037,35.01522989338264 169.28848818360711,34.93380726395117 169.05211760776,34.84220672517404 168.75446577151888,34.72007254078926 168.5618675245496,34.66918325253937 168.3430058802769,34.577582467311004 168.115389770217,34.48598159674293 167.8702647286118,34.42491430231894 167.71268434470403,34.36384696996538 167.30997891922016,34.170466834017134 167.45005037155352,34.35366907752905 167.56385842661257,34.37402486132487" stroke="#4DD2FF" stroke-linecap="round" stroke-linejoin="round" stroke-width="0.5"><title>2024-09-02 15.2km</title><desc>9223370311575964807</desc></polyline><polyline fill="none" points="43.329600996105,146.97917747183237 43.61679030035157,146.9583549415256 44.119371582753956,146.875064799111 44.621952865156345,146.83341971506889 44.87324350629933,146.7501295213151 45.339926125714555,146.7293069675652 45.80660874512978,146.60437159999856 46.25534203299321,146.54190388733696 46.66817665786948,146.45861357396643 47.06306195107754,146.33367803972214 47.52974457049277,146.29203284459072 47.92462986393366,146.14627459413896 48.33746448880993,146.0838067404984 48.696451119030826,146.06298411833995 49.09133641247172,146.1254519783979 49.48622170567978,146.0005162389716 49.88110699900426,145.81311248565908 50.36573894997127,145.70899921456294 50.74267491174396,145.64653122631717 51.155509536503814,145.5840632187319 51.53244549839292,145.47994983012904 51.90938146028202,145.4383044596907 52.358114748145454,145.31336829718202 52.80684803600889,145.16760934363992 53.21968266076874,145.1259639091586 53.6504666171968,145.0634957413131 54.06330124207307,145.00102755428816 54.36843987775501,144.8344456281484 54.83512249717023,144.64704079767398 55.21205845894292,144.52210414786532 55.39155177422799,144.18893937232497 55.39155177422799,143.75165977411962 55.319754448137246,143.27273341853288 55.337703779689036,142.85627479897812 55.301805116585456,142.4398153245711 55.23000779049471,142.02335499526816 55.158210464403965,141.58607072936138 55.1223118014168,141.23207801430544 55.10436246986501,140.73232254145842 55.050514475326054,140.33668191899778 54.97871714935172,139.94104052508192 54.94281848624814,139.52457506624341 54.88897049170919,139.0664620739699 54.85307182872202,138.67081820277963 54.85307182872202,138.31682040082524 54.78127450263128,137.8378812148585 54.70947717654053,137.37976441381034 54.69152784498874,136.9632936968701 54.61973051901441,136.52599852390995 54.565882524475455,136.08870240826218 54.5120345299365,135.6722290407779 54.47613586683292,135.25575481829583 54.458186535397545,134.8601035149477 54.422287872293964,134.42280380813463 54.36843987775501,133.98550315866305 54.29664255178068,133.56902547318896 54.24279455712531,133.17337088003114 54.18894656258635,132.73606753700005 54.1350985680474,132.38205937846215 54.09919990506023,131.92393025611818 54.045351910521276,131.5282724541321 53.99150391598232,131.07014140351384 53.95560525287874,130.65365773234225 53.88380792690441,130.19552470641793 53.88380792690441,129.77903923946724 53.847909263917245,129.3625529173296 53.79406126937829,128.987714496252 53.79406126937829,128.55040212950553 53.740213274839334,128.13391328467696 53.704314611735754,127.6757745675568 53.66841594863217,127.25928392680362 53.72226394317113,126.86361702589784 53.66841594863217,126.48877398679906 53.68636528018396,126.11393025497091 53.704314611735754,125.61413753498346 53.68636528018396,125.13516835596238 53.66841594863217,124.7394973115006 53.6504666171968,124.30217578538577 53.68636528018396,123.80237860097259 53.68636528018396,123.40670495654922 53.812010600813664,123.0110305401613 53.740213274839334,122.55288025159098 53.63251728564501,122.11555401068472 53.56071995955426,121.719877075564 53.6504666171968,121.09512244827056 53.6504666171968,120.61614259738417 53.68636528018396,120.19963745973655 53.704314611735754,119.72065549397666 53.704314611735754,119.3457992534677 49.342627053614706,96.60322441908647 53.6504666171968,111.6819197817531 53.63251728564501,111.30704868213797 53.6504666171968,110.932176889517 53.63251728564501,110.4948255889758 53.63251728564501,110.05747334515036 53.48892263357993,109.7242519549036 53.50687196513172,109.32855084270705 53.5248212965671,108.91202252202493 53.54277062811889,108.43301389545377 53.48892263357993,108.05813678985578 53.48892263357993,107.8082183344086 53.48892263357993,107.37086029612692 53.50687196513172,106.95432795411034 53.5248212965671,106.51696807419648 53.5248212965671,106.16291414707666 53.5248212965671,105.70472579434863 53.50687196513172,105.2881900298089 53.54277062811889,104.93413395716925 53.5248212965671,104.4967697198881 53.54277062811889,104.14271226532583 53.50687196513172,103.7678272278572 53.56071995955426,103.35128748443094 53.56071995955426,102.91391983284848 53.57866929110605,102.47655123792356 53.57866929110605,102.03918169949611 53.56071995955426,101.62263840490778 53.54277062811889,101.24774870806141 53.61456795420963,100.85203105388791 53.36327731295023,100.51879453554284 52.98634135106113,100.31052143350826 52.59145605773665,100.22721213275508 52.17862143286038,100.14390279780491 51.80168547120411,100.10224811747321 51.37090151477605,100.06059342858498 50.99396555300336,99.9772840251535 50.59908025956247,99.9772840251535 50.20419496635441,99.93562931063934 49.80930967302993,99.89397458753956 49.432373711140826,99.87314722276642 49.01953908626456,99.78983774234075 48.624653793056495,99.72735560950241 48.28361649415456,99.68570084360545 47.88873120083008,99.68570084360545 47.47589657595381,99.62321867875289 47.04511261964217,99.58156389143551 46.704075320856646,99.5399090955907 46.36303802207112,99.51908169448143 45.878406071220525,99.47742688580183 45.50147010944784,99.47742688580183 45.1604328105459,99.45659947821696 44.74759818566963,99.43577206852206 44.35271289234515,99.51908169448143 43.92192893603351,99.5399090955907 43.54499297426082,99.45659947821696 43.132158349384554,99.39411724272941 42.719323724508286,99.37328982663166 42.37828642572276,99.33163498798967 42.091097121476196,99.51908169448143 41.83980648033321,99.74818298927858 41.83980648033321,99.83149248680274 41.89365447475575,99.5399090955907 41.82185714878142,99.28998014076205 41.57056650752202,99.1650155478419 41.30132653482724,99.10253322252538 41.03208656213246,99.12336066643184 40.762846589437686,99.20667042072455 40.47565728519112,99.20667042072455 40.33206263300963,99.04005087794212 40.22436664393172,98.87343119812431 40.152569317957386,98.70681138148939 39.07560942706186,98.60267392652167 38.626876139082015,98.45688139976119 38.24994017730933,98.35274381644558 37.819156220997684,98.26943371126254 37.37042293313425,98.20695110993984 36.95758830825798,98.2277786458435 36.52680435194634,98.24860617965169 36.131919058505446,98.24860617965169 35.7011351021938,98.2277786458435 35.324199140421115,98.24860617965169 34.85751652100589,98.20695110993984 34.49852989066858,98.14446848930675 34.08569526579231,98.12364094486111 33.72670863557141,98.06115829858754 33.313874010695145,98.04033074554172 32.91898871737067,97.99867563303269 32.54205275548156,97.97784807361313 32.23691411979962,97.89453781436896 31.91382615256589,97.81122752091323 31.554839522228576,97.79039994222694 31.142004897352308,97.70708960600314 30.711220941040665,97.56129643521854 30.280436984612606,97.51964122428035 29.88555169128813,97.43633077677805 29.49066639796365,97.43633077677805 29.149629099178128,97.37384791871591 28.73679447430186,97.33219266924425 28.323959849542007,97.31136504140159 27.929074556101114,97.20722686966474 27.53418926289305,97.22805450830492 27.103405306464992,97.16557158606884 26.726469344692305,97.10308864449325 26.3495333828032,97.06143333944783 25.95464808959514,96.95729503939219 25.63156012224499,96.99895036581438 25.595661459257826,97.20722686966474 25.54181346471887,97.45715839190234 25.54181346471887,97.72791719324596 25.54181346471887,97.99867563303269 25.470016138628125,98.26943371126254 25.487965470179915,98.58184642909328 25.470016138628125,98.87343119812431 25.470016138628125,99.1650155478419 25.39821881253738,99.49825429117482 25.344370817998424,99.85231985582504 25.326421486446634,100.31052143350826 25.254624160472304,100.78954924845311 25.29052282345947,101.22692148236092 25.29052282345947,101.64346558993566 25.20077616593335,102.0808359819057 25.164877502946183,102.51820543047506 25.111029508290812,102.91391983284848 25.093080176855437,103.43459550153057 25.039232182316482,103.87196203001076 25.003333519329317,104.22601995732111 24.93153619323857,104.66338477865793 24.949485524673946,105.03826816036599 24.93153619323857,105.45480443832639 25.021282850764692,105.85051310977724 24.841789535596035,106.1212607032503 24.752042878069915,106.53779475649935 24.78794154105708,106.91267467287253 24.78794154105708,107.30838049933664 24.78794154105708,107.70408555367612 24.78794154105708,108.09978983577457 24.76999220950529,108.47466686448024 24.68024555197917,108.91202252202493 24.69819488353096,109.32855084270705 24.76999220950529,109.7242519549036 24.78794154105708,110.05747334515036 24.805890872492455,110.4948255889758 24.78794154105708,110.91135065854178 24.78794154105708,111.3278748724988 24.734093546518125,111.72357208339963 24.76999220950529,112.1609207339061 24.78794154105708,112.49413812035345 24.805890872492455,112.86900702556886 24.823840204044245,113.22304924417404 24.716144214966334,113.55626488533744 24.716144214966334,113.9311318271939 24.66229622042738,114.26434630493168 24.716144214966334,114.6600377860741 24.716144214966334,115.11820590500429 24.608448225888424,115.47224419697886 24.57254956290126,115.95123619656079 24.608448225888424,116.40940139835584 24.68024555197917,116.80508869428013 24.716144214966334,117.20077521821077 24.716144214966334,117.55480987459305 24.734093546518125,117.88801839851658 24.590498894336633,118.11709894103114 24.626397557440214,118.36700469235075 24.66229622042738,118.6377355754812 24.590498894336633,118.88764068526507 24.64434688887559,119.1791962574789 24.66229622042738,119.44992605643347 24.68024555197917,119.72065549397666 24.69819488353096,119.99138457012305 24.69819488353096,120.28293855565425 24.69819488353096,120.5536668812274 24.716144214966334,120.86604526938754 24.68024555197917,121.1367728166224 24.69819488353096,121.40750000241678 24.76999220950529,121.67822682688711 24.805890872492455,121.94895328998973 24.823840204044245,122.21967939171009 24.859738867147826,122.51123017404461 24.859738867147826,122.78195552524994 24.859738867147826,123.05268051508756 24.93153619323857,123.32340514349926 25.075130845303647,123.55247954695369 25.021282850764692,123.82320350829104 24.859738867147826,123.92732801250531 24.949485524673946,124.2397012047586 24.967434856225736,124.51042424878688 24.949485524673946,124.80197173831402 24.89563753013499,124.96857011551037 24.8776881985832,124.9269205340388 24.823840204044245,125.0935188086878 24.8776881985832,125.30176645958272 24.78794154105708,125.53083862854692 24.78794154105708,125.80155994927918 24.823840204044245,126.19722892192658 24.78794154105708,126.67619559295417 24.78794154105708,127.09268743100984 24.823840204044245,127.55082746513654 24.967434856225736,128.0089664644329 24.967434856225736,128.4462799984758 24.985384187777527,128.86276820194325 24.967434856225736,129.2167825025681 25.003333519329317,129.65409343256033 24.985384187777527,130.008106352092 25.039232182316482,130.4245913487248 25.003333519329317,130.77860292347032 25.057181513751857,131.11178972358175 25.039232182316482,131.4866242195567 25.057181513751857,131.92393025611818 25.075130845303647,132.15299494657665 25.093080176855437,132.3195872863289 25.146928171394393,132.59029954655853 25.164877502946183,132.90265939792152 25.182826834381558,133.17337088003114 25.218725497368723,133.46490591824113 25.218725497368723,133.7356166500249 25.236674828920513,134.02715088019613 25.218725497368723,134.31868469138863 25.236674828920513,134.61021808358782 25.254624160472304,134.90175105688104 25.27257349190768,135.19328361112275 25.27257349190768,135.63058165699476 25.30847215501126,136.08870240826218 25.344370817998424,136.46352770792146 25.487965470179915,136.85917588401935 25.757205442874692,137.17152916219493 26.205938730738126,137.15070562527399 26.600824024062604,137.15070562527399 27.031607980490662,137.10905854502926 27.426493273698725,137.08823500174913 27.857277230126783,137.0674114562571 28.288061186438426,137.0465879086114 28.66499714832753,137.02576435891388 29.059882441652007,137.0465879086114 29.49066639796365,137.02576435891388 29.88555169128813,137.00494080700446 30.334284979151562,137.00494080700446 30.711220941040665,136.98411725301412 31.124055565916933,136.98411725301412 31.46509286458604,137.23399976015207 31.447143533150665,137.58799945164355 31.429194201598875,137.92117506760405 31.50099152768962,138.27517355997406 31.554839522228576,138.60834804734623 31.590738185332157,139.02481538707798 31.626636848319322,139.33716533078405 31.626636848319322,139.79527771168796 31.680484842858277,140.19091938991915 31.698434174410067,140.50326753834088 31.626636848319322,140.89890783588635 31.716383505845442,141.21125489423866 32.00357281009201,141.39866289839847 32.201015456812456,141.52360147166473 32.43435676640365,141.62771689059446 32.66769807622768,141.6485399679368 32.883090054267086,141.6693630432128 33.1164313639747,141.62771689059446 33.3677220052341,141.60689381105476 33.58311398338992,141.60689381105476 33.8523539560847,141.54442455970275 34.06774593424052,141.56524764561618 34.31903657549992,141.54442455970275 34.570327216759324,141.54442455970275 34.8395671894541,141.52360147166473 35.10880716214888,141.56524764561618 35.46779379248619,141.56524764561618 35.826780422823504,141.46113219461404 36.29346304223873,141.50277838144393 36.742196329985745,141.41948599922762 37.13708162342664,141.3570166901918 37.54991624818649,141.29454736183106 37.96275087306276,141.27372424816713 38.28583884029649,141.06549299352628 38.644825470633805,141.10713926149765 38.96791343786754,141.10713926149765 39.29100140510127,141.02384671688196 39.64998803543858,140.94055413812748 40.008974665775895,140.77396887789655 40.008974665775895,140.9822004318121" stroke="#4DD2FF" stroke-linecap="round" stroke-linejoin="round" stroke-width="0.5"><title>2023-05-18 10.2km</title><desc>9223370352485295807</desc></polyline><polyline fill="none" points="180.4718455526745,123.35659327646135 180.88140657322947,123.35659327646135 181.46472075377824,123.27020699442073 181.92392553429818,123.18382065923652 182.34589749475708,123.02544557316287 182.7678694552742,122.93905908722081 183.1650195356924,122.79508149241155 183.33877269586083,122.42073905441794 183.301539875858,121.98880423081573 183.26430705585517,121.60006175246963 183.22707423573593,121.2257161255111 183.2146632957738,120.83697153246612 183.15260859567206,120.46262386909802 183.11537577566924,120.0594791144249 183.0781429556664,119.68512937617197 183.01608825550647,119.29638051369693 182.97885543550365,118.9076305738563 182.91680073540192,118.50448135008628 182.90438979543978,118.15892395030824 182.84233509533806,117.75577257473196 182.78028039529454,117.38141668836761 182.75545851525385,117.00705980291241 182.70581475517247,116.6039051166299 182.64376005512895,116.2295461561007 182.61893817508826,115.869584674816 182.59411629504757,115.46642671911104 182.55688347498653,115.09206472260121 182.50723971502157,114.64570872856712 182.47000689496053,114.19935131409147 182.42036313487915,113.78178986614512 182.37071937479777,113.34982843944454 182.34589749475708,112.93226446237531 182.27143185469322,112.50030041925493 182.25902091473108,112.02513843518682 182.17214433458867,111.56437376175018 182.14732245460618,111.10360757452145 182.13491151452763,110.68603690985765 182.14732245460618,110.26846500189276 182.15973339456832,109.8364927542425 182.15973339456832,109.40451917612518 182.17214433458867,109.00134263605287 182.15973339456832,108.62696338247042 182.14732245460618,108.16618754448427 182.14732245460618,107.80620536771312 182.1225005745655,107.37422553579381 182.13491151452763,106.99984193846467 182.14732245460618,106.46706355756032 182.13491151452763,106.0782780561567 182.17214433458867,105.64629290153971 182.19696621462936,105.257505124624 182.1225005745655,100.08796519291354 182.14732245460618,99.64156144061417 182.1225005745655,99.2527570144739 182.06044587446377,98.82075083210657 181.6757067340077,98.87835173333588 181.29096759360982,99.06555449885491 180.8938175131334,99.22395664377837 180.53390025277622,99.38235860968416 180.17398299241904,99.55516055021144 179.78924385196296,99.69916200466105 179.3796828314662,99.871963554775 178.99494369106833,100.04476489192166 178.58538267062977,100.27516634351923 178.2006435301737,100.43356712190143 177.79108250973513,100.59196772129508 177.40634336933726,100.76476817115326 176.9967823488405,100.93756840805872 176.59963226842228,101.13916841529135 176.17766030796338,101.28316824298236 175.83015398756834,101.45596784100053 175.51988048717612,101.64316716525354 175.65640082739992,102.07516465202207 175.6812227074406,102.53596050426131 175.69363364740275,102.93915563286282 175.73086646740558,103.35674936523719 175.74327740748413,103.73114268880454 175.4826476671733,103.88953956324258 175.07308664673474,103.93273867973767 174.67593656625831,103.9471383823111 174.26637554587796,103.96153808335657 173.856814525323,103.97593778297596 173.4100206848816,104.01913687287015 172.97563778440235,104.01913687287015 172.59089864394628,104.06233594944933 172.18133762350772,104.09113532643823 171.7593656630488,104.09113532643823 171.49873592273798,103.9903374810674 171.1139967823401,104.00473717773275 170.74166858190438,104.1487340627209 170.4065732015879,104.16313374308811 170.00942312111147,104.22073244978674 169.63709492067574,104.23513212273247 169.25235578027787,104.26393146425835 168.85520569980145,104.2927307998907 168.44564467936289,104.30713046545861 168.02367271890398,104.30713046545861 167.6389335784479,104.30713046545861 167.22937255800935,104.35032945334387 166.83222247759113,104.39352842792869 166.39783957705367,104.40792808312108 165.98827855667332,104.42232773687283 165.5663065961562,104.451127039938 165.13192369567696,104.4799263371533 164.6975407951977,104.4799263371533 164.26315789471846,104.49432598346903 163.89082969428273,104.53752491368505 163.49367961386451,104.56632419313246 163.0717076534056,104.6095231011277 162.68696851294953,104.58072383060062 162.31464031263022,104.6095231011277 162.0912433923222,104.81111782933294 162.0912433923222,105.22870598718873 162.1160652723047,105.61749384393624 162.1160652723047,106.04947908720351 162.0912433923222,106.48146299984364 162.10365433234256,106.91344558174023 162.15329809236573,107.30222876774496 162.16570903244428,107.71980950776197 162.24017467244994,108.16618754448427 162.2277637324878,108.48297109575651 162.04159963224083,108.61256416043034 161.88025741209276,108.59816493694962 161.30935417144792,109.96608456823742 161.4458745116135,110.26846500189276 161.49551827163668,110.75803194074251 161.56998391175875,111.26199612212076 161.70650425192434,111.70836288481951 161.68168237188365,112.1259305057174 161.6940933118458,112.57229451883177 161.73132613190683,112.98985956760589 161.64444955182262,113.43622083122318 161.61962767178193,113.89697935528238 161.60721673176158,114.32893909688573 161.56998391175875,114.7608975082112 161.59480579179944,115.13526038856071 161.65686049184296,115.49522375434753 161.7561480118893,115.99917091448151 161.79338083195034,116.40232733896119 161.83061365201138,116.8918728679273 161.86784647207242,117.38141668836761 161.86784647207242,117.87095880025299 161.86784647207242,118.30290630366653 161.8926683521131,118.7204542926338 161.8926683521131,119.10920475120656 161.9174902321538,119.52675034002459 161.94231211213628,119.9442946859781 161.96713399211876,120.39063381931919 161.90507929207524,120.86576746517676 161.99195587215945,121.2257161255111 162.07883245230187,121.67205118160928 162.12847621238325,122.0895891419641 162.10365433234256,122.44953466203879 162.10365433234256,122.83827478639432 162.14088715234539,123.22701383347157 162.1160652723047,123.6157518033433 162.1160652723047,124.01888633803173 162.1160652723047,124.42201971419854 162.1160652723047,124.79635681197396 162.07883245230187,125.15629538704525 161.6692714318633,125.17069291086227 161.23488853138406,125.17069291086227 160.81291657086695,125.25707802256511 160.4033555504284,125.3578605857474 160.01861641003052,125.50183555035619 159.6462882095948,125.7034002525761 159.33601470926078,125.9193621121376 158.9760974488454,126.13532363927516 158.62859112850856,126.36568223513314 158.29349574807566,126.55284831575409 157.95840036770096,126.79760358284693 157.58607216732344,126.99916642341122 157.2137439668877,127.14313970365038 156.7917720064288,127.30151014128933 156.38221098593203,127.37349664469366 155.96023902547313,127.43108582086279 155.5258561250521,127.45988040007069 155.09147322457284,127.50307225786673 154.69432314409642,127.53186682227533 154.28476212365786,127.56066138080496 153.8503792231786,127.60385320754722 153.47805102274287,127.63264775127755 153.0933118822868,127.69023682111583 152.72098368190927,127.71903134710738 152.32383360149106,127.83420939213829 151.97632728109602,127.92059286384028 151.65364284074167,128.00697628236958 151.33095840038732,128.16534574485559 150.95863019995159,128.32371502860042 150.6235348195769,128.51087849707983 150.27602849918185,128.6548502259684 149.96575499884784,128.8276161056856 149.60583773849066,129.00038177262468 149.23350953799672,129.18754433841968 148.8860032176599,129.36030956212198 148.51367501722416,129.33151537294907 148.4392093771603,128.95719037578965 148.3275109170354,128.5684672063362 148.2158124569105,128.15094852836046 148.1041139967856,127.76222312505706 148.05447023670422,127.38789394096239 147.96759365662,127.01356375811156 147.7690186164109,126.69682205398567 147.53321075614076,126.40887442973326 147.26017007580958,126.16411848444841 146.96230751549592,125.9193621121376 146.65203401516192,125.7034002525761 146.3417605148279,125.54502801089257 146.0563088944764,125.37225808888616 145.7212135141017,125.24268050765386 145.42335095378803,125.04111514351098 145.17513215355575,124.88274215419369 144.9641461732681,124.70997141652333 144.81521489308216,124.59479080651363 144.5173523327685,124.42201971419854 144.10779131232994,124.13406742084771 143.6734084118507,123.83171687670983 143.338313031476,123.58695643514511 143.07768329116516,123.42858180416806 142.82946449087467,123.19821838545613 142.48195817053784,122.9246613344003 142.12204091012245,122.75188818518654 141.7124798896839,122.47833026376611 141.377384509251,122.2335674608621 140.98023442883277,121.98880423081573 140.69478280859767,121.78723419133166 140.37209836824331,121.64325541438302 140.0370029878104,121.57126597050228 139.77637324749958,121.60006175246963 139.56538726727013,121.91681496425008 139.32957940699998,122.30555656482466 139.1061824868084,122.62230818366515 138.89519650657894,122.91026358012459 138.64697770628845,123.22701383347157 138.44840266602114,123.52936568090809 138.20018386578886,123.84611453644175 138.11330728564644,124.06207925516355 137.8774994253763,124.37882690785045 137.66651344514685,124.72436898612068 137.41829464491457,125.08430774594308 137.19489772466477,125.42984808652545 136.9466789244325,125.76099011431506 136.76051482418552,126.09213136041944 136.52470696391538,126.39447703301266 136.2764881636249,126.72561678395141 136.0282693633926,127.07115308198263 135.8048724431428,127.38789394096239 135.5814755228348,127.71903134710738 135.34566766262287,128.0501679717272 135.13468168239342,128.3813038146909 134.89887382212328,128.7124388761731 134.66306596185314,129.0291760297696 134.46449092164403,129.28832407809386 134.2907377614756,129.56186872092076 134.05492990114726,129.87860395689495 133.8687658010167,130.25292649572657 133.620547000668,130.5696601716336 133.4219719604589,130.90079006830638 133.1985750402091,131.20312537839345 133.0,131.5054600370495 133.12410940014524,131.8365877252072 133.29786256037187,132.21090504035237 133.50884854060132,132.6140148784325 133.71983452083077,133.0315202754864 133.91840956098167,133.4922144443408 134.15421742131002,133.89532060128113 134.34038152149878,134.28402901299705 134.5141346816672,134.62954669714964 134.68788784189383,134.98946004678146 134.83681912202155,135.3781654274935 135.047805102251,135.70928397659736 135.22155826247763,136.04040174435067 135.37048954260536,136.42910421385022 135.56906458287267,136.76022028304578 135.78005056310212,137.1201281676622 135.90415996324737,137.49443138849165 136.15237876347965,137.8687336109142 136.31372098368593,138.21424246850074 136.42541944381082,138.51656202106096 136.62399448407814,138.83327704427938 136.77292576420587,139.23636785811686 136.93426798435394,139.61066543427296 137.09561020456022,139.9849620120367 137.2321305447258,140.37365355537622 137.33141806483036,140.7623440221796 137.48034934495809,141.07905397684954 137.60445874510333,141.43895078510104 137.72856814524857,141.77005503347027 137.9271431855159,142.11555428594875 138.0140197656001,142.5186356720078 138.1877729257685,142.86413308154442 138.53527924616355,142.99369439081056 138.90760744654108,142.95050730100775 139.23029188689543,142.72017593091005 139.54056538722944,142.44665693798743 139.863249827642,142.15874163263652 140.18593426799634,141.87082573663793 140.52102964837104,141.6404925945535 140.75683750864118,141.36697149729298 141.00505630893167,141.1222416425735 141.31532980920747,140.8775113611191 141.600781429559,140.5751968947734 141.8862330498523,140.31606969093264 142.1344518501428,140.02815001447743 142.41990347049432,139.74022974724357 142.6929441507673,139.46670494618593 142.95357389107812,139.19317961200431 143.2266145713511,138.90525763161713 143.49965525168227,138.6173350605095 143.79751781199593,138.28622337346314 144.12020225235028,137.98390332460986 144.41806481272215,137.7103751001996 144.67869455297478,137.43684634260717 144.9641461732681,137.14892075859825 145.19995403353823,136.88978722781758 145.48540565383155,136.61625687067863 145.8080900942441,136.37151873072435 146.04389795445604,136.08359096081404 146.39140427485108,135.81005903212645 146.68926683516474,135.6085088487598 146.97471845551627,135.3781654274935 147.28499195585027,135.13342512818053 147.62008733622497,134.903080927048 147.96759365662,134.70152944092115 148.25304527697153,134.4711845308193 148.61296253738692,134.32721876997675 148.91082509770058,134.15445966206607 149.2831532980781,133.96730372172897 149.65548149845563,133.80894080799771 149.97816593880998,133.6217844067869 150.35049413930392,133.52100777965097 150.66076763963792,133.42023108017747 151.00827395997476,133.30505762065877 151.3806021604105,133.20428076606186 151.7777522408287,133.13229725418205 152.1376695012441,133.04591699119192 152.472764881677,133.0171235583257 152.90714778209804,132.93074322440953 153.27947598253377,132.88755303750804 153.6518041829695,132.80117262381827 153.9620776832453,132.74358565185685 154.35922776372172,132.70039540734433 154.7439669041778,132.6428083939827 155.1659388646367,132.6572051495168 155.53826706501422,132.57082459404774 155.9230062054703,132.48444398534775 156.2829234658857,132.44125366106164 156.6552516662632,132.41246010412578 156.97793610661756,132.34047618604382 157.3254424270126,132.2828890249948 157.73500344745116,132.23969863863022 158.11974258790724,132.18211143622466 158.47965984832263,132.12452421009948 158.839577108738,132.0813337750733 159.23672718915623,132.02374650759157 159.6214663295541,131.9661592165503 160.00620547001017,131.89417506946484 160.44058837048942,131.85098456346896 160.77568375086412,131.7933972015162 161.1356010112795,131.7646035116195 161.53275109175593,131.70701611420373 161.92990117211593,131.64942869312654 162.21535279246746,131.53425378006068 162.55044817284215,131.5198569093045 162.93518731324002,131.39028500580753 163.1834061135305,131.15993465970678 163.6053780739894,131.17433156741026 164.00252815446584,131.11674392769055 164.4120891748462,131.0303624238295 164.85888301534578,130.972774725029 165.31808779592393,130.91518700262532 165.75247069634497,130.857599256502 166.1496207768214,130.78561454068404 166.62123649736168,130.6848358764837 167.09285221784376,130.59845410670096 167.51482417830266,130.4832783309248 167.9492070787819,130.39689643704332 168.4208227993222,130.3393084782292 168.85520569980145,130.29611749362084" stroke="#4DD2FF" stroke-linecap="round" stroke-linejoin="round" stroke-width="0.5"><title>2023-05-09 13.3km</title><desc>9223370353261199807</desc></polyline><polyline fill="none" points="39.0786581839202,174.71044032700593 38.07923655316699,174.89159607657348 37.04858299600892,174.9640583502769 35.98669751314446,175.03652060922468 34.924812030163594,175.14521396969212 33.95662232511677,175.18144508235855 32.925968768191524,175.14521396969212 32.02024291502312,175.25390729669016 31.0208212841535,175.25390729669016 30.146327357040718,175.25390729669016 29.115673799882643,175.3263694960915 28.209947946830653,175.3988316806208 27.210526315844618,175.3988316806208 26.273568536737002,175.3626005902479 25.274146905750968,175.3263694960915 24.368421052698977,175.3988316806208 23.368999421829358,175.3626005902479 22.400809716666117,175.3988316806208 21.401388085680082,175.47129385030712 20.370734528638422,175.4350627672684 19.277617119718343,175.47129385030712 18.309427414787933,175.50752492962056 17.403701561735943,175.5437560050632 16.404279930633493,175.65244920938858 15.467322151642293,175.47129385030712 14.467900520656258,175.5437560050632 13.406015037675388,175.65244920938858 13.12492770398967,176.41330070240656 13.18739155586809,177.28284325808636 13.218623481923714,178.3335376555042 13.249855407746509,179.31176755938213 13.281087333802134,180.36245591862826 13.374783111736178,181.30444972016267 13.499710815609433,182.35513214909588 13.499710815609433,183.33335091007757 13.562174667604268,184.38402730124653 13.624638519366272,185.43470056570368 13.655870445421897,186.485370703449 13.718334297300316,187.49980786981178 13.749566223355941,188.62293133276398 13.87449392711278,189.56490309521905 14.592828224413097,190.28949504872435 15.529786003637128,190.14457677691826 16.529207634506747,189.96342885366175 17.434933487558737,189.81851044809446 18.403123192721978,189.67359198309714 19.246385193779133,189.49244381822064 20.245806824881583,189.3837548745505 21.182764603872783,189.16637688697665 22.18218623485882,188.9852284619701 23.150375939905643,188.84030965482816 24.05610179307405,188.65916106235818 25.02429149800446,188.47801237695967 25.961249277112074,188.29686359869083 26.898207056103274,188.11571472740616 27.928860613144934,187.97079556345125 28.959514170186594,187.78964652484865 29.865240023238584,187.71718688332476 30.739733950351365,187.4635780211538 31.70792365539819,187.24619885138236 32.738577212323435,187.06504944118205 33.737998843425885,186.92012984596658 34.737420474295504,186.7027503415884 35.830537883332,186.485370703449 36.82995951420162,186.34045087039704 37.95430884917732,186.12307100911858 38.95373048016336,185.941921022546 40.01561596314423,185.7607709430158 40.95257374201901,185.6158508125227 41.92076344706584,185.47093062248314 42.82648930023424,185.28978030121652 43.73221515328623,185.07239979322185 44.70040485833306,184.89124926755903 45.57489878544584,184.74632878007833 46.6055523424875,184.5651780871849 47.5425101214787,184.38402730124653 48.510699826525524,184.16664623547695 49.44765760563314,183.94926503585884 50.415847310679965,183.76811393394019 51.32157316384837,183.73188370245043 52.32099479471799,183.58696273900568 53.289184499764815,183.44204171627644 54.28860613075085,183.29712063397164 55.13186813192442,183.04350859689293 55.56911509553902,182.97104798135115 56.2249855408445,182.8985873509082 57.1619433198357,182.7174357099284 58.22382880281657,182.57251433026977 59.192018507863395,182.39136252188473 60.19144013884943,182.2464410084067 61.19086176995188,182.06528903270373 62.065355696948245,181.92036738526076 63.03354540199507,181.70298480265774 63.9705031812191,181.52183254811098 64.84499710821547,181.34068020083942 65.8444187392015,181.1595277603774 66.68768074037507,180.79722260078415 66.93753614800517,179.8189968127699 66.78137651830912,178.80453757720534 66.59398496244103,177.89876793930307 66.43782533262856,176.92053412020323 66.21920185082126,175.9785286214901 66.0630422210088,174.9640583502769 65.8444187392015,173.8771226819954 65.6257952573942,172.8988777192135 65.43840370164253,171.92063004575903 65.28224407183006,170.9423796615447 64.87622903415468,170.0003582110512 64.03296703309752,169.96412656657049 63.03354540199507,170.10905312202522 62.127819548826665,170.32644284379785 61.19086176995188,170.471369250532 60.25390399072785,170.65252717529074 59.192018507863395,170.9061481138342 58.09890109905973,171.19600039185025 57.193175245891325,171.4858524320589 56.162521688849665,171.5945468855498 55.225563909858465,171.84816714731278 54.19491035293322,172.02932436551782 53.16425679589156,172.35540712423972 52.16483516502194,172.50033269799314 51.227877385914326,172.5365640820819 50.290919606690295,172.82641502164188 49.32272990164347,173.0800343983865 48.448235974647105,173.29742229054682 47.573742047534324,173.51481004882953 46.6055523424875,173.804660185182 45.69982648943551,173.8771226819954 44.85656448826194,174.0220476311224 43.8883747830987,174.27566614892567 42.98264893016312,174.2394349431852 42.10815500293393,174.34812854914344 41.10873337194789,174.42059093446005 40.01561596314423,174.52928448453895 39.01619433204178,174.67420916599804 37.98554077511653,174.8191337879107 36.79872758826241,174.78290263804956 35.924233661266044,175.000289481628 34.89358010410797,175.1089828533004 33.86292654729914,175.2176761913288 32.832272990141064,175.2176761913288 31.801619433332235,175.2176761913288 30.86466165422462,175.25390729669016 29.77154424530454,175.25390729669016 28.834586466196924,175.3988316806208 27.77270098333247,175.29013839829713 26.773279352346435,175.29013839829713 25.80508964729961,175.3263694960915 24.868131868191995,175.25390729669016 24.02486986713484,175.4350627672684 22.99421631009318,175.4350627672684 22.05725853086915,175.4350627672684 21.08906882593874,175.47129385030712 20.089647194952704,175.4350627672684 19.18392134201713,175.47129385030712 18.2469635627931,175.50752492962056 17.403701561735943,175.65244920938858 16.466743782511912,175.57998707692605 15.592249855515547,175.50752492962056 14.624060150468722,175.57998707692605 13.624638519366272,175.5437560050632 13.18739155586809,176.1596837202378 13.15615962992888,177.10168873568182 13.18739155586809,177.97122959585977 13.18739155586809,178.84076831434504 13.218623481923714,179.7827661759802 13.281087333802134,180.79722260078415 13.406015037675388,181.84790653933305 13.406015037675388,182.7174357099284 13.437246963614598,183.6231929854839 13.499710815609433,184.5289479373314 13.530942741548643,185.43470056570368 13.562174667604268,186.34045087039704 13.655870445421897,187.28242872245028 13.687102371361107,188.29686359869083 13.780798149295151,189.31129556024098 14.249277038848959,190.10834719974082 15.217466743779369,190.0721176188381 16.1544245230034,189.92719925788697 17.091382301878184,189.78228083744762 17.99710815504659,189.67359198309714 18.99652978614904,189.5286734585825 19.87102371326182,189.31129556024098 20.83921341819223,189.1301472094201 21.6824754193658,188.9852284619701 22.68189705046825,188.84030965482816 23.68131868133787,188.65916106235818 24.649508386384696,188.40555287676398 25.71139386924915,188.22440406127134 26.585887796478346,188.04325515285018 27.67900520528201,187.93456576310564 28.647194910328835,187.78964652484865 29.67784846748691,187.89833595915115 30.396182764787227,187.42734816885786 31.395604395656846,187.20996897676378 32.36379410082009,187.06504944118205 33.394447657628916,186.99258965090849 34.33140543673653,186.81144011058495 35.29959514189977,186.59406053929706 36.361480624764226,186.44914075080305 37.39213418168947,186.2317609564634 38.36032388661988,186.05061102562468 39.35974551772233,185.86946100194473 40.26547137077432,185.72454091600957 41.233661075821146,185.5071606755373 42.07692307699472,185.39847050516983 43.01388085610233,185.25355022589792 43.8883747830987,185.0361696954351 44.88779641420115,184.85501915132045 45.668594563379884,184.7100986489677 46.69924812030513,184.5289479373314 47.604973973473534,184.347797132883 48.510699826525524,184.16664623547695 49.385193753638305,183.98549524511327 50.38461538462434,183.84057438586024 51.35280508978758,183.76811393394019 52.3522267206572,183.58696273900568 53.257952573825605,183.44204171627644 54.19491035293322,183.29712063397164 55.069404279929586,183.04350859689293 56.037593985092826,182.8985873509082 57.037015616195276,182.7174357099284 58.00520532100927,182.53628397599095 59.09832272992935,182.39136252188473 60.097744360915385,182.2464410084067 61.034702140139416,182.02905862644548 61.9716599190142,181.88413696415955 62.908617698121816,181.7392152423272 63.81434355129022,181.5580630065233 64.81376518215984,181.41314115087152 65.65702718344983,181.195758255868 66.53152111056261,180.90591418775148 67.0,180.10884177332628 66.81260844436474,179.05815265938872 66.65644881443586,178.00746041853563 66.46905725856777,177.065457819961 66.2816657028161,176.05099067214178 66.03181029506959,175.14521396969212 65.90688259119634,173.94958516399493 65.68825910938904,172.93510906249867 65.50086755352095,171.88439859842765 65.31347599776927,170.9061481138342 64.93869288614951,169.92789491842268 64.09543088485952,169.8554316109221 63.15847310598474,170.03658985174843 62.252747252816334,170.21774799958803 61.34702139964793,170.3989060545864 60.41006362065673,170.54383243166376 59.47310584154911,170.83368500703364 58.442452284740284,171.01484274605173 57.34933487570379,171.23223190987483 56.34991324460134,171.5583154046908 55.35049161373172,171.77570423393627 54.31983805669006,172.06555579809356 53.320416425704025,172.2829443149094 53.22672064776998,172.3191757214663 52.258530942723155,172.35540712423972 51.1966454598587,172.50033269799314 50.228455754811876,172.79018366715172 49.135338345891796,173.1162657230161 48.13591671490576,173.29742229054682 47.19895893591456,173.58727260530577 46.230769230867736,173.94958516399493 45.387507229694165,173.985816399334 44.48178137652576,174.1669725207903 43.51359167159535,174.2394349431852 42.95141700422391,174.38435974370805 42.2330827069236,174.31189735094085 41.26489300187677,174.38435974370805 40.234239444718696,174.52928448453895 39.20358588790987,174.67420916599804 38.11046847887337,174.78290263804956 37.04858299600892,174.92782721525873 36.08039329096209,175.000289481628 35.08097165997606,175.07275173306698 33.98785425105598,175.14521396969212 32.86350491619669,175.18144508235855 31.895315211149864,175.18144508235855 30.958357432158664,175.2176761913288 29.865240023238584,175.25390729669016 28.86581839225255,175.25390729669016 27.960092539084144,175.3263694960915 27.023134760092944,175.29013839829713 25.961249277112074,175.29013839829713 25.180451127816923,175.29013839829713 24.462116830633022,175.2176761913288 23.49392712546978,175.3263694960915 22.432041642605327,175.3988316806208 21.370156159624457,175.3988316806208 20.245806824881583,175.3988316806208 19.152689415961504,175.3988316806208 18.153267784859054,175.47129385030712 17.06015037605539,175.50752492962056 16.091960671008565,175.57998707692605 15.15500289190095,175.50752492962056 13.812030075234361,175.5437560050632 13.031231926055625,175.79737342972658 13.093695777934045,176.84807224801625 13.093695777934045,178.00746041853563 13.15615962992888,178.9856912259129 13.218623481923714,180.14507237670477 13.281087333802134,181.195758255868 13.406015037675388,182.17398022927227 13.406015037675388,183.15219949217862 13.437246963614598,184.16664623547695 13.530942741548643,185.21732014682493 13.562174667604268,186.19553097774042 13.624638519366272,187.20996897676378 13.718334297300316,188.18817428697366 13.687102371361107,189.20260656095343 14.18681318697054,190.10834719974082 15.09253904002253,190.18080635048682 16.1544245230034,189.92719925788697 17.06015037605539,189.81851044809446 18.059572007041425,189.63736235749093 19.02776171208825,189.41998452620464 19.99595141701866,189.2388362311467 20.995373048004694,189.16637688697665 21.86986697523389,189.02145815439872 22.838056680280715,188.8040799437731 23.899942163261585,188.62293133276398 24.774436090374365,188.33309336175444 25.680161943426356,188.18817428697366 26.67958357441239,188.00702535995515 27.6477732793428,187.89833595915115 28.647194910328835,187.7534167059348 29.584152689552866,187.86210615147138 30.302486986853182,187.42734816885786 30.989589358097874,187.49980786981178 32.30133024870884,187.20996897676378 33.3319838057505,186.92012984596658 34.33140543673653,186.7752101912629 35.26836321584415,186.66652041126508 36.17408906889614,186.44914075080305 37.20474262582138,186.2317609564634 37.86061307124328,186.08684101933613 38.766338924411684,185.97815102731693 39.765760555281304,185.79700096635497 40.70271833438892,185.6158508125227 41.702139965374954,185.39847050516983 42.607865818426944,185.28978030121652 43.51359167159535,185.1086298872542 44.419317524530925,184.99993959409767 45.04395604401361,184.74632878007833 45.449971081689,184.42025746585568 45.9496818970656,184.5289479373314 46.85540775023401,184.5651780871849 47.85482938133646,184.20287642243784 48.94794679002371,184.0217254506133 50.041064198943786,183.98549524511327 51.07171775610186,183.87680460629053 51.97744360903744,183.6231929854839 52.88316946208943,183.40581145134638 53.85135916713625,183.26089035422774 54.75708502030466,183.11596919744625 55.475419317604974,182.97104798135115 56.412377096596174,182.8623570301861 57.443030653637834,182.68120537060895 58.41122035868466,182.50005361798685 59.37941006361507,182.2826713923423 60.3163678428391,182.06528903270373 61.409485251642764,181.92036738526076 62.37767495668959,181.7392152423272 63.37709658755921,181.5580630065233 64.40775014471728,181.4856020861189 65.40717177570332,181.26821923573152 66.40659340657294,180.9421447092609 66.96876807406079,180.14507237670477 66.84384037007112,179.166844781721 66.7501445923699,178.11615286426968 66.46905725856777,177.31907415139722 66.2816657028161,176.232145733753 66.12550607300363,175.25390729669016 65.93811451725196,174.38435974370805 65.71949103532825,173.36988489152282 65.53209947946016,172.5365640820819 65.40717177570332,171.5945468855498 65.15731636795681,170.61629559774883 64.75130133039784,169.746736621717 63.75187969929539,169.92789491842268 62.84615384612698,169.96412656657049 61.909196067252196,170.14528475160478 60.941006362088956,170.36267445093836 59.94158473110292,170.58006401656894 58.84846732218284,170.7974534482346 57.94274146913085,171.05107428249903 56.88085598614998,171.304694934719 55.97513013309799,171.37715794474934 55.00694042793475,171.6670098360919 54.03875072312076,171.88439859842765 53.133024869835936,172.3191757214663 52.28976286877878,172.39163852322963 51.35280508978758,172.50033269799314 50.54077501455322,172.71772094719927 49.572585309506394,173.04380306994426 48.66685945633799,173.1887283612159" stroke="#4DD2FF" stroke-linecap="round" stroke-linejoin="round" stroke-width="0.5"><title>2023-05-06 12.1km</title><desc>9223370353520652807</desc></polyline><polyline fill="none" points="152.38498838903615,172.6090920187853 153.0506930287811,172.47724152874434 153.71639766858425,172.42073414695915 154.34962891123723,172.40189834911143 154.9341500583687,172.23237608173804 155.58361799962586,172.06285365781514 156.07071895553963,172.08168949038372 156.60653000703314,172.02518198675534 157.14234105858486,171.9498386214982 157.71062550717033,171.7238083401462 158.2789099556976,171.5731213312829 158.8309577057371,171.49777778041607 159.43171555135632,171.34709058589942 160.0,171.25291102658957 160.51957435300574,171.1398954915203 161.07162210304523,171.00804394599982 161.62366985308472,170.87619230577548 162.12700750754448,170.5936527576996 162.28937449282967,170.10391651067766 162.24066439730814,169.51999850809807 162.15948090463644,168.95491480117198 162.09453411051072,168.38982935431704 162.045824014931,167.86241470067762 161.99711391929304,167.29732588981278 161.89969372813357,166.75107171859418 161.83474693394965,166.14830660821463 161.78603683842812,165.54553951800335 161.7048533456982,164.94277044790215 161.65614325011848,164.3399993978237 161.60743315453874,163.79373642358405 161.51001296337927,163.24747182310966 161.44506616925355,162.64469520443527 161.38011937506963,162.06075346695434 161.3314092794899,161.53332062291156 161.26646248536417,160.94937534870405 161.20151569129666,160.36542821618787 161.15280559565872,159.80031631863676 161.0878588015912,159.1975283762149 161.03914870595327,158.61357566862716 160.95796521328157,158.04845837579342 160.90925511770183,157.5398513240798 160.82807162503013,157.01240548504575 160.81183492654236,156.46612069624825 160.89301841921406,156.2965837069787 161.21775238984264,156.25890879918006 161.2502257868764,156.25890879918006 161.26646248536417,156.2400713423558 161.59119645599276,156.1647214958939 161.96464052220108,156.03285919003247 162.45174147817306,155.90099678945262 163.13368281640578,155.75029678692226 163.6694938680157,155.63727170390484 164.2215416180552,155.46773394875345 164.78982606658246,155.3547086916078 165.35811051516794,155.22284580365522 165.91015826520743,155.12865796852566 166.46220601524692,154.97795733170642 166.96554366976488,154.86493177284137 167.4851180226542,154.75190614443272 167.93974558159243,154.6200428232405 168.45931993453996,154.48817940725712 168.9951309861499,154.39399119501468 169.49846864055144,154.28096527644084 170.05051639059093,154.18677695780934 170.52138064801693,154.03607554735208 171.02471830247669,153.94188710299204 171.560529353912,153.77234778128332 172.08010370691773,153.69699692135327 172.5672046627733,153.56513284200628 173.0380689201993,153.41443092102418 173.54140657471726,153.32024215751153 174.02850753063103,153.18837780739705 174.56431858212454,153.05651336250594 174.9864727439126,153.01883778940828 175.3761535087251,153.01883778940828 175.79830767045496,153.03767557695392 176.1555150381755,153.05651336250594 176.57766920002177,153.1318644854764 177.19466374412877,153.32024215751153 177.7304747956805,153.56513284200628 178.23381245014025,153.86653631267836 178.68844000896206,154.24328995478572 179.11059417075012,154.63888044639316 179.46780153847067,155.10982039563532 179.77629881055327,155.61843418324133 180.00361259002239,156.1082090906857 180.16597957524937,156.61682011076482 180.32834656065097,157.10659235320054 180.49071354587795,157.63403792145255 180.63684383267537,158.19915649070754 180.83168421505252,158.8584592883708 180.97781450184993,159.40473695474793 181.1564181856811,159.96985007057083 181.2376016782946,160.53496144608653 181.4811521563097,161.04356019603438 181.61104574450292,161.53332062291156 181.7734127298463,162.04191660571087 181.90330631809775,162.5505111789098 182.08191000192892,163.13445135792426 182.1630934945424,163.51118597116147 182.2605136857601,163.88791981096438 182.42288067104528,164.3023261414928 182.56901095778449,164.8674241748522 182.7313779431861,165.47019349249604 182.8775082299835,165.99761502124602 183.0236385167227,166.5627078343241 183.23471559764585,167.07128987825126 183.3483724873513,167.52336162299616 183.47826607554452,168.03194100467954 183.59192296524998,168.54051897698082 183.75428995065158,169.067931681755 183.900420237449,169.55767069336434 184.06278722267598,170.0662444375339 184.2089175094734,170.49947281168716 184.33881109772483,170.98920800321503 184.46870468591806,171.46010599340661 184.5985982742277,171.89333107726998 184.41999459033832,172.28888352158538 183.91665693587856,172.4395699428278 183.429555980023,172.59025624027709 182.92621832550503,172.6090920187853 182.487827465171,172.75977817713283 181.98448981076945,172.8351212098496 181.4811521563097,172.9104642116872 180.99405120039592,173.06115012259397 180.44200345029822,173.19300019313232 179.95490249438444,173.32485016895225 179.46780153847067,173.36252157314448 179.07812077377457,173.45670005002466 178.70467670750804,173.55087847849063 178.2013390531065,173.7015638636076 177.69800139858853,173.81457782124926 177.21090044267476,173.9087560661137 176.69132608972723,174.0406055276835 176.1555150381755,174.1159480346396 175.63594068516977,174.2477973474015 175.1488397293142,174.34197537 174.61302867770428,174.45498893329932 174.1259277218487,174.54916684953787 173.62259006738896,174.68101585110708 173.08677901583724,174.81286475792876 172.59967805998167,174.88820694790047 172.12881380255567,174.98238464184396 171.6417128465837,175.076562287446 171.07342839805642,175.20841091014154 170.5376173464465,175.3402594381041 169.95309619943146,175.45327238671598 169.46599524345947,175.58512073878956 168.96265758899972,175.62279167915403 168.47555663308594,175.79231081502803 167.9559822800802,175.92415892353165 167.45264462567866,175.98066522674344 166.9493069712189,176.11251319997245 166.42973261821317,176.24436107845395 165.91015826520743,176.33853807655396 165.43929400783964,176.43271502635616 164.95219305192586,176.56456267484464 164.46509209595388,176.60223341410165 164.25401501508895,176.86592837284843 164.1403581253835,176.77175164534128 163.7506773606292,176.8847637125291 163.57207367679803,177.07311700322316 163.57207367679803,177.09195232165803 163.588310375344,177.12962295272155 163.588310375344,177.14845826533565 163.588310375344,177.3556465767906 163.68573056650348,177.80769299001258 163.99422783858608,178.3727494408231 164.18906822096324,179.01314464891038 164.38390860328218,179.5781973887497 164.5300388900796,180.10557837654778 164.70864257391077,180.59528793710342 164.87100955925416,181.0661612824333 165.04961324308533,181.612372849675 165.19574352988275,182.06440877966816 165.35811051516794,182.51644359641068 165.52047750045313,182.96847730000445 165.65037108876277,183.43934455761337 165.74779127992224,183.96671445207903 165.9426316623576,184.3622408786614 166.13747204467654,184.85193908314977 166.29983902996173,185.37930491943553 166.4784427137929,185.812497151579 166.6408096991363,186.28335711396358 166.77070328738773,186.7353815415845 166.91683357412694,187.20623913682357 167.09543725801632,187.71476398313825 167.2578042432433,188.2044532445434 167.4201712285867,188.69414119971043 167.51759141974617,189.10849152613082 167.63124830945162,189.59817706978356 167.84232539037475,190.03135934652528 167.98845567711396,190.50220848803292 168.08587586833164,190.89772083360003 168.1995327580953,191.217896870221 168.31318964774255,191.50040467412327 168.44308323599398,191.83941346498614 168.54050342721166,192.19725539840874 168.6703970155213,192.55509663429984 168.80029060371453,192.93177086599462 168.93018419196596,193.30844432488084 169.07631447876338,193.68511701085663 169.2062080669566,194.04295534681296 169.31986495666206,194.38195944268955 169.4335218463675,194.73979642042832 169.54717873618938,195.11646616982762 169.64459892734885,195.49313514647656 169.7582558169961,195.86980335031694 169.985569596407,196.4348042071797 170.1479365818086,196.9621367714717 170.29406686854782,197.43296813839697 170.4726705524372,197.94146465850645 170.6188008391764,198.41229351403308 170.74869442742784,198.92078732191294 170.89482471416704,199.39161366621556 170.99224490538472,199.84360582080262 171.07342839805642,200.33326273264538 170.82987792004133,200.76641968160402 170.32654026563978,200.78525256930152 169.8394393096678,200.72875390054833 169.3685750523,200.74758679202932 168.94642089051194,200.70992100708827 168.57297682430362,200.6910881117219 168.08587586833164,200.65342231522663 167.58253821387189,200.63458941399585 167.14414735353785,200.55925779005338 166.60833630204434,200.54042487924744 166.13747204467654,200.55925779005338 165.65037108876277,200.54042487924744 165.09832333872328,200.63458941399585 164.676169176877,200.65342231522663 164.2864884120645,200.72875390054833 163.8968076474266,200.78525256930152 163.5071268826141,200.8605841005192 163.117446117918,200.93591560087225 162.7277653531637,201.03007993282517 162.35432128695538,201.14307706750697 161.81851023540366,201.2937398054928 161.29893588245614,201.42556959982903 160.76312483096262,201.57623210601741 160.25978717650287,201.68922890457907 159.7564495219849,201.83989119439502 159.25311186758336,201.93405506281124 158.78224761015736,202.04705164110055 158.32762005133554,202.19771363738982 157.8242823968758,202.25421185408777 157.43460163212148,202.2165463782003 157.07739426445914,202.27304458912113 156.78513369092252,202.5178699689568 156.42792632320197,202.59320078934252 156.0869556540856,202.6496988844592 155.68103819078533,202.7815277052723 155.0802803451079,202.9510217643401 154.5282325950684,203.10168301891827 153.95994814654114,203.27117678248032 153.45661049202317,203.38417253800435 152.95327283756342,203.53483343707921 152.46617188170785,203.66666162248293 151.97907092573587,203.79848971316824 151.4919699698803,203.91148514412635 151.0048690138501,204.04331305908272 150.53400475654053,204.15630833941395 150.0793771976023,204.26930355021614 149.6085129402927,204.41996372307767 149.10517528577475,204.5517912729847 148.56936423428124,204.68361872823152 148.1309733739472,204.7966136144969 147.6601091165794,204.90960843129142 147.1892448592116,205.04143562963873 146.7183806017856,205.17326273334038 146.2475163443596,205.17326273334038 145.76041538844584,205.28625731839566 145.2408410354983,205.41808424632472 144.7862134766765,205.51224627980264 144.2991125206463,205.6440730454924 143.89319505740423,205.79473209042044 143.40609410149045,205.92655865334382 143.00017663819017,206.0018880753778 142.56178577791434,206.0960498094646 142.10715821903432,206.2090438266605 141.68500405724626,206.30320545450377 141.23037649836624,206.3973670340638 140.74327554245247,206.56685775564983 140.22370118938852,206.6798514831171 139.73660023353295,206.7740128695441 139.2982093731407,206.9811677497637 138.82734511588933,206.75518059611204 138.56755793927005,206.3785347220546 138.2915340642794,205.92655865334382 138.01551018923055,205.4745814721682 137.75572301272769,205.02260317854234 137.49593583622482,204.53295877164055 137.33356885099784,204.08097816021473 137.10625507152872,203.59133124237997 136.9601247847895,203.10168301891827 136.79775779944612,202.59320078934252 136.68410090974066,202.12238265469205 136.55420732148923,201.61389771325048 136.47302382875932,201.1054113636783 136.37560363759985,200.63458941399585 136.3431302405661,200.16376625711564 136.2619467479526,199.69294189286302 136.21323665231466,199.1844502234744 136.22947335086064,198.73245644613053 136.19699995376868,198.26162841165205 136.1807632552809,197.7719659749564 136.13205315970117,197.26346898543125 136.16452655673493,196.77380388666643 136.14828985818895,196.26530413265573 136.13205315970117,195.7944697713392 136.13205315970117,195.32363420260663 136.1158164611552,194.8716309206211 136.08334306412144,194.47612713606213 136.08334306412144,194.06178892409662 136.05086966702947,193.68511701085663 136.06710636551725,193.2896106702683 136.06710636551725,192.89410347757803 136.05086966702947,192.5174291686708 136.0346329685417,192.14075408688223 136.05086966702947,191.7452444192022 136.05086966702947,191.38740160477755 136.00215957144974,190.97305642186257 135.9534494758118,190.5775442385493 135.9534494758118,190.18203120323597 135.93721277732402,189.7865173157188 136.05086966702947,189.3910025760997 136.1158164611552,188.9954869843932 136.16452655673493,188.3927949203644 136.14828985818895,187.75243243426667 136.1158164611552,187.18740485621674 136.08334306412144,186.62237553905288 136.08334306412144,186.0950132739381 136.06710636551725,185.5864839406131 136.05086966702947,185.00261519107153 136.06710636551725,184.5129173884634 136.0346329685417,184.00438367227616 135.93721277732402,183.5146832066821 135.92097607871983,183.04381614239537 135.90473938023206,182.70479110821907 135.8073191890726,182.49760883463023 135.8073191890726,182.44110453760368 135.75860909349285,182.1585827916133 135.74237239494687,181.80072128915344 135.75860909349285,181.38635446726403 135.70989899791311,180.84014222741826 135.67742560082115,180.31276335008442 135.67742560082115,179.74771287152544 135.66118890227517,179.2203308554599 135.6449522037292,178.6741121700179 135.61247880669544,178.10905664687743 135.59624210814945,177.61934045307862 135.5475320125115,177.09195232165803 135.49882191693177,176.60223341410165 135.46634851989802,176.07484236014716 135.43387512286426,175.58512073878956 135.41763842431828,175.03889123503177 135.4014017257723,174.5303312701726 135.53129531408194,174.0782767850469 136.0346329685417,174.05944115735474 136.53797062294325,174.1159480346396 137.05754497594899,174.1159480346396 137.54464593186276,174.0406055276835 138.0479835862643,174.0217698961642 138.58379463787423,174.0029342626367 139.087132292334,174.0029342626367 139.57423324818956,174.0029342626367 140.0775709025911,174.0029342626367 140.53219846158754,174.0029342626367 141.00306271895533,173.9840986271447 141.40898018225562,173.87108477389847 141.71747745428002,173.79574216644687 142.00973802787485,173.7015638636076 142.350708696933,173.68272819726553 142.91899314557668,173.645056858717 143.42233079997823,173.645056858717 144.02308864565566,173.645056858717 144.5426629986614,173.645056858717 145.06223735166714,173.60738551239774 145.50062821194297,173.532042796709 145.85783557966352,173.56971415842418 146.2637530429638,173.56971415842418 146.66967050620588,173.532042796709 147.07558796944795,173.532042796709 147.46526873420225,173.49437142720853 147.85494949895656,173.45670005002466 148.22839356510667,173.4001929697406" stroke="#4DD2FF" stroke-linecap="round" stroke-linejoin="round" stroke-width="0.5"><title>2023-04-28 11.4km</title><desc>9223370354211974807</desc></polyline><polyline fill="none" points="52.716396725096274,254.5880101903167 53.1720605759765,254.49012062585098 53.61084798781667,254.3922310111957 54.134017594275065,254.31391928330413 54.589681445097085,254.1964516312146 54.99471597914817,254.15729573102726 55.4166269521229,254.098561865816 55.85541436402127,254.07898390672926 56.27732533693779,253.9810940811003 56.71611274883617,253.8832042051945 57.12114728288725,253.86362622404704 57.54305825586198,253.80489226836653 57.91433991206577,253.70700230209331 58.319374446058646,253.58953427622328 58.74128541909158,253.49164419937006 59.146319953142665,253.43291012920963 59.46697229251731,253.3545980075287 59.872006826568395,253.27628585364437 60.26016492169583,253.2371297646605 60.69895233359421,253.11966144939652 61.1039868677035,253.02177113154903 61.576527157390956,252.94345884100767 61.96468525251839,252.8259903450089 62.420349103282206,252.7085217765998 62.842260076256935,252.5910531358968 63.28104748815531,252.434428169101 63.500441194104496,252.1015996876231 63.48356475512264,251.6708796142775 63.416058999544475,251.2793150673242 63.382306121697184,250.8485931372852 63.348553243791685,250.41787023461075 63.28104748815531,250.04588149060146 63.26417104923166,249.6738920211501 63.24729461030802,249.30190182619845 63.213541732518934,248.87117543104978 63.179788854613435,248.47960513694852 63.11228309897706,248.0292983049294 63.06165378220612,247.63772628249717 62.994148026569746,247.2069961294037 62.9435187097406,246.79584371230158 62.876012954104226,246.38469040888594 62.842260076256935,245.99311501032207 62.80850719840964,245.56238114333246 62.74100144271506,245.13164630364918 62.707248564925976,244.75964725023368 62.65661924809683,244.3289105977601 62.62286637030775,243.9373309786315 62.57223705353681,243.50659246907162 62.538484175747726,243.09543207524985 62.48785485897679,242.60595426025975 62.420349103282206,242.17521274398314 62.36971978651127,241.72489102774125 62.335966908722185,241.27456824819092 62.30221403087489,240.88298235824914 62.25158471416216,240.4522369507613 62.200955397391226,240.00191116629867 62.16720251948573,239.61032266337133 62.15032608062029,239.17957438154554 62.09969676384935,238.72924559208332 62.03219100809656,238.31807489917264 61.99843813030748,237.8873236986692 61.947808813652955,237.47615119063994 61.947808813652955,237.04539808847767 61.89717949682381,236.63422376525705 61.947808813652955,236.24262834752153 61.947808813652955,235.85103212571994 61.914055935747456,235.40069547659368 61.880303057900164,234.95035776401346 61.880303057900164,234.5979188124038 61.880303057900164,234.18673921229492 61.86342661897652,233.75597868034674 61.86342661897652,233.3643773523945 61.86342661897652,232.87487456167582 61.84655018005287,232.44411106641928 61.880303057900164,232.01334659817803 61.880303057900164,231.56300088639546 61.82967374112923,231.13223442777235 61.84655018005287,230.52524367539445 61.82967374112923,230.05531402409542 61.86342661897652,229.6637050966674 61.914055935747456,229.21335383587575 61.947808813652955,228.8217431793746 61.98156169144204,228.39097052837315 61.84655018005287,221.615963550983 61.82967374112923,221.20475595672906 61.81279730226379,220.75438471687085 61.81279730226379,220.3235938397993 61.79592086334014,219.91238345822785 61.374009890365414,219.89280198939377 60.918346039543394,220.06903513678117 60.51331150549231,220.2452681211871 60.04077121580485,220.46066376988892 59.60198380390648,220.6564777848398 59.19694926979719,220.85229159862502 58.8256676136516,221.0089425049082 58.42063307960052,221.1851746205648 58.01559854554944,221.3809878914326 57.644316889403854,221.5376383632829 57.256158794276416,221.71386999035894 56.88487713801442,221.8705201887351 56.47984260402154,222.06633275572676 56.0916845088359,222.22298266456346 55.669773535919376,222.418794869649 55.29849187965738,222.57544448884437 54.8934573456645,222.75167515667272 54.5221756894025,222.9083245024376 54.10026471642777,223.08455486260937 53.712106621358544,223.24120393485646 53.323948526231106,223.4370150942559 52.90203755319817,223.61324496574525 52.95266686996911,224.00486631927197 53.003296186740045,224.45522988143784 53.07080194243463,224.90559237991692 53.087678381300066,225.37553472250875 53.087678381300066,225.8063141857565 53.12143125914736,226.25667349313153 53.15518413699465,226.66787019262847 53.138307698071,227.0790660054481 53.138307698071,227.45109954818327 53.18893701484194,227.9406162617961 53.205813453765586,228.39097052837315 53.23956633155467,228.84132373133616 53.23956633155467,229.21335383587575 53.29019564832561,229.6441246291506 53.30707208730746,230.03573359680013 53.30707208730746,230.42734176020895 53.18893701484194,230.7797884196916 52.96954330895096,231.07349347167474 52.56450877484167,231.15181474245037 52.2776093131979,231.28887688896793 51.92320409597596,231.38677836186253 51.585675317561254,231.5825811568211 51.13001146679744,231.7783837508032 50.65747117710998,231.81754424548126 50.10054869268788,231.83712448975712 49.611131964076776,231.81754424548126 49.104838796542026,231.75880350047373 48.598545629007276,231.7392232480779 48.058499583625235,231.7392232480779 47.60283573274501,231.79796399910992 47.16404832090484,231.91544544692442 46.70838447014103,231.97418614369235 46.18521486368263,232.03292682240135 45.74642745178426,232.03292682240135 45.2401342841913,232.03292682240135 44.73384111665655,232.09166748294956 44.31193014374003,232.1699883355759 43.839389853936154,232.26788935610966 43.501861075579654,232.32662994427665 43.029320785892196,232.30704975024855 42.59053337399382,232.32662994427665 42.21925171773182,232.365790326352 41.814217183797155,232.38537051442836 41.409182649687864,232.4832714243821 41.071653871331364,232.73781355508254 40.70037221512757,232.81613414234016 40.2615848032292,232.81613414234016 39.83967383031268,232.85529442384723 39.4008864184143,232.87487456167582 38.928346128668636,232.87487456167582 38.54018803359941,232.89445469737984 38.10140062170103,232.93361496292346 37.69636608759174,232.95319509261753 37.24070223682793,232.93361496292346 36.8187912638532,232.91403483114846 36.39688029082026,232.91403483114846 35.991845756885596,232.93361496292346 35.51930546713993,232.93361496292346 35.09739449410699,232.83571428411233 34.827371471445076,232.9923553460103 34.25357254827395,233.090255944393 33.91604376985924,233.090255944393 33.81478513631737,233.44269768233062 33.78103225847008,233.95177904273442 33.730402941815555,234.4412790693168 33.57851499150274,234.8720380532759 33.74727938068099,235.2244764983334 33.89916733087739,235.6552337132889 33.96667308663018,236.02725052507594 33.96667308663018,236.49716546051786 34.000425964419264,236.96707923816575 34.0510552811902,237.37825284372957 34.067931720172055,237.80900519403804 34.000425964419264,237.84816445040633 34.03417884232476,237.9656421711261 34.03417884232476,237.9656421711261 34.0510552811902,238.06354021644802 34.10168459796114,238.49429101897113 34.13543747575022,238.98377938634076 34.16919035371393,239.47326649738534 34.152313914732076,239.96275235223584 34.16919035371393,240.39349886515993 34.152313914732076,240.84382372502296 34.11856103694299,241.3724645951006 34.13543747575022,241.84236636053538 34.21981967036845,242.1947919249069 34.16919035371393,242.64511253173987 34.18606679252116,243.09543207524985 34.18606679252116,243.60448767029447 34.21981967036845,244.0352259587671 34.2366961092921,244.46596327450243 34.25357254827395,244.9162785190274 34.27044898713939,245.3470138450939 34.287325426063035,245.85606343085237 34.287325426063035,246.28679663460935 34.321078303910326,246.7371075803676 34.30420186498668,247.05036674170697 34.35483118175762,247.5006758847885 34.37170762068126,247.87266959244153 34.3885840595467,248.30339824229304 34.405460498528555,248.73412591955275 34.405460498528555,249.18443108760403 34.43921337631764,249.55642151164648 34.37170762068126,249.96756797835405 34.47296625422314,250.31997853022767 34.489842693088576,250.75070165388752 34.50671913201222,251.14226728597714 34.60797776549589,251.57298855289991 34.5742248876486,251.98413067318324 34.60797776549589,252.37569377337059 34.658607082266826,252.8064122552605 34.67548352119047,253.19797366761486 34.67548352119047,253.64826829815865 34.64173064340139,254.1181398229237 34.64173064340139,254.5880101903167 34.64173064340139,255.05787940035225 34.658607082266826,255.48859182620072 34.37170762068126,255.7235254667903 33.94979664764833,255.70394767448306 33.527885674731806,255.6843698801531 33.15660401858622,255.7431032570894 32.75156948447693,255.82141439833504 32.38028782827314,255.9193032796029 31.95837685529841,256.07592538521567 31.57021876022918,256.25212510026176 31.182060665101744,256.5066355125309 30.844531886687037,256.70241252169944 30.473250230483245,256.9569223332219 30.101968574221246,257.15269888023613 29.7475633569411,257.42678570853604 29.359405261813663,257.6421393688215 29.021876483457163,257.83791521264357 28.7012241439661,258.0336908556201 28.431201121362392,258.15115614494425 28.178054537507705,258.3273539432994 27.874278637056705,258.4448190517869 27.435491225100122,258.58186158695025 26.996703813259955,258.6601715629222 26.591669279208872,258.69932653877186 26.169758306234144,258.738481506618 25.747847333317623,258.7580589875288 25.22467772680102,258.81679141827044 24.752137437055353,258.8559463620186 24.29647358629154,258.89510129770497 23.87456261337502,258.93425622543145 23.41889876249479,258.9734111450234 22.980111350596417,258.9734111450234 22.62570613337448,259.03214350946655 22.237548038188834,259.09087585576344 21.883142820908688,259.1496081839723 21.478108286799397,259.24749535755836 21.140579508501105,259.30622763755673 20.819927169010043,259.4628469625459 20.549904146406334,259.5020017737115 20.347386879322585,259.6586209379602 20.296757562551647,259.91312680566625 20.02673453988973,260.05016828609223 19.68920576153323,260.18720966808905 19.284171227482148,260.4025602123438 18.879136693431064,260.5983332234755 18.507855037169065,260.8136833036697 18.085944064252544,260.9898786430276 17.664033091336023,261.20522828119283 17.258998557226732,261.401000468657 16.83708758431021,261.61634964281984 16.482682366971858,261.8512757373828 16.583941000455525,262.20366433683375 16.75270538975019,262.67351479033823 16.921469778870232,263.14336408668896 17.073357729124837,263.5349042831076 17.22524567943765,263.90686672549054 17.343380751786754,264.2592515282886 17.461515824252274,264.6507894346869 17.613403774565086,265.0227497015876 17.765291724761482,265.3947092432645 17.917179675016087,265.78624481958104 18.06906762527069,266.15820287280076 18.220955575583503,266.5497368823417 18.44034928153269,266.9216934471915 18.81163093773648,266.94127008841315 19.216665471787564,266.8042335577047 19.587947128049564,266.6867735958367 20.07736385660246,266.5693135617621 20.516151268500835,266.4322767638223 20.921185802551918,266.3539699779649 21.359973214450292,266.25608645049215 21.731254870654084,266.2169330254983 22.153165843570605,266.13862615125254 22.57507681666175,266.07989597451524 22.946358472807333,266.0211657796608 23.385145884705707,265.962435566762 23.773303979833145,265.923282081465 24.228967830655165,265.8645518384292 24.650878803571686,265.78624481958104 25.05591333762277,265.74709129809344 25.410318554902915,265.6883610008372 25.832229527877644,265.62963068544923 26.22038762300508,265.57090035203146 26.625422157056164,265.53174678633513 27.013580252125394,265.47301642275124 27.435491225100122,265.41428604119574 27.840525759151205,265.3555556414358 28.262436732067727,265.2968252236751 28.650594827195164,265.2380947877391 29.0725058002281,265.1793643338315 29.460663895355538,265.12063386176305 29.86569842940662,265.0619033716357 30.253856524534058,265.00317286350764 30.65889105864335,264.9444423371897 31.063925592578016,264.8857117929001 31.41833080991637,264.866134940763 31.823365343909245,264.80740437225904 32.19464700011304,264.768250649955 32.58280509529868,264.7095200513577 32.98783962929156,264.6312125584809 33.359121285553556,264.59205879992805 33.730402941815555,264.5529050333862 34.13543747575022,264.47459747624816 34.52359557087766,264.3767129845801 34.77674215473235,264.2005207729817 34.9455065439106,264.1222130711976 36.093104390311055,263.8481358617719 36.53189180220943,263.8481358617719 37.02130853087874,263.7698280153272 37.578231015242636,263.6719431620295 38.08452418271918,263.57405825861497 38.557064472464845,263.476173304909 38.97897544549778,263.41744230860786 39.36713354056701,263.35871129416046 39.78904451354174,263.28040324681206 40.16032616968732,263.20209516742034 40.615990020509344,263.14336408668896 41.03790099348407,263.04547891202674 41.42605908866972,262.9867477831576 41.86484650045168,262.86928547108255 42.26988103450276,262.7909772228595 42.72554488538299,262.7126689425786 43.113702980510425,262.67351479033823 43.535613953426946,262.5952064617595 43.92377204855438,262.5364751942543 44.295053704758175,262.63436063007975 44.61570604424924,262.4385897082102 45.054493456031196,262.340704171962 45.49328086798778,262.26239570684265 45.93206827988615,262.1449329488096 46.33710281387903,262.10577868000837 46.8096431036829,262.0078929730662 47.248430515581276,261.9491615247098 47.6703414884978,261.8904300583381 48.10912890039617,261.7729670713161 48.49728699552361,261.71423555069487 48.902321529516485,261.63592682837043 49.25672674685484,261.55761807394447 49.67863771977136,261.4793092873879 50.066795814898796,261.401000468657 50.50558322679717,261.3226916177664 50.876864882942755,261.2639599585382 51.34940517274663,261.20522828119283 51.788192584586795,261.1269193499902" stroke="#4DD2FF" stroke-linecap="round" stroke-linejoin="round" stroke-width="0.5"><title>2023-04-18 10.4km</title><desc>9223370355076760807</desc></polyline></svg>