<?xml version="1.0" encoding="utf-8" ?>
<svg baseProfile="full" height="300mm" version="1.1" viewBox="0,0,200,300" width="200mm" xmlns="http://www.w3.org/2000/svg" xmlns:ev="http://www.w3.org/2001/xml-events" xmlns:xlink="http://www.w3.org/1999/xlink"><defs /><rect fill="#222222" height="300" width="200" x="0" y="0" /><text fill="#FFFFFF" style="font-size:12px; font-family:Arial; font-weight:bold;" x="10" y="20">Over 10km Runs</text><text fill="#FFFFFF" style="font-size:4px; font-family:Arial" x="10" y="280">ATHLETE</text><text fill="#FFFFFF" style="font-size:9px; font-family:Arial" x="10" y="290">chensoul</text><text fill="#FFFFFF" style="font-size:4px; font-family:Arial" x="120" y="280">STATISTICS</text><text fill="#FFFFFF" style="font-size:3px; font-family:Arial" x="120" y="285">Number: 6</text><text fill="#FFFFFF" style="font-size:3px; font-family:Arial" x="120" y="290">Weekly: 1.0</text><text fill="#FFFFFF" style="font-size:3px; font-family:Arial" x="141" y="285">Total: 70.8 km</text><text fill="#FFFFFF" style="font-size:3px; font-family:Arial" x="141" y="290">Avg: 11.8 km</text><text fill="#FFFFFF" style="font-size:3px; font-family:Arial" x="167" y="285">Min: 10.0 km</text><text fill="#FFFFFF" style="font-size:3px; font-family:Arial" x="167" y="290">Max: 14.2 km</text><polyline fill="none" points="55.44630367751233,65.98829111010127 55.271181372809224,66.34110955415235 55.014335325802676,66.66678727595718 54.69911517732544,67.45383843373565 53.91690221609315,68.83795143439784 53.905227395822294,68.77010309815523 53.648381348873954,69.09577479233849 53.19306335650617,69.42144567838113 53.017941051744856,69.59785040418501 52.97124177054502,69.78782445921388 52.88951802824158,69.88281138357706 52.7377453641966,69.85567226934654 52.34080147347413,70.20848031665082 51.74538563727401,70.61556534661213 51.687011535745114,70.76482954125095 51.23169354337733,71.10406571587373 51.161644621461164,71.0226491139183 50.904798574512824,71.19905168763944 50.869774113583844,71.38902342499932 50.41445612121606,71.74182735050272 50.017512230493594,72.1489076246362 50.05253669136437,72.27103146062291 49.59721869905479,72.77309492605855 48.88505465979688,73.8586309888342 48.81500573788071,74.06216800109542 48.17289062048076,74.65920808303053 47.39067765924847,75.2426764483971 47.37900283897761,75.33765942518949 47.052107870113105,75.51405619973957 46.655163979390636,75.9482626348763 46.50339131522924,76.24677872585016 46.316594190197065,76.39603651675861 46.246545268339105,76.6674138836097 45.79122727597132,77.08804769342532 44.8105423693778,77.75291774047946 44.5420215021004,78.09213585490943 44.44862293958431,78.34994103560166 44.238476173894014,78.51276509930904 43.911581205029506,79.1776279303449 43.643060337752104,79.59825369653117 43.61971069709398,79.78821327823971 42.21873225917807,82.28479937658994 41.903512110584415,82.92250669116038 41.63499124330701,83.62805159995332 41.319771094829775,84.64565777085954 41.05125022755237,85.20194580985117 40.45583439141046,86.07029315934051 39.638596969190985,87.4677776160097 39.58022286766209,87.68486124536139 39.2766775393975,87.96978296416637 39.2183034378686,88.13259509736963 39.12490487535251,88.1732980991219 38.833034367416985,88.75670640416502 38.716286164242774,88.89238238269172 38.657912062713876,89.17730148114788 38.377716375049204,89.59789521081257 38.28431781253312,89.86924528915551 37.88737392181065,90.45264605866396 37.688901976449415,90.84610092799994 37.43205592944287,91.21241991891293 36.696542249585036,92.51487916568294 36.52141994476551,92.90832785567909 36.18285015557194,93.36961102542409 35.16714078804944,94.98408935878251 34.86359545990126,95.5946012033528 34.74684725666884,95.70313634526974 34.093057318998035,96.78848283040861 33.47429184225621,97.65675356007705 32.90222564677242,98.56571832952613 32.89055082638515,98.6742510158947 32.65705442009494,98.85061643992958 32.28346016991418,99.39327779751329 32.27178534970153,99.43397730891593 32.31848463090137,99.47467680773116 32.166711966798175,99.65104115684517 32.07331340428209,99.92237046222726 31.559621310327202,100.76348774654616 31.197701880533714,101.50963566724386 30.99922993517248,101.78096113284118 30.77740834915312,101.98445486421406 30.427163739630487,102.64919885608833 30.205342153669335,102.92052196752047 30.158642872353084,103.164712288577 30.07691913022427,103.23254285274015 30.135293231753167,103.27324117445096 30.123618411424104,103.32750558370026 29.913471645733807,103.50386475908454 29.761698981630616,103.87014844358782 29.44647883309517,104.31782711522828 29.283031348662917,104.60271274815022 29.29470616899198,104.7790702112543 29.14293350483058,105.1589162505843 28.757664434378967,105.78294664478744 28.59421695000492,106.0 28.792688895366155,105.74224910076009 28.839388176682405,105.56589293091383 28.804363715695217,105.47093181830132 29.084559403301682,104.94186150546011 29.36475509084994,104.60271274815022 29.388104731508065,104.48061898112064 29.55155221594032,104.23643110660487 29.831747903546784,103.47673259369913 30.240366614598315,102.71702968647878 30.29874071618542,102.60850034101168 30.36878963810159,102.67633119245875 30.438838560017757,102.56780181337672 30.438838560017757,102.39144138107076 30.462188200617675,102.54066945459635 30.55558676313376,102.32361038248928 30.74238388822414,102.20151449678815 31.057604036701377,101.3061412001698 31.209376700862776,101.10264641781396 31.44287310715299,100.60069127321185 31.69971915415954,100.19369920704048 31.769768076075707,100.2615313056449 32.15503714646911,99.7053070627735 32.458582474675495,99.59677522850689 33.357543639081996,100.15299993105873 33.60271486575948,100.19369920704048 33.906260193907656,100.12586707339506 34.058032858069055,100.2615313056449 34.2214803424431,100.28866413528158 34.25650480343029,100.24796488873835 34.61842423322378,99.42041080654599 35.132116327178665,98.56571832952613 35.89097964769462,97.18191871611634 35.91432928829454,97.04625130246859 36.07777677272679,96.84274991921848 36.10112641338492,96.73421571923245 36.25289907748811,96.69351537106559 36.649842968268786,96.11014232839807 36.883339374559,95.8523720188532 37.046786858991254,95.71670323170838 37.07013649964938,95.5946012033528 37.32698254665593,95.309696029115 37.37368182785576,95.18759362236597 37.47875521070091,94.68561586839496 37.65387751546223,94.4685438129236 37.74727607797831,94.25147139861656 37.73560125770746,94.1836361955502 37.80565017956542,94.15650210448075 37.87569910148159,93.9529962430097 38.237618531275075,93.51884935100679 38.2609681719332,93.43744664899714 38.354366734449286,93.3831781529152 39.81371927401051,89.82854281313485 40.10558978188783,89.25870682430104 40.45583439141046,88.64816552042612 40.537558133597486,88.6888683623547 40.78272936027497,88.15973043326812 40.96952648530714,87.96978296416637 41.016225766565185,87.7934029254393 41.21469771198463,87.56275174800248 41.1913480713265,87.4677776160097 41.424844477616716,87.06074484351848 41.354795555758756,86.91149917745497 41.62331642303616,86.73511771702033 41.74006462615216,86.5587360195932 41.72838980588131,86.50446468040172 42.090309235733,86.13813255414425 42.18370779824909,85.60898434501723 42.73242435301654,84.22504817652225 44.62374524434563,81.05008066435403 45.11408769764239,80.14099462918239 45.13743733824231,80.08672063690028 43.68975961901015,82.71898341672204 43.77148336119717,82.59686930058524 43.66640997835202,82.71898341672204 44.07502868946176,82.04057022302004 44.11005315039074,81.85061390054761 44.07502868946176,81.75563563623291 44.34354955673916,81.36215352344152 44.308525095751975,81.32144840998808 44.14507761137793,81.28074328387447 45.39428338519065,78.09213585490943 45.207486260158475,78.14641067184857 44.93896539288107,78.33637235448987 44.84556683036499,78.33637235448987 44.8105423693778,78.29566630275804 43.934930845629424,81.1857646072749 43.934930845629424,80.92796499580436 44.168427251977846,80.67016487808723 44.530346681771334,80.42593272059457 44.71714380686171,80.2495425464731 46.02472368226154,76.65384502860252 46.18817116669379,76.45031203502731 47.1455064326874,75.37836639421585 47.4140272999648,75.21553844239679 48.056142417306546,74.69991526244849 48.11451651889365,74.5099483171507 48.52313523000339,74.17072094525793 48.93175394105492,73.75007778653526 48.99012804258382,73.8179235484713 49.04850214422913,73.79078524791112 49.37539711309364,73.22087963981903 49.56219423812581,72.71881788724568 49.73731654288713,72.44743235650822 49.795690644474234,72.37958588615584 49.8073654648033,72.61026374227367 50.02918705076445,72.29817007544625 50.37943166028708,72.0539223402302 50.70632662915159,71.33474581380142 51.64031225448707,70.62913482585282 51.73371081700316,70.72412114133476 52.095630246796645,70.52057895256439 52.7377453641966,69.99136778440152 52.99459141114494,69.57071123103378 53.29813673935132,69.24504071541014 53.718430270731915,69.0143569445354 53.77680437231902,69.13648369726434 53.95192667702213,68.68868504831335 54.395569849119056,67.88807153482048 54.418919489718974,67.83379247576522 54.453943950647954,67.9559203270328 54.5590173334931,67.73880406838725 54.687440356996376,67.64381559223693 54.757489278912544,67.46740823991422 54.95596122427378,67.22315151440853 55.15443316963501,66.39538923055807 55.36457993538352,66.11042067885865 55.69147490418982,65.30979143631703 55.726499365177006,65.2419412759773 55.74984900577692,65.37764156155754 55.90162166993832,65.10624085010204 55.866597208951134,65.44549165171338 56.100093615299556,64.54986763688794 56.240191459073685,64.30560548113135 56.57876124820905,63.89850087776722 56.67215981078334,63.59995669935597 56.718859092041384,63.68137790626497 56.718859092041384,63.47782479421585 56.84728211548645,63.20642015361227 56.8939813968027,63.21999039899674 57.30260010785423,62.609327968471916 57.197526725009084,62.43291384837357 57.314274928183295,62.20221810271323 57.5827957954607,61.82224775510258 57.80461738148006,62.052944168812246 58.505106600467116,61.41513544745976 58.56348070205422,61.279431064162054 58.65687926457031,61.21157881997351 59.24062028032495,59.976661844484624 59.17057135846699,59.56954381073592 59.21727063972503,59.42026688186161 59.25229510071222,59.37955496268114 59.357368483557366,59.800244184953044 59.54416560858954,59.54240256357298 59.66091381176375,59.47454942110926 61.06189224967966,55.09116206711042 61.21366491384106,54.7518844941369 60.22130518697668,58.02248376238276 60.27967928850558,57.79178026250156 60.27967928850558,57.167521699506324 61.72735700773774,53.58476294281718 61.87912967184093,53.3404803739395 62.392821765795816,52.87905650284665 62.45119586738292,52.716200631432 62.47454550798284,52.431202370135 61.72735700773774,53.91047232711571 62.57961889082799,52.14620348963945 63.10498580505373,51.413346382702 63.15168508636998,51.42691784782801 63.21005918789888,51.250488691875944 63.25675846915692,51.30477461125702 63.280108109815046,51.26406017380941 63.78212538344087,50.585484356066445 64.59936280554393,49.35046736057848 65.03133115725359,48.83474253657914 65.24147792294389,48.427589927610825 65.45162468869239,48.16972595495463 65.5333484308212,47.91186147546978 66.07039016543422,47.151836902994546 66.17546354827937,47.12469308683649 66.17546354827937,47.00254584454524 66.74752974376315,46.174655982351396 66.8526031266083,46.21537199936574 67.2728966579889,45.53677006563521 67.70486500969855,44.953169594853534 67.82161321281455,44.69529879227048 67.99673551757587,44.518860582611524 68.17185782233719,44.22027230259846 68.6155009943759,43.31093108095229 68.80229811946629,43.03948471836338 68.83732258039527,43.10734636169218 69.42106359620811,41.80439667588507 69.49111251812428,41.81796913513972 69.47943769779522,41.66867200593697 69.59618590091122,41.62795457757602 70.01647943235002,40.80003079259768 70.24997583864024,40.419998452824075 70.54184634657577,40.06711029415601 70.58854562783381,39.86352053997689 71.13726218271768,39.27989482654084 71.20731110463385,39.30704026615422 71.33573412807891,39.171313011916936 71.40578304999508,38.736984854607726 71.26568520616274,38.370519353062264 71.25401038583368,38.411237792664906 71.312384487479,38.302655258914456 71.25401038583368,38.09906276586116 71.07888808113057,38.031198531229165 70.49514706531772,37.32540840978618 70.17992691678228,36.823209279813454 69.53781179938233,35.35731973947259 69.43273841653718,35.35731973947259 69.11751826800173,35.00441795865481 68.59215135371778,34.69223482243251 68.2302319239243,34.339331251903786 67.89166213473072,34.14930585902766 67.5997916268534,34.05429305933649 67.34294557990506,34.0 67.28457147831796,34.09501283906866 67.02772543131141,34.09501283906866 66.80590384535026,34.13573260612611 66.49068369681481,34.09501283906866 66.14043908729218,34.23074534685293 65.60339735273737,34.31218478408118 65.27650238393107,34.47506350679032 64.84453403222142,34.81439352945017 64.70443618838908,35.153722674105666 64.43591532111168,35.52019716417999 64.1907440944924,36.307435198745225 64.23744337575044,36.42959240122582 64.20241891476326,36.57889549426909 64.26079301640857,36.66033347333723 64.62271244620206,36.8367822545697 64.7277858290472,36.945366001920775 65.28817720420193,37.05394965939922 65.81354411848588,37.02680375345517 65.93029232160188,36.99965784189408 66.59575707960175,36.673906464959146 66.78255420469213,36.673906464959146 66.89930240786634,36.8367822545697 66.84092830627924,37.02680375345517 66.33891103271162,37.21682497704751 65.94196714193095,37.29826256002707 65.3582261261181,37.352554253913695 64.90290813375032,37.284689633059315 63.863849125569686,36.9725119247305 63.42020595364738,36.75534438503382 62.824790117447264,36.673906464959146 62.78976565657649,36.714625431312015 62.4862203283119,36.60604149289429 60.66494835895719,35.913816772183054 59.85938575718319,35.71022057067603 59.754312374279834,35.54734338201524 59.941109499312006,35.79165908919822 60.11623180407332,35.83237832952" stroke="#4dd2ff" stroke-linecap="round" stroke-linejoin="round" stroke-width="0.5"><title>2024-09-02 14.2km</title><desc>12305365383</desc></polyline><polyline fill="none" points="154.41383402131032,105.97224733344046 154.9162216334371,105.91674199191038 155.80138075980358,105.80573127468233 156.61477022711188,105.61146240969538 157.3085435963003,105.55595699415426 157.95447052631062,105.33393521766993 158.6721671151463,105.25067700466025 159.29417082550935,105.08416050148662 160.27502283023205,104.97314944237587 160.96879619942047,104.75112718748278 162.0931875219103,104.80663276827545 163.14580918557476,104.39034063450526 163.81565933511592,104.25157644753926 164.67689524183515,104.16831790123251 165.44243826984894,103.94629498544964 166.35152061574627,103.75202478477149 167.06921720458195,103.53000152728055 167.61945125611965,103.47449568440788 168.38499428424984,103.3079780874832 168.64814970002044,103.3079780874832 168.74384257860947,103.22471925057471 169.7007713636849,102.91943662925041 169.94000355992466,102.89168364662328 170.2510054152226,102.6974126881978 170.56200727028772,102.03133977111429 170.418467952637,100.67143580436823 170.17923575628083,98.97848457479267 170.0835428776918,97.95160735296668 170.01177321886644,96.8969726334617 169.96392677957192,96.4529146788409 169.82038746180478,95.28725907814805 169.79646424215753,94.39913715232979 169.67684814403765,93.67753593961243 169.58115526556503,92.59513050946407 169.29407663003076,90.51356942637358 169.19838375144172,88.93157228510245 168.55245682166424,83.88022120113601 168.5046103822533,83.32512191988644 168.5046103822533,83.0475718518137 168.38499428424984,82.24267504311865 168.36107106448617,81.21573425625684 168.2414549663663,79.9389916221262 168.2414549663663,79.49490581435384 168.2893014056608,79.32837344831205 168.1936085271882,78.77326482068747 168.2414549663663,77.10793209861731 168.1936085271882,75.85892582469387 168.21753174671903,75.359321699274 168.2893014056608,74.08255140605615 168.43284072342794,73.77723587738001 168.14576208789367,72.86128722206922 168.05006920930464,72.3339214368898 168.21753174671903,71.75104226687108 168.2414549663663,69.97464085373213 168.40891750378069,69.11419222256518 168.8873818963766,52.154468213237124 160.22717639105394,34.0 168.16968530754093,59.03841248853132 168.14576208789367,58.28895931877196 168.1936085271882,57.983625950000715 168.16968530754093,57.067623774317326 168.16968530754093,56.81780446044286 167.95437633083202,56.45695393256028 167.8586834523594,55.95731394473114 168.00222277012654,55.763009255577344 168.05006920930464,55.013547003269196 168.0739924290683,54.43063048136537 167.83476023271214,53.819954681239324 167.93045311130118,53.708922569436254 168.05006920930464,53.54237431604997 168.0261459897738,51.87688613744103 168.09791564859916,49.79501148086274 168.05006920930464,49.10104969821987 168.0739924290683,48.12950020871358 168.0261459897738,47.07467109398567 168.0739924290683,46.76932505556033 168.0739924290683,46.15863194360281 168.05006920930464,45.71449063179898 168.0261459897738,45.10379513617954 168.16968530754093,44.576375188393285 168.0739924290683,44.354303323547356 167.54768159706146,43.910159046325134 166.9256778868148,43.743604754214175 166.18405807833187,43.521532204933465 164.60512558289338,43.29945947317174 163.5046574800508,43.21618215178023 162.11711074155755,43.07738655892899 161.80610888637602,42.96635003341362 161.16018195648212,42.93859089491889 160.60994790494442,42.85531346226344 159.84440487681422,42.79979515954619 159.485556582571,42.772036003967514 157.45208291406743,42.57772183470661 156.20807549345773,42.57772183470661 155.4664556849748,42.8275543123018 154.2702947035432,42.494444290874526 153.5525981147075,42.46668510392192 153.02628728281707,42.438925914029824 152.71528542775195,42.8275543123018 152.42820679221768,43.21618215178023 152.45213001186494,42.411166721372865 151.56697088561486,42.1058154135535 151.2798922500806,42.161333858734 150.6818117593648,42.30012992207776 150.41865634336136,41.99477848876268 150.39473312383052,42.022537724260474 150.05980804900173,41.49511176277883 149.9641151704127,41.60614889280987 148.7679541890975,41.467352473177016 146.68663408141583,40.96768477198202 145.72970529622398,40.99544411289389 144.1507728007855,40.96768477198202 141.83022049686406,40.80112866620766 140.3948273191927,40.66233183295117 139.94028614624403,40.63457245781319 138.7680483845761,40.38473795275786 137.76327316008974,40.079384355194634 136.39964964124374,39.85730879474431 135.1795654402813,39.77403041245998 134.34225275320932,39.662992529629264 133.28963108966127,39.63523305172566 132.90685957565438,39.57971408744925 132.47624162235297,39.55195460107643 132.0217004492879,39.413157126226 131.23223420162685,39.27435958018759 130.7776930287946,39.38539762274013 130.80161624832544,39.6074735710572 130.75376980903093,40.079384355194634 130.72984658938367,40.63457245781319 130.6102304912638,40.912166081456235 130.7059233697364,41.189759419852635 130.63415371102747,41.467352473177016 130.58630727173295,42.022537724260474 130.63415371102747,42.216852292680414 130.51453761279117,42.8275543123018 130.46669117349666,43.60480943226139 130.37099829514045,44.548616215295624 130.3949215146713,44.99275944320834 130.3949215146713,45.409143056487665 130.27530541655142,46.241908358293585 130.22745897737332,46.60277252551168 130.15568931843154,47.68536213587504 130.03607322031166,48.04622437557555 129.98822678090073,49.32311766248313 129.94038034172263,49.79501148086274 130.03607322031166,51.23844628108782 129.67722492583562,51.82136968802661 129.72507136501372,54.014260767318774 129.67722492583562,54.624936128326226 129.55760882771574,55.15233646609704 129.60545526701026,55.763009255577344 129.72507136501372,56.540227174031315 129.70114814548288,58.066898721124744 129.65330170618836,58.955140016798396 129.70114814548288,59.81562098817085 129.72507136501372,60.703856536973035 129.6293784865411,61.147973216633545 129.65330170618836,61.50881748163374 129.6293784865411,61.81414686809876 129.55760882771574,62.591347386158304 129.65330170618836,62.97994680714328 129.65330170618836,63.25751748014591 129.53368560806848,63.59060191141907 129.43799272959586,64.5343389044574 129.58153204724658,65.39480211446062 129.6293784865411,66.22750583881862 129.65330170618836,67.14347697270568 129.48583916877396,67.39328674320132 129.53368560806848,67.69860948255518 129.55760882771574,68.17047121960786 129.55760882771574,69.08643576948089 129.6293784865411,70.30771700793412 129.72507136501372,72.30616531448322 129.84468746325,73.36089596422971 129.91645712207537,74.44337840456865 130.13176609878428,74.80420492147096 130.0121500006644,75.13727512490004 129.7968410239555,75.22054261172889 129.94038034172263,75.38707750826143 129.91645712207537,76.1642390023917 129.91645712207537,76.41404043658986 129.8925339024281,76.6360859622946 129.7489945847774,76.60833028153866 129.84468746325,77.08017646634835 129.72507136501372,77.71855528789456 129.77291780430824,78.24591056862846 129.70114814548288,78.77326482068747 129.9643035613699,80.66062950406922 129.98822678090073,81.82634816729114 130.0121500006644,82.88104167420533 130.0599964398425,84.10226059454726 130.0599964398425,84.40756446259911 130.0599964398425,85.26796441792976 130.15568931843154,86.10060692889965 130.15568931843154,86.18387103889836 130.22745897737332,86.82222836406436 130.22745897737332,87.21079295454547 130.29922863608226,89.09809873590712 130.34707507537678,91.04089974972885 130.3949215146713,91.62373733165441 130.49061439326033,92.04004912090022 130.75376980903093,92.65063858570647 130.94515556609258,92.8449167626095 131.375773519394,92.8449167626095 135.20348865992855,92.65063858570647 135.53841373475734,92.65063858570647 137.4044248657301,92.59513050946407 138.1699678937439,92.6228845489677 138.40920009010006,92.78940872626845 138.62450906669255,93.15021075849654 138.5527394079836,93.56652019746252 138.6005858471617,94.23261396653834 138.67235550598707,94.6211679072876 138.79197160410695,95.34276660165051 138.81589482387062,95.75907266474678 138.83981804328505,96.42516103250091 138.88766448269598,97.2022620542557 138.83981804328505,97.70182581749395 139.00728058081586,98.34015594955417 139.27043599670287,98.5066766057571 139.55751463223714,98.56218346839887 139.67713073035702,98.70095057503204 139.7967468285933,98.8119642091333 140.80152205284685,98.8119642091333 141.208216786501,98.78421080493717 141.9737598147476,98.70095057503204 142.21299201098736,98.70095057503204 142.83499572135042,98.61769031963195 143.1699207960628,98.72870398781379 144.0311567026656,98.72870398781379 144.7966997307958,98.67319715945632 145.1794712449191,98.56218346839887 146.01678393175825,98.56218346839887 146.83017339929938,98.36790939932689 147.30863779166248,98.34015594955417 147.619639646844,98.22914212185424 147.81102540402208,97.97936084264074 148.1698736983817,98.1181282484904 148.86364706757013,98.00711432954995 149.38995789946057,97.92385386044043 149.9162687312346,97.70182581749395 150.1794241471216,97.8961003650038 149.9641151704127,97.95160735296668" stroke="#4dd2ff" stroke-linecap="round" stroke-linejoin="round" stroke-width="0.5"><title>2023-05-18 10.0km</title><desc>9091091194</desc></polyline><polyline fill="none" points="77.31034482753603,154.48608541670546 79.26344827580033,154.27487037300307 80.0413793103653,154.0252522866649 80.81931034475565,153.85243957025523 81.13379310350865,153.33400046323368 81.13379310350865,152.87316449535138 80.95172413793625,151.52905310523056 80.88551724137506,150.74178337778721 80.63724137929967,148.7255897007126 80.55448275862727,147.63107546188985 80.28965517238248,145.4228254861955 80.10758620686829,143.6178017957718 79.69379310344812,140.12291918271512 79.56137931032572,138.75951320459717 79.57793103443692,135.09170976496534 79.56137931032572,134.38118455196673 79.57793103443692,133.5746391471912 79.54482758615632,132.71047949665808 79.52827586204512,132.03835256348248 79.57793103443692,130.9629444461898 86.0,120.34295721669332 83.8482758620521,119.32509674980247 79.49517241382273,123.45411901127954 79.47862068971153,122.6091172243323 79.29655172413914,121.70649746133131 78.36965517239878,122.10979619174032 74.72827586199855,123.72298241547833 72.12965517240809,124.85604537169274 70.77241379307816,125.41297210480843 70.87172413791995,126.1043271212402 70.98758620687295,128.52404955129896 70.57379310345277,128.60086562360812 69.9613793102908,128.62006963677413 68.75310344825266,128.62006963677413 67.56137931032572,128.73529367429728 67.08137931034435,128.73529367429728 66.35310344828758,128.75449767366808 65.922758620698,128.77370167101617 65.31034482759424,128.6392736479611 64.63172413787106,128.83131365130248 63.95310344832251,128.86972162833263 62.76137931033736,128.9465375587024 60.361379310372286,129.11937328665226 59.28551724139834,129.21539306649356 57.48137931036763,129.25380096462322 56.32275862066308,129.29220885492396 54.104827586212195,129.4842481878295 53.27724137931364,129.44584033696447 52.78068965516286,129.90673402609536 52.78068965516286,132.44162901325035 52.86344827589346,133.2481793040206 53.095172413799446,134.47720163036138 52.615172413759865,134.88047282140178 52.35034482763149,134.76525256985042 51.83724137931131,136.8968157341733 52.01931034476729,138.0682049679599 52.217931034450885,138.49067141620617 52.28413793101208,138.9515428169252 52.26758620690089,139.20118101814296 52.317241379234474,140.2957445829088 52.317241379234474,140.64139490420348 52.151724137947895,141.7167473747104 52.1186206897255,142.38883952936158 52.08551724132849,143.1953469274158 52.38344827585388,144.42430389512447 52.46620689652627,145.74926408102328 52.51586206891807,146.7285764477274 52.49931034480687,147.63107546188985 52.49931034480687,148.39915629962343 52.49931034480687,149.03282061676146 52.56551724136807,149.87770303414436 52.631724137987476,150.97220412877505 52.73103448271286,151.83627941721352 52.84689655172406,152.83476144680753 52.764137931051664,153.2571945474192 52.78068965516286,153.4684107400535 52.78068965516286,156.19499836444447 52.764137931051664,156.88623961733538 51.969655172433704,156.92464183426637 51.25793103448814,156.94384293979965 50.76137931027915,157.05904953151185 49.53655172412982,157.61588039142953 47.73241379309911,158.7487380599341 47.02068965515355,159.22876042682037 46.474482758610975,159.51677325574565 45.54758620692883,159.8239864513307 45.00137931032805,159.9007896714029 44.53793103445787,159.97759285997017 43.67724137927871,160.01599444243766 42.31999999994878,160.09279758363846 41.87310344830621,160.13119914250274 40.92965517245466,160.2656045362528 39.241379310318734,160.6112179625925 38.39724137925077,160.93763005681103 37.75172413792461,161.2256402553321 36.72551724140067,161.6864556507935 36.245517241361085,161.93606351615745 35.782068965549115,162.16647048099549 34.904827586200554,162.6080830371211 34.557241379341576,161.7248568825744 34.34206896548858,161.2064395891939 34.06068965513259,160.03519523068098 33.9779310344602,159.38236732408404 33.282758620684035,158.49912594250054 32.35586206894368,157.67348348927044 31.56137931032572,157.21265821011912 31.213793103408534,157.17425605228345 30.253793103445787,156.55982045506244 29.988965517259203,156.38701007977943 28.880000000004657,155.58055955117743 27.62206896551652,154.60129352181684 27.357241379271727,154.4476826992177 27.108965517254546,154.25566899354453 26.628965517273173,153.87164099108486 26.231724137905985,153.73723100395 25.834482758655213,153.48761220030428 25.23862068960443,153.06517961990903 24.37793103448348,152.5083352157235 23.997241379343905,152.27791635679023 23.61655172414612,152.22031159770268 23.302068965451326,151.97069077004562 23.03724137932295,152.14350522465247 22.656551724125165,152.66194763070962 22.0937931034714,153.58361947185767 21.911724137957208,153.83323814743198 21.464827586140018,154.39007860825222 20.819310344813857,155.21573555108625 19.85931034485111,156.8478373924736 19.677241379278712,157.17425605228345 19.114482758624945,158.01910170372867 17.21103448275244,160.59201723340084 16.300689655181486,161.91686292298255 15.853793103422504,162.47367932605266 15.406896551779937,163.18409784839605 14.728275862056762,164.18251932070416 14.0,165.35373771913873 14.496551724150777,166.42894815541513 15.075862068973947,167.56175246734347 15.489655172394123,168.48335091638728 15.787586206861306,169.05934764214908 16.466206896526273,170.49933170007716 17.02896551718004,171.65131096851837 17.575172413839027,172.68808624705707 17.806896551745012,173.1680728568026 18.353103448229376,174.07044435046555 18.882758620660752,175.18400317466876 19.064827586174943,175.66398338307044 19.511724137992132,176.71993550831394 19.660689655167516,177.18071275045804 19.71034482755931,177.41110094607575 19.875862068962306,177.92947334931523 20.124137931095902,178.52463989359967 20.306206896551885,179.08140688290587 20.670344827580266,179.7149673042586 20.86896551726386,180.46371776457818 21.9448275861796,180.57890987717838 22.772413793078158,179.90695488729398 23.136551724164747,179.59977465993143 23.9310344827245,178.94701500266092 24.54344827582827,178.37104870851908 25.039999999979045,177.91027439697064 26.182068965455983,176.71993550831394 28.118620689609088,174.70402173532057 28.648275862040464,174.12804238314857 29.657931034453213,173.14887341606664 30.965517241391353,171.8625063985237 31.478620689653326,171.34411719029595 31.908965517242905,170.99852358706994 33.133793103450444,170.1153370347165 34.17655172414379,169.3857449998177 34.82206896546995,169.09774736080726 35.93103448278271,168.50255083579395 36.37793103442527,168.29135161376325 37.13931034482084,168.04175222590857 38.89379310345976,167.56175246734347 39.8703448275337,167.4273523143056 40.615172413759865,167.25455197575502 41.07862068968825,167.19695182739815 41.492413793108426,167.10095154073497 42.684137931035366,166.94735097973899 43.49517241376452,166.83215047621343 43.71034482761752,166.8129503854143 44.670344827580266,166.620949368953 45.87862068967661,166.52494878678408 46.39172413793858,166.42894815541513 46.92137931036996,166.3521476148453 50.016551724111196,165.8721435222251 51.059310344804544,165.718541952534 51.63862068968592,165.6417411203438 52.51586206891807,165.56494025672146 53.244137931091245,165.35373771913873 53.64137931028381,165.2577364869212 54.022068965481594,165.2193359802186 54.30344827583758,164.8545307735767 54.717241379315965,164.93133192883397 55.8924137930735,164.70092836857657 56.42206896550488,164.62412711876095 57.23310344823403,164.52812551220995 59.484137931023724,164.14411859333632 61.32137931033503,163.76011088641826 62.21517241379479,163.70250966244203" stroke="#4dd2ff" stroke-linecap="round" stroke-linejoin="round" stroke-width="0.5"><title>2023-05-09 13.0km</title><desc>9036885819</desc></polyline><polyline fill="none" points="148.79166666674428,142.94317304316792 147.25,143.08818151126616 144.83333333348855,143.37819831326487 142.58333333348855,143.52320664731087 141.16666666674428,143.47487054092926 139.0,143.61987884517293 135.375,143.76488710494596 134.08333333348855,143.81322318149614 129.70833333325572,143.7165510233026 128.41666666674428,143.81322318149614 126.5,143.86155925315688 120.5,144.0065674384532 117.45833333348855,143.90989531992818 115.91666666651145,144.05490349035244 114.125,144.4415917263832 114.625,152.7553120147495 115.58333333325572,163.4855945330346 116.58333333348855,163.72726474815863 123.66666666674428,162.51891243309365 133.20833333348855,160.73054531798698 135.75,160.6338766317931 136.625,160.15053290358628 137.66666666674428,159.9571952734259 139.33333333325572,159.6671886794793 142.625,159.08717495563906 146.75000000023283,158.31382221300737 153.29166666674428,157.20212542099762 155.95833333325572,156.6704434189014 156.91666666674428,156.47710436041234 159.08333333348855,156.09042600521934 161.79166666674428,155.51040787703823 164.54166666674428,155.07539381226525 169.79166666674428,154.1570294671692 171.16666666674428,153.86701930206618 172.70833333325572,153.67367909284076 185.12500000023283,151.45026098153903 185.95833333348855,150.14520633241045 183.75,138.0611952333129 183.04166666674428,136.51441943011014 181.08333333348855,136.80444028007332 179.125,137.14279771284782 178.33333333348855,137.2878079666698 177.70833333348855,137.38448144451831 175.95833333348855,137.86784853573772 175.08333333348855,138.10953189531574 172.91666666674428,138.64123484984157 169.875,139.12460065135383 167.33333333348855,139.89798490179237 165.08333333348855,140.09133076597936 164.54166666674428,140.18800366832875 162.70833333325572,140.67136788225616 161.70833333348855,141.05805889636395 159.62500000023283,141.49308590762666 159.375,141.68643111700658 157.54166666674428,141.78310369182145 156.54166666674428,142.02478504239116 154.54166666674428,142.41147494514007 154.25000000023283,142.1697937930876 153.16666666674428,142.45981116071925 147.08333333348855,143.13651765725808 145.58333333348855,143.08818151126616 145.04166666674428,143.47487054092926 144.0,143.4265344296291 138.54166666674428,143.61987884517293 136.58333333325572,143.61987884517293 134.95833333348855,143.86155925315688 131.58333333348855,143.7165510233026 129.45833333348855,143.61987884517293 128.29166666674428,143.81322318149614 125.29166666674428,143.90989531992818 123.58333333348855,143.90989531992818 119.875,144.1999116159568 119.16666666674428,144.10323953718762 117.16666666674428,144.10323953718762 116.375,144.10323953718762 114.25,144.1999116159568 114.25,144.8766156124475 114.33333333348855,151.25691978022223 114.45833333348855,152.94865260107326 114.83333333325572,160.6338766317931 115.5,163.34059234452434 116.04166666651145,163.53392858605366 123.625,162.3255757750012 124.29166666674428,162.18057322927052 128.91666666674428,161.4555598316656 131.75,160.82721398427384 134.5,160.3922048297245 135.625,160.6338766317931 136.41666666674428,160.44053920014994 136.83333333325572,159.9571952734259 141.04166666674428,159.37718190683518 154.04166666674428,157.00878658049623 156.00000000023283,156.62210866180249 157.20833333348855,156.38043480133638 159.75,155.89708670854452 161.41666666674428,155.5587427483988 164.75,155.12372872824199 170.45833333348855,154.0120244070713 172.75000000023283,153.57700895829475 175.875,153.1903282221465 181.0,152.27196020176052 185.16666666674428,151.40192568860948 186.0,150.3868833920278 185.70833333348855,148.64680579441483 184.87500000023283,143.90989531992818 184.70833333348855,142.84650070636417 184.25,140.18800366832875 183.75,137.81951184890931 182.95833333348855,136.32107209746027 178.375,137.2878079666698 176.29166666674428,137.72283846029313 175.20833333348855,137.96452189455158 171.16666666674428,138.9312543902779 169.12500000023283,139.4146198941453 167.6666666669771,139.75297545158537 167.625,139.75297545158537 166.12500000023283,139.80131193989655 165.29166666674428,139.99465784366475 164.66666666674428,139.99465784366475 164.33333333348855,140.2846765507129 161.625,140.96138617245015 160.87500000023283,141.1063952507102 159.125,141.73476740694605 158.125,142.07312129758066 156.41666666674428,142.1214575478807 154.54166666674428,142.31480249919696 153.95833333348855,142.55648357683094 153.66666666674428,142.36313872475876 151.125,142.65315597312292 149.70833333348855,142.84650070636417 146.4166666669771,143.13651765725808 144.79166666674428,143.3298621920112 139.91666666674428,143.52320664731087 138.95833333348855,143.47487054092926 137.41666666674428,143.7165510233026 135.70833333348855,143.76488710494596 135.00000000023283,143.81322318149614 133.91666666674428,143.76488710494596 130.16666666674428,143.61987884517293 128.95833333325572,143.76488710494596 127.79166666651145,143.76488710494596 126.41666666674428,143.76488710494596 124.83333333325572,143.90989531992818 121.83333333325572,143.86155925315688 120.41666666697711,143.90989531992818 119.58333333325572,143.95823138175183 117.83333333325572,144.05490349035244 116.70833333348855,144.05490349035244 115.25,144.05490349035244 114.08333333348855,144.24824764800724 114.16666666674428,145.64999041781994 114.29166666674428,151.16024914980517 114.5,153.04532286446192 114.54166666674428,155.12372872824199 114.79166666674428,159.28051294284523 114.91666666674428,162.27724159814534 115.45833333325572,163.38892641241546 117.0,163.58226263406686 119.41666666674428,163.0989219311159 120.75000000023283,162.85725139372516 123.625,162.3739099469094 124.66666666674428,162.2289074161672 129.7916666669771,161.11721986415796 132.08333333325572,160.68221097745118 134.91666666651145,160.2955360741471 135.75,160.585542281362 136.58333333325572,160.10219850344583 137.25000000023283,159.90886085346574 138.0,160.0055296884966 139.41666666674428,159.7155231241777 140.08333333348855,159.57051977497758 143.41666666674428,158.94217141304398 148.29166666674428,158.02381460712058 151.45833333348855,157.44379885986564 154.45833333348855,156.91211713067605 155.66666666674428,156.62210866180249 156.45833333348855,156.2837652224407 156.83333333348855,156.13876081691706 157.20833333348855,155.89708670854452 158.29166666674428,156.18709562369622 159.70833333325572,155.99375636666082 161.58333333348855,155.51040787703823 162.70833333325572,155.31706834223587 163.83333333348855,155.31706834223587 164.625,155.26873344622436 166.54166666674428,154.64037934574299 169.41666666674428,154.35036947811022 170.20833333325572,154.1086944520939 171.33333333348855,154.0120244070713 174.75,153.28699843594222 175.62500000023283,153.1903282221465 176.16666666674428,153.04532286446192 179.5,152.4653009864851 180.70833333348855,152.22362499326118 182.62500000023283,152.03028410937986 184.75000000023283,151.49859626946272 185.91666666674428,150.62856032775017 185.70833333348855,148.21178539056564 185.375,146.66504292271566 185.04166666674428,144.77994367250358 184.83333333348855,143.6682149367698 184.2916666669771,141.3480769484595 184.04166666674428,139.99465784366475 183.45833333348855,136.9011138570786 182.25000000023283,136.36940893807332 180.91666666674428,136.51441943011014 179.5,136.75610348416376 174.87500000023283,137.77117515713326 170.41666666674428,138.73790804983582 167.45833333348855,139.80131193989655 166.29166666674428,139.70463895821013 165.125,140.042994307325 163.25000000023283,140.62303148311912" stroke="#4dd2ff" stroke-linecap="round" stroke-linejoin="round" stroke-width="0.5"><title>2023-05-06 12.0km</title><desc>9018058420</desc></polyline><polyline fill="none" points="39.821450443705544,220.12945417813899 40.73102295724675,219.97871532659337 41.207465702435,220.079207904535 41.33740463294089,219.928469022052 41.662251959205605,219.9033458660124 42.16035119269509,219.80285321586416 42.61513744958211,219.80285321586416 42.87501531059388,219.62699097879522 43.24317561369389,219.62699097879522 43.82790080085397,219.47625181786134 44.54256491875276,219.37575899233343 44.694160337676294,219.5264982151566 44.975694687105715,219.3255125641008 45.82029773539398,219.2752661255654 46.94643513311166,218.94866402367188 47.94263360032346,218.69743134106102 49.025458021089435,218.5466916078003 50.02165648841765,218.320581833701 50.67135114094708,218.1698418683518 51.34270228177775,218.04422515962506 52.4038702143589,217.76786817346874 52.98859540163539,217.34077039947442 53.031908378354274,216.28558446878742 52.9452824248001,215.4313830029423 52.923625936266035,215.1801467104524 52.75037402904127,214.20032270564116 52.59877861000132,213.5219807123358 52.46883967949543,212.03967129600642 52.10067937639542,208.0700527177396 51.97074044588953,206.96457785541133 51.60258014278952,204.07524497667328 51.19110686285421,200.00499644286174 51.10448090930004,199.32661510592152 51.169450374436565,198.37185300173587 52.36055723740719,198.0703484054975 54.396267148666084,197.618090814678 56.84345033986028,197.04020489915274 57.83964880707208,196.8392007825023 58.18615262187086,196.73869866230234 60.07026711420622,196.3115641910117 60.46008390560746,196.18593626335496 61.93272511800751,195.85930334993463 63.31874037673697,195.6080469659355 64.33659533236641,195.30653896469448 65.39776326483116,195.00503059194307 67.2818777570501,194.5527673362958 68.51629759697244,194.27638382426812 69.49083957576659,194.02512581506744 71.43992353335489,194.02512581506744 72.50109146581963,194.27638382426812 72.93422123417258,194.427138505911 74.23361053923145,195.08040771991364 76.11772503145039,197.04020489915274 76.94067159143742,198.92461046342214 77.04895403340925,199.3014898351248 77.43877082504332,200.70850102827535 78.32668685005046,203.62299848235853 78.71650364156812,204.97973545847344 79.21460287517402,206.8640798930428 79.58276317827404,208.24592325820413 80.102518900414,209.9041249986185 80.49233569181524,211.28595120090176 80.62227462232113,211.8135555111803 80.83883950661402,212.34115868415392 81.0987173676258,213.44660926367214 81.66178606636822,215.53187744777824 82.26816774217878,217.31564697776048 82.76626697578467,219.04915702452126 82.72295399883296,219.62699097879522 81.8783509505447,219.928469022052 81.22865629801527,220.104331042603 80.99043492542114,220.02896162075922 79.97257996990811,220.3555622813583 78.26171738479752,220.65703942738764 78.0668089891551,220.73240865588014 76.42091586929746,221.13437748266733 75.5763128210092,221.15950051248365 75.03490061068442,221.33536164859834 73.71385481709149,221.68708354180853 72.73931283841375,221.88806725393806 71.98133574367967,222.11417373274162 70.94182429974899,222.31515709421365 70.44372506602667,222.4407716113201 69.01439683046192,222.74224618944572 67.69335103710182,223.06884323002305 67.21690829191357,223.11908888994367 66.9570304309018,223.16933453959064 65.85254952160176,223.3954398349597 64.63978617021348,223.64666769612813 63.86015258717816,223.84764979945612 63.57861823774874,223.94814078915806 63.167144957813434,224.02350900444435 62.3441983978264,224.14912264495797 62.0626640485134,224.19936808312195 61.73781672224868,224.32498163339915 61.196404511807486,224.4254724272323 60.828244208707474,224.5008404955006 60.65499230148271,224.55108586147253 59.78873276466038,224.7018218975427 59.33394650788978,224.80231253663078 59.13903811213095,224.85255784081528 58.662595366942696,224.95304841799953 56.71351140947081,225.3801329111884 56.15044271061197,225.45550068555167 55.80393889581319,225.73184899314947 55.63068698847201,225.80721665921737 55.522404546500184,225.68160386949603 54.677801498095505,225.95795192183868 54.82939691701904,226.91260642970155 55.04596180131193,227.21407550103322 55.305839662323706,227.76676783400762 56.06381675682496,230.304112077225 56.626885455683805,232.01240824043634 57.081671712570824,233.26850075605034 57.47148850397207,234.29849181012833 57.57977094606031,234.72556000080658 57.6230839228956,235.22799221260357 57.904618272325024,235.70530185873213 58.03455720283091,236.03188160683203 58.77087780914735,238.14207870903192 60.026954137254506,242.035847050327 60.17854955617804,242.8899556959077 60.46008390560746,243.56821632155334 60.71996176673565,244.3469576859934 61.196404511807486,245.62810744512535 61.26137397706043,245.95467395875312 61.802786187501624,247.56237967596098 62.45248084003106,249.37103599100374 62.88561060850043,250.95359930854465 63.57861823774874,252.88782947440632 63.751870145089924,253.44046385859838 64.33659533236641,255.24907676035946 64.7480686121853,257.33398894836137 64.44487777445465,257.6856591342803 63.68690067983698,257.6856591342803 63.27542739990167,257.6354205671523 62.84229763154872,257.610301279783 62.25757244427223,257.66053985200415 61.86775565275457,257.610301279783 61.58622130344156,257.5851819897798 61.34799993073102,257.5600626972446 60.74161825503688,257.5349434021482 60.416770928772166,257.50982410447614 59.96198467200156,257.4847048040974 59.68045032257214,257.4344661958603 58.05621369124856,257.4344661958603 56.75682438618969,257.5349434021482 55.717312942259014,257.610301279783 55.457435081130825,257.66053985200415 55.00264882447664,257.6856591342803 54.78608394030016,257.81125550677825 53.37841219315305,258.11268653821026 52.923625936266035,258.28852113518224 51.71086258487776,258.5899515791243 51.25607632822357,258.71554748799826 50.54141221032478,258.81602416865644 50.194908395642415,258.9667391123803 49.696809162036516,259.1174539633357 48.96048855583649,259.26816872159543 47.63944276247639,259.64495521143544 46.838152691023424,259.67007429008663 46.448335899505764,259.5947170462605 45.86361071211286,259.9212649354595 44.975694687105715,260.2226933699858 44.06612217356451,260.44876445228874 43.221519125276245,260.6999542990525 42.61513744958211,260.8255491258169 41.553969517117366,261.1018575179769 40.1246412814362,261.52887896547327 37.525862671318464,262.18196915084263 36.42138176213484,262.5085135905101 33.02131308056414,263.36255083576543 32.26333598594647,263.5635003431089 31.85186270601116,263.5132629817235 29.577931422158144,264.0156361316476 28.451794024556875,264.3924153178232 27.888725325581618,264.56824540633534 27.195717696333304,264.7189568103495 24.661908551468514,265.3469199954852 24.163809317862615,265.47251243921346 23.449145199963823,265.5729863479064 22.45294673286844,265.87440782669 22.10644291806966,265.974881570437 21.60834368446376,265.5729863479064 21.218526893062517,264.94502374246076 20.958649032050744,264.4677710854885 19.52932079648599,261.60423561411153 18.641404771246016,258.4643556059018 18.4464963756036,256.7311245976598 18.294900956680067,255.47515243392263 18.294900956680067,254.92252264122362 18.143305537640117,252.9883085461479 18.16496202617418,251.5564778821863 18.07833607250359,249.24543528960203 18.099992560921237,248.81839242315618 18.099992560921237,246.85900972348463 18.05667958408594,245.05033485415333 17.88342767674476,244.19623374419461 17.86177118832711,243.51797485817224 17.88342767674476,242.990438870067 18.05667958408594,242.33729750069324 18.143305537640117,241.70927531023335 18.07833607250359,238.99620093709382 18.035023095668294,236.55943258738262 18.035023095668294,235.32847853118437 17.86177118832711,234.27337012861972 17.818458211491816,233.49459672448575 17.623549815732986,232.53996788193763 17.601893327315338,231.68582313084335 17.450297908391804,226.4352796410967 17.19042004738003,222.18954251267132 17.731832257821225,222.06392786664946 19.507664307951927,222.0890508009761 19.81085514591541,222.03880492973258 23.73067954950966,222.01368199016724 25.073381831287406,221.91319020630908 25.289946715463884,221.8629442989186 25.701419995515607,221.63683758801199 26.00461083324626,221.58659162385447 28.105290209758095,221.51122265835875 29.902778748539276,221.4358536695945 30.617442866321653,221.38560766428418 30.942290192469954,221.4358536695945 32.393274916452356,221.38560766428418 32.67480926588178,221.38560766428418 34.68886268872302,221.1846235396224" stroke="#4dd2ff" stroke-linecap="round" stroke-linejoin="round" stroke-width="0.5"><title>2023-04-28 11.3km</title><desc>8969587462</desc></polyline><polyline fill="none" points="166.93269545340445,249.4506802530086 167.585251158569,249.29405694185698 167.69776076287962,249.32016083379858 167.87777612975333,249.32016083379858 168.30531262629665,249.21574525015603 169.07037793577183,249.08522571036883 169.36290290707257,248.95470610361372 170.01545861223713,248.9024982421397 170.5330027922755,248.79808248706104 170.96053928870242,248.77197854158294 171.70310267736204,248.61535481254396 172.51317182870116,248.51093893953657 172.82819872081745,248.48483496459085 173.32324097980745,248.40652302371745 173.6157659511082,248.35431504974258 174.26832165627275,248.14548304659547 174.71836007363163,247.98885893178522 175.0558888866799,247.9627549032448 175.3709157787962,247.93665087212867 175.8659580379026,247.8844428016455 176.22598877188284,247.78002662866493 176.72103103087284,247.75392257867497 178.97122311778367,247.231841017041 179.6912845855113,247.02300809230655 180.86138447071426,246.68365422399074 181.3339248088887,246.18767467884754 181.22141520457808,245.22181699944485 181.06390175851993,243.65555350651266 181.04139983770438,243.42061315065075 180.97389407502487,242.7941044739855 180.86138447071426,241.5149778004561 180.8163806288503,240.99288343189983 180.74887486628722,240.3924735829496 180.65886718290858,239.71374769909016 180.5913614203455,239.19164963286312 180.50135373673402,238.6173405219597 180.50135373673402,238.5129205442645 180.43384797417093,237.88639977788262 180.43384797417093,237.70366426362307 180.29883644904476,236.81608989792585 180.18632684461772,235.66745964995062 180.0738172403071,234.77987817773828 180.05131531937514,234.36219170717231 180.00631147774402,233.94450455057085 179.84879803156946,232.79586133254634 179.87129995250143,232.53480533210677 179.78129226900637,231.69942432986863 179.6912845855113,231.51668436985346 179.71378650644328,231.04678101251193 179.60127690201625,229.68927754700417 179.46626537677366,228.30566078845004 179.44376345607452,228.07070625149936 179.37625769339502,227.6269026449445 179.3312538516475,227.26141674036626 179.24124616815243,226.84371792040474 179.1962423264049,226.37380592782574 179.1962423264049,225.51229835272534 179.24124616815243,225.09459665960458 179.21874424722046,224.59857500778162 179.1962423264049,224.2852976765571 179.15123848465737,223.39767647533154 179.1287365638418,220.4737258975656 179.1287365638418,219.95158832760353 179.15123848465737,219.42944968539814 179.08373272209428,218.28074089839356 179.15123848465737,217.96745578302944 179.08373272209428,216.7143114615319 179.15123848465737,216.47934621357126 179.15123848465737,216.03552237521217 179.1962423264049,215.6439124626777 179.44376345607452,214.3907566889975 179.60127690201625,194.0 180.09631916112266,201.04948626500845 179.1287365638418,205.59238494146848 179.06123080127873,203.24261989969818 178.76870582986157,203.11207676050253 177.32858289440628,203.66035749447474 168.12529725930654,207.70715490980365 167.22522042458877,208.07266892379266 167.2027185037732,208.35985813759908 167.4052357915789,209.639151603129 167.5177453958895,212.1977192225604 167.49524347495753,213.45088580549054 167.585251158569,214.5212940369238 167.6527569211321,215.6178051136667 167.72026268369518,217.07981252664467 167.72026268369518,217.34088439425977 167.56274923763704,217.44531306628778 167.56274923763704,217.99356289066782 166.84268776979297,218.1763125694124 166.34764551080298,218.38516918433015 165.8301013307646,218.54181153293757 165.35756099247374,218.8550959405693 164.38997839507647,219.06395199793042 163.82743037352338,219.09005899299518 161.8697632579133,218.98563099656894 159.8445903797401,219.09005899299518 159.304544279119,219.2989148573397 157.18936371745076,219.37723576220742 155.4117119688308,219.63830527089885 153.6340602202108,219.74273299936613 152.37395265162922,219.847160684978 151.8789103925228,219.97769523152965 151.11384508293122,220.42151218882645 149.71872598910704,220.49983274788246 149.0661702840589,220.49983274788246 147.04099740588572,220.60426012250537 143.80072080087848,220.57815328292781 143.21567085839342,220.49983274788246 142.78813436173368,220.68258062530367 142.29309210274369,220.73479428050632 141.82055176445283,220.81311474308313 141.7755479227053,220.99586239534256 141.7755479227053,221.36135730579554 141.73054408095777,221.8312785615126 141.66303831839468,222.4056255837204 141.48302295140456,222.87554490953335 141.43801910965703,223.162717403422 141.7755479227053,223.81538095597352 141.95556328969542,224.80742634752824 142.0905748148216,226.60876203267253 142.04557097319048,227.15699209969898 142.00056713144295,227.13088593284192 142.04557097319048,227.28752289386466 142.06807289400604,227.49637202505255 142.18058249843307,228.98441712012573 142.18058249843307,229.9503364685952 142.18058249843307,230.31581850844668 142.22558634006418,230.9684637018654 142.22558634006418,232.32596033888694 142.24808826099616,232.5609109441575 142.29309210274369,232.821966917807 142.2030844191322,233.60513323065243 142.22558634006418,234.59714043136046 142.31559402355924,236.45061719996738 142.38309978612233,238.382395511886 142.4056017070543,239.29606933183095 142.4731074696174,240.36636877471756 142.49560939054936,241.22782603034284 142.51811131136492,241.854338565332 142.60811899485998,242.82020903297234 142.49560939054936,243.39450865329127 142.67562475742307,244.90856507245917 142.78813436173368,245.11739973328076 142.81063628266566,245.43065140303224 142.76563244091813,246.05715358510497 142.78813436173368,246.7619666953251 142.90064396616071,248.45873098699667 142.85564012441318,248.95470610361372 142.85564012441318,249.29405694185698 142.87814204534516,250.62535201235733 142.74313052010257,250.96470062169828 142.38309978612233,250.91249317285838 141.55052871408407,250.91249317285838 140.02039809490088,251.14742660851334 138.60277708026115,251.7478110693337 136.89263109432068,252.79195458235336 135.8800446552923,253.47064556737314 134.4399217197206,254.25374829983048 133.96738138142973,254.5408853643603 132.77477957541123,254.8802287500148 130.83961438084953,255.01074531623453 129.33198568259832,255.21957168294466 128.49941461056005,255.24567496670352 127.89186274714302,255.29788152621768 127.1492993584834,255.35008807503618 126.65425709937699,255.42839787814592 124.83160150900949,255.74163684960513 124.40406501258258,255.97656582506897 124.11154004116543,255.97656582506897 123.79651314904913,256.4464231250022 122.94144015619531,256.8901764446782 120.78125575266313,257.9865048569336 118.73358095367439,258.9784169679915 118.64357327029575,259.34385729706264 119.13861552940216,260.6489970438852 119.40863857988734,261.197153740839 119.79117123456672,262.34566870416165 120.19620581006166,263.44197360481485 121.00627496151719,265.4779558859009 121.27629801188596,265.92169345126604 122.78392671002075,265.58236479447805 127.66684353840537,264.6165807555808 129.42199336609337,264.3816597593104 131.424664323451,264.06843142684374 138.35525595082436,263.1287441153254 140.5154403541237,262.91992424137425 141.1454941384727,262.7894117331307 141.7755479227053,262.71110419597244 142.6531228366075,262.5283865156671 143.17066701652948,262.1368481874524 143.32818046270404,262.2934635910933 144.74580147734378,261.84971969702747 145.17333797377069,261.7975144821248 146.09591672942042,261.7192066396674 146.77097435540054,261.56259088253137 153.43154293240514,260.3096613538946 155.23169660184067,260.04863359202864 155.7717427026946,260.17914750642376 156.06426767399535,260.10083916585427 156.3342907243641,259.8398111897113 157.9094251851784,259.52657726472535 158.5394789695274,259.4221658706956 159.9796019049827,259.21334295412817 160.40713840152603,259.1089314314886 162.13978630851489,258.76959368705866 165.33505907165818,258.24753473483725" stroke="#4dd2ff" stroke-linecap="round" stroke-linejoin="round" stroke-width="0.5"><title>2023-04-18 10.2km</title><desc>8909946697</desc></polyline></svg>