<?xml version="1.0" encoding="utf-8" ?>
<svg baseProfile="full" height="200mm" version="1.1" viewBox="0,0,200,200" width="200mm" xmlns="http://www.w3.org/2000/svg" xmlns:ev="http://www.w3.org/2001/xml-events" xmlns:xlink="http://www.w3.org/1999/xlink"><defs /><rect fill="#1a1a1a" height="200" width="200" x="0" y="0" /><text alignment-baseline="middle" fill="#e1ed5e" style="dominant-baseline: central; font-size:9.0px; font-family:Arial;" text-anchor="middle" x="100.0" y="100.0">2024</text><line stroke="#e1ed5e" stroke-width="0.3" x1="100.0" x2="100.0" y1="15.0" y2="10.0" /><path d="M 100.0 14.0 a86.0,86.0 0 0,1 42.35913384403234,11.155469271406648" fill="none" id="id25" stroke="none" /><text fill="#e1ed5e" style="font-size:6.75px; font-family:Arial;" text-anchor="middle"><textPath startOffset="22.145653131862478" xlink:href="#id25">January</textPath></text><line stroke="#e1ed5e" stroke-width="0.3" x1="143.13028292997686" x2="145.6673583964461" y1="26.7553504044142" y2="22.446841604673864" /><path d="M 143.63769802327073 25.89364864446614 a86.0,86.0 0 0,1 29.32050498858742,28.57503671076993" fill="none" id="id26" stroke="none" /><text fill="#e1ed5e" style="font-size:6.75px; font-family:Arial;" text-anchor="middle"><textPath startOffset="20.669276256404974" xlink:href="#id26">February</textPath></text><line stroke="#e1ed5e" stroke-width="0.3" x1="172.87174338648825" x2="177.1583165268699" y1="56.24261187166439" y2="53.66864786411523" /><path d="M 173.72905801456457 55.72781907015455 a86.0,86.0 0 0,1 12.242430191666344,42.057860355516425" fill="none" id="id27" stroke="none" /><text fill="#e1ed5e" style="font-size:6.75px; font-family:Arial;" text-anchor="middle"><textPath startOffset="22.145653131862474" xlink:href="#id27">March</textPath></text><line stroke="#e1ed5e" stroke-width="0.3" x1="184.99686870605535" x2="189.99668451229388" y1="99.2704041080226" y2="99.22748670261217" /><path d="M 185.99683186730306 99.26182062694052 a86.0,86.0 0 0,1 -10.086455211305974,41.156179273409016" fill="none" id="id28" stroke="none" /><text fill="#e1ed5e" style="font-size:6.75px; font-family:Arial;" text-anchor="middle"><textPath startOffset="21.40746469413373" xlink:href="#id28">April</textPath></text><path d="M 120.51834098615036 104.47187691870673 l 3.492525127877985 0.7611795962404013 a24.574510616376994,24.574510616376994 0 0,0 -0.093370429986798,0.4114073425223465 l -3.478943836333523 -0.8210212727017648" fill="#ff0100" stroke="none" /><path d="M 120.43855184770803 104.8234425847677 l 6.884758783183273 1.6247843266050017 a28.07388348862211,28.07388348862211 0 0,0 -0.11471854202152304,0.46809079924627983 l -6.8558527146454535 -1.742730950459381" fill="#ff3505" stroke="none" /><path d="M 120.35273937422433 105.17358676015961 l 6.8732889330889275 1.7471631690039102 a28.091874216090307,28.091874216090307 0 0,0 -0.12281569318797438,0.466351191449336 l -6.842283759096223 -1.8648948648260495" fill="#ff3505" stroke="none" /><path d="M 120.26092885502905 105.52220625578681 l 6.829350672006802 1.8613698944289443 a28.078469360329688,28.078469360329688 0 0,0 -0.13074071782336896,0.4639526846174554 l -6.796391462108853 -1.9783305029494083" fill="#ff3505" stroke="none" /><path d="M 120.16314734710363 105.8691983318838 l 11.097905045722054 3.2304384162085276 a32.55851325927253,32.55851325927253 0 0,0 -0.16081375287916022,0.5352966814961733 l -11.040814972839264 -3.4204727012954246" fill="#ff760a" stroke="none" /><path d="M 119.83427380445688 106.89939002012753 l 3.3997423720101354 1.1826068765462276 a24.599556531087618,24.599556531087618 0 0,0 -0.1421618094098666,0.39765188242074506 l -3.3789403925563257 -1.2407937153478943" fill="#ff0100" stroke="none" /><path d="M 119.31412917781788 108.2440532568976 l 13.629724177344942 5.817718777810907 a35.81942080272353,35.81942080272353 0 0,0 -0.2462433680804733,0.5634530157047496 l -13.527846927247502 -6.050833863291501" fill="#ffa30f" stroke="none" /><path d="M 119.16976305983485 108.57439118712176 l 14.847464082873788 6.641081832150549 a37.26502866869737,37.26502866869737 0 0,0 -0.2662063437107768,0.5817089036040229 l -14.731273274307956 -6.894979717969261" fill="#ffb710" stroke="none" /><path d="M 119.0197475246899 108.90220220490707 l 11.781695871939363 5.514428560766775 a34.00835423759183,34.00835423759183 0 0,0 -0.2520193010483911,0.5266234106383868 l -11.68529731293106 -5.7158644734702655" fill="#ff8a0c" stroke="none" /><path d="M 118.70294669586154 109.54985784667822 l 15.72091834540543 8.027212923142102 a38.65172572119691,38.65172572119691 0 0,0 -0.30680622847223504,0.588341397013091 l -15.580804047958246 -8.295900563259696" fill="#ffc912" stroke="none" /><line stroke="#e1ed5e" stroke-width="0.3" x1="174.33088141563837" x2="178.70328620479359" y1="141.23008692659167" y2="143.65538615756765" /><path d="M 175.20536237346943 141.71514677278685 a86.0,86.0 0 0,1 -30.301960400862466,31.631185727798858" fill="none" id="id29" stroke="none" /><text fill="#e1ed5e" style="font-size:6.75px; font-family:Arial;" text-anchor="middle"><textPath startOffset="22.145653131862474" xlink:href="#id29">May</textPath></text><path d="M 117.01052211995028 112.31430620078461 l 5.595721891377885 4.050871119590435 a27.908086588425014,27.908086588425014 0 0,0 -0.2842611123116078,0.38565479277803816 l -5.525358759482449 -4.14633222163735" fill="#ff3304" stroke="none" /><path d="M 116.79662413953412 112.60449989151573 l 9.1019020692511 6.830236998304615 a32.37966426267694,32.37966426267694 0 0,0 -0.33743930941992106,0.44171888797803294 l -8.983310782476874 -6.985476799523526" fill="#ff730a" stroke="none" /><path d="M 116.1254893667686 113.45245675266167 l 3.1586968874175003 2.6350972864314395 a25.11352692169862,25.11352692169862 0 0,0 -0.279005826682987,0.3286681622823863 l -3.1129964972273987 -2.6889322311633825" fill="#ff0901" stroke="none" /><path d="M 115.41159269507618 114.26474011684316 l 2.598945849744721 2.4055454785150796 a24.541351236337572,24.541351236337572 0 0,0 -0.2888215138233455,0.3067184388799271 l -2.5572685021851154 -2.449805377339504" fill="#ff0000" stroke="none" /><path d="M 114.91283532996324 114.78537596483092 l 3.7986847385699702 3.766217542734771 a26.349242967210177,26.349242967210177 0 0,0 -0.32121995705069073,0.318474503829514 l -3.7334728613893144 -3.8308720567929466" fill="#ff1b02" stroke="none" /><line stroke="#e1ed5e" stroke-width="0.3" x1="143.1302829299769" x2="145.66735839644613" y1="173.24464959558577" y2="177.55315839532614" /><path d="M 143.63769802327073 174.10635135553383 a86.0,86.0 0 0,1 -40.68552437913181,11.842963189579606" fill="none" id="id30" stroke="none" /><text fill="#e1ed5e" style="font-size:6.75px; font-family:Arial;" text-anchor="middle"><textPath startOffset="21.407464694133747" xlink:href="#id30">June</textPath></text><path d="M 101.08105385017728 120.97215588758144 l 0.5710290212130096 11.077810459902988 a32.09251814191005,32.09251814191005 0 0,0 -0.5504237291507872,0.023637563257274924 l -0.3807795314613929 -11.085980591586095" fill="#ff6f0a" stroke="none" /><path d="M 100.72087961077811 120.9876233191556 l 0.40830415779345686 11.88733005524249 a32.894340172012186,32.894340172012186 0 0,0 -0.564508678115289,0.014539741098113483 l -0.20418216560742397 -11.892587513690648" fill="#ff7a0b" stroke="none" /><line stroke="#e1ed5e" stroke-width="0.3" x1="101.45913802915013" x2="101.54496967792366" y1="184.9874750549273" y2="189.98673829345242" /><path d="M 101.47630435890484 185.9873277026323 a86.0,86.0 0 0,1 -42.54439059252881,-10.42667462771756" fill="none" id="id31" stroke="none" /><text fill="#e1ed5e" style="font-size:6.75px; font-family:Arial;" text-anchor="middle"><textPath startOffset="22.145653131862474" xlink:href="#id31">July</textPath></text><path d="M 100.0 121.0 l 1.1887066741490825e-15 9.706526608134741 a30.70652660813474,30.70652660813474 0 0,0 -0.5271183613769331,-0.0045246771663609376 l 0.16662543652807982 -9.705096329162815" fill="#ff5b08" stroke="none" /><path d="M 99.27912038922189 120.98762331915562 l -0.3536908428978942 10.297322980411726 a31.30339544884429,31.30339544884429 0 0,0 -0.5368893641142218,-0.023056339387820368 l 0.5304059676129548 -10.289734072598078" fill="#ff6409" stroke="none" /><path d="M 96.05791012581884 120.62667999033965 l -0.9189277434153615 4.808218255452819 a25.895241668159827,25.895241668159827 0 0,0 -0.4359075684628416,-0.08719372199602814 l 1.0013317974091613 -4.79173513679393" fill="#ff1502" stroke="none" /><line stroke="#e1ed5e" stroke-width="0.3" x1="58.13341422392154" x2="55.67067388415222" y1="173.97424548756322" y2="178.32567169271397" /><path d="M 57.64086615596768 174.84453072859336 a86.0,86.0 0 0,1 -31.369924170532247,-30.572349798747897" fill="none" id="id32" stroke="none" /><text fill="#e1ed5e" style="font-size:6.75px; font-family:Arial;" text-anchor="middle"><textPath startOffset="22.145653131862474" xlink:href="#id32">August</textPath></text><line stroke="#e1ed5e" stroke-width="0.3" x1="26.387840678322732" x2="22.057713659400548" y1="142.50000000000003" y2="145.00000000000006" /><path d="M 25.521815274538298 143.00000000000003 a86.0,86.0 0 0,1 -11.493303480769221,-40.785679425670985" fill="none" id="id33" stroke="none" /><text fill="#e1ed5e" style="font-size:6.75px; font-family:Arial;" text-anchor="middle"><textPath startOffset="21.40746469413373" xlink:href="#id33">September</textPath></text><path d="M 81.63589988554817 110.18625677009913 l -43.77936398286971 24.28367521315118 a71.06325591291883,71.06325591291883 0 0,0 -0.5825652369945191,-1.0718544203797866 l 44.18977456947956 -23.52856595929681" fill="#3cffa6" stroke="none" /><path d="M 81.4637452351635 109.86951160357371 l -50.24971997968687 26.755145562449556 a77.92865861852715,77.92865861852715 0 0,0 -0.6185751708244883,-1.1861994522494699 l 50.70160321948631 -25.888599867095582" fill="#45fff0" stroke="none" /><path d="M 81.29705330413844 109.54985784667822 l -56.108840087584646 28.649573540034662 a84.0,84.0 0 0,0 -0.644720347153052,-1.289872575344989 l 56.59238034794944 -27.68216910852592" fill="#4dd2ff" stroke="none" /><path d="M 80.9802524753101 108.90220220490708 l -9.156086351503369 4.285510730406072 a31.10937779967748,31.10937779967748 0 0,0 -0.22223285517356453,-0.4856188951990494 l 9.22830367153199 -4.127702852992334" fill="#ff6109" stroke="none" /><line stroke="#e1ed5e" stroke-width="0.3" x1="15.003131293944662" x2="10.003315487706104" y1="100.72959589197737" y2="100.7725132973878" /><path d="M 14.003168132696942 100.73817937305945 a86.0,86.0 0 0,1 10.791469493833604,-42.45332614584628" fill="none" id="id34" stroke="none" /><text fill="#e1ed5e" style="font-size:6.75px; font-family:Arial;" text-anchor="middle"><textPath startOffset="22.145653131862435" xlink:href="#id34">October</textPath></text><line stroke="#e1ed5e" stroke-width="0.3" x1="26.387840678322718" x2="22.05771365940052" y1="57.49999999999999" y2="54.99999999999999" /><path d="M 25.521815274538284 56.99999999999999 a86.0,86.0 0 0,1 29.574782752854787,-30.34633250058573" fill="none" id="id35" stroke="none" /><text fill="#e1ed5e" style="font-size:6.75px; font-family:Arial;" text-anchor="middle"><textPath startOffset="21.40746469413373" xlink:href="#id35">November</textPath></text><line stroke="#e1ed5e" stroke-width="0.3" x1="56.869717070023135" x2="54.33264160355391" y1="26.7553504044142" y2="22.446841604673864" /><path d="M 56.362301976729285 25.89364864446614 a86.0,86.0 0 0,1 42.16139366436587,-11.88097634709845" fill="none" id="id36" stroke="none" /><text fill="#e1ed5e" style="font-size:6.75px; font-family:Arial;" text-anchor="middle"><textPath startOffset="22.145653131862474" xlink:href="#id36">December</textPath></text></svg>