<?xml version="1.0" encoding="utf-8" ?>
<svg baseProfile="full" height="200mm" version="1.1" viewBox="0,0,200,200" width="200mm" xmlns="http://www.w3.org/2000/svg" xmlns:ev="http://www.w3.org/2001/xml-events" xmlns:xlink="http://www.w3.org/1999/xlink"><defs /><rect fill="#1a1a1a" height="200" width="200" x="0" y="0" /><text alignment-baseline="middle" fill="#e1ed5e" style="dominant-baseline: central; font-size:9.0px; font-family:Arial;" text-anchor="middle" x="100.0" y="100.0">2024</text><line stroke="#e1ed5e" stroke-width="0.3" x1="100.0" x2="100.0" y1="15.0" y2="10.0" /><path d="M 100.0 14.0 a86.0,86.0 0 0,1 42.35913384403234,11.155469271406648" fill="none" id="id25" stroke="none" /><text fill="#e1ed5e" style="font-size:6.75px; font-family:Arial;" text-anchor="middle"><textPath startOffset="22.145653131862478" xlink:href="#id25">January</textPath></text><line stroke="#e1ed5e" stroke-width="0.3" x1="143.13028292997686" x2="145.6673583964461" y1="26.7553504044142" y2="22.446841604673864" /><path d="M 143.63769802327073 25.89364864446614 a86.0,86.0 0 0,1 29.32050498858742,28.57503671076993" fill="none" id="id26" stroke="none" /><text fill="#e1ed5e" style="font-size:6.75px; font-family:Arial;" text-anchor="middle"><textPath startOffset="20.669276256404974" xlink:href="#id26">February</textPath></text><line stroke="#e1ed5e" stroke-width="0.3" x1="172.87174338648825" x2="177.1583165268699" y1="56.24261187166439" y2="53.66864786411523" /><path d="M 173.72905801456457 55.72781907015455 a86.0,86.0 0 0,1 12.242430191666344,42.057860355516425" fill="none" id="id27" stroke="none" /><text fill="#e1ed5e" style="font-size:6.75px; font-family:Arial;" text-anchor="middle"><textPath startOffset="22.145653131862474" xlink:href="#id27">March</textPath></text><line stroke="#e1ed5e" stroke-width="0.3" x1="184.99686870605535" x2="189.99668451229388" y1="99.2704041080226" y2="99.22748670261217" /><path d="M 185.99683186730306 99.26182062694052 a86.0,86.0 0 0,1 -10.086455211305974,41.156179273409016" fill="none" id="id28" stroke="none" /><text fill="#e1ed5e" style="font-size:6.75px; font-family:Arial;" text-anchor="middle"><textPath startOffset="21.40746469413373" xlink:href="#id28">April</textPath></text><path d="M 120.51834098615036 104.47187691870673 l 3.8649967941578316 0.8423580622983234 a24.955725890904134,24.955725890904134 0 0,0 -0.09481885085896843,0.4177893521367158 l -3.849967081741199 -0.9085817483740563" fill="#ff0100" stroke="none" /><path d="M 120.43855184770803 104.8234425847677 l 7.619006206469582 1.79806471924849 a28.82830072932997,28.82830072932997 0 0,0 -0.11780132342456555,0.48066959937242687 l -7.58701735652872 -1.9285901432290165" fill="#ff3b05" stroke="none" /><path d="M 120.35273937422433 105.17358676015961 l 7.606313117022559 1.9334950500910657 a28.848210136261393,28.848210136261393 0 0,0 -0.1261223404983048,0.47890706987861104 l -7.572001295719524 -2.06378262434248" fill="#ff3b05" stroke="none" /><path d="M 120.26092885502905 105.52220625578681 l 7.557688917623753 2.0598817220481593 a28.83337567619484,28.83337567619484 0 0,0 -0.1342557596284984,0.47642632794130213 l -7.521214665920675 -2.18931597389247" fill="#ff3b05" stroke="none" /><path d="M 120.16314734710363 105.8691983318838 l 12.281477112705916 3.5749589953434016 a33.79120838264728,33.79120838264728 0 0,0 -0.16690230880820822,0.5555635039884778 l -12.218298483894078 -3.785260102922603" fill="#ff820c" stroke="none" /><path d="M 119.83427380445688 106.89939002012753 l 3.762318920455532 1.3087298213305403 a24.9834429083969,24.9834429083969 0 0,0 -0.1443803039561857,0.4038574065073196 l -3.739298446455403 -1.3731221842187813" fill="#ff0100" stroke="none" /><path d="M 119.31412917781788 108.2440532568976 l 15.083310304685108 6.438168259998423 a37.39988598409974,37.39988598409974 0 0,0 -0.25710839773964644,0.588314329838424 l -14.970568024928497 -6.696144659612691" fill="#ffb410" stroke="none" /><path d="M 119.16976305983485 108.57439118712176 l 16.43092003078798 7.349341536906022 a38.9996653881188,38.9996653881188 0 0,0 -0.27859788922249473,0.6087866668650378 l -16.30233767671043 -7.630317185985748" fill="#ffca12" stroke="none" /><path d="M 119.0197475246899 108.90220220490707 l 13.038193028679922 6.102532674382113 a35.39567235300314,35.39567235300314 0 0,0 -0.26230003793248463,0.548106196676023 l -12.931513732787526 -6.325451373123239" fill="#ff990e" stroke="none" /><path d="M 118.70294669586154 109.54985784667822 l 17.397526655198863 8.883301072429807 a40.53425124395065,40.53425124395065 0 0,0 -0.32174917202422376,0.6169964615749907 l -17.24246941419969 -9.180643777109301" fill="#ffde14" stroke="none" /><line stroke="#e1ed5e" stroke-width="0.3" x1="174.33088141563837" x2="178.70328620479359" y1="141.23008692659167" y2="143.65538615756765" /><path d="M 175.20536237346943 141.71514677278685 a86.0,86.0 0 0,1 -30.301960400862466,31.631185727798858" fill="none" id="id29" stroke="none" /><text fill="#e1ed5e" style="font-size:6.75px; font-family:Arial;" text-anchor="middle"><textPath startOffset="22.145653131862474" xlink:href="#id29">May</textPath></text><path d="M 117.01052211995028 112.31430620078461 l 6.192495795818336 4.48288940451413 a28.644821881138423,28.644821881138423 0 0,0 -0.29176521665507044,0.3958355515249133 l -6.114628559579438 -4.588531265307921" fill="#ff3805" stroke="none" /><path d="M 116.79662413953412 112.60449989151573 l 10.072603927052707 7.558669769063386 a33.59328545491725,33.59328545491725 0 0,0 -0.35008686171338316,0.4582749399220578 l -9.94136508798502 -7.730465622226321" fill="#ff800b" stroke="none" /><path d="M 116.1254893667686 113.45245675266167 l 3.4955663586027224 2.9161257804720715 a25.552227337790693,25.552227337790693 0 0,0 -0.2838796929718428,0.3344095645154959 l -3.444992102123765 -2.9757021274371245" fill="#ff0a01" stroke="none" /><path d="M 115.41159269507618 114.26474011684316 l 2.876118856603995 2.6620926757112993 a24.919030121265823,24.919030121265823 0 0,0 -0.293266329686727,0.3114386792965013 l -2.8299966931810077 -2.711072814952298" fill="#ff0000" stroke="none" /><path d="M 114.91283532996324 114.78537596483092 l 4.203807789211173 4.167878024005852 a26.91973032760982,26.91973032760982 0 0,0 -0.32817468913288295,0.3253697941143385 l -4.131641179948326 -4.239427828348853" fill="#ff1e03" stroke="none" /><line stroke="#e1ed5e" stroke-width="0.3" x1="143.1302829299769" x2="145.66735839644613" y1="173.24464959558577" y2="177.55315839532614" /><path d="M 143.63769802327073 174.10635135553383 a86.0,86.0 0 0,1 -40.68552437913181,11.842963189579606" fill="none" id="id30" stroke="none" /><text fill="#e1ed5e" style="font-size:6.75px; font-family:Arial;" text-anchor="middle"><textPath startOffset="21.407464694133747" xlink:href="#id30">June</textPath></text><path d="M 101.08105385017728 120.97215588758144 l 0.6319282626608699 12.259239474628336 a33.27551570507061,33.27551570507061 0 0,0 -0.5707135028423314,0.024508893441112768 l -0.421388999217709 -12.268280936495279" fill="#ff7b0b" stroke="none" /><path d="M 100.72087961077811 120.9876233191556 l 0.45184907856965206 13.155092911965264 a34.16285064536717,34.16285064536717 0 0,0 -0.5862779298085726,0.01510043980088058 l -0.2259578346903356 -13.160911069116189" fill="#ff880c" stroke="none" /><line stroke="#e1ed5e" stroke-width="0.3" x1="101.45913802915013" x2="101.54496967792366" y1="184.9874750549273" y2="189.98673829345242" /><path d="M 101.47630435890484 185.9873277026323 a86.0,86.0 0 0,1 -42.54439059252881,-10.42667462771756" fill="none" id="id31" stroke="none" /><text fill="#e1ed5e" style="font-size:6.75px; font-family:Arial;" text-anchor="middle"><textPath startOffset="22.145653131862474" xlink:href="#id31">July</textPath></text><path d="M 100.0 121.0 l 1.3154801516264801e-15 10.741710610294891 a31.74171061029489,31.74171061029489 0 0,0 -0.5448886713148119,-0.004677213904798665 l 0.1843957464659584 -10.740127794584527" fill="#ff6509" stroke="none" /><path d="M 99.27912038922189 120.98762331915562 l -0.3914113496311259 11.395514377266787 a32.40223446378446,32.40223446378446 0 0,0 -0.5557357215631837,-0.023865683067564036 l 0.5869728317951484 -11.387116125773394" fill="#ff6f0a" stroke="none" /><path d="M 96.05791012581884 120.62667999033965 l -1.0169297721047479 5.321006281271217 a26.417310587987433,26.417310587987433 0 0,0 -0.44469581598446617,-0.08895161762957948 l 1.108122073620172 -5.302765266978775" fill="#ff1702" stroke="none" /><line stroke="#e1ed5e" stroke-width="0.3" x1="58.13341422392154" x2="55.67067388415222" y1="173.97424548756322" y2="178.32567169271397" /><path d="M 57.64086615596768 174.84453072859336 a86.0,86.0 0 0,1 -31.369924170532247,-30.572349798747897" fill="none" id="id32" stroke="none" /><text fill="#e1ed5e" style="font-size:6.75px; font-family:Arial;" text-anchor="middle"><textPath startOffset="22.145653131862474" xlink:href="#id32">August</textPath></text><line stroke="#e1ed5e" stroke-width="0.3" x1="26.387840678322732" x2="22.057713659400548" y1="142.50000000000003" y2="145.00000000000006" /><path d="M 25.521815274538298 143.00000000000003 a86.0,86.0 0 0,1 -11.493303480769221,-40.785679425670985" fill="none" id="id33" stroke="none" /><text fill="#e1ed5e" style="font-size:6.75px; font-family:Arial;" text-anchor="middle"><textPath startOffset="21.40746469413373" xlink:href="#id33">September</textPath></text><path d="M 81.63589988554817 110.18625677009913 l -48.44835620320029 26.873486492629834 a76.4024141627577,76.4024141627577 0 0,0 -0.6263348047016352,-1.1523854950917267 l 48.902536357517256 -26.03784616406352" fill="#43ffe0" stroke="none" /><path d="M 81.4637452351635 109.86951160357371 l -55.60876429450949 29.608534810721153 a84.0,84.0 0 0,0 -0.666767724100203,-1.2786150275819885 l 56.108840087584646 -28.649573540034662" fill="#4dd2ff" stroke="none" /><line stroke="#e1ed5e" stroke-width="0.3" x1="15.003131293944662" x2="10.003315487706104" y1="100.72959589197737" y2="100.7725132973878" /><path d="M 14.003168132696942 100.73817937305945 a86.0,86.0 0 0,1 10.791469493833604,-42.45332614584628" fill="none" id="id34" stroke="none" /><text fill="#e1ed5e" style="font-size:6.75px; font-family:Arial;" text-anchor="middle"><textPath startOffset="22.145653131862435" xlink:href="#id34">October</textPath></text><line stroke="#e1ed5e" stroke-width="0.3" x1="26.387840678322718" x2="22.05771365940052" y1="57.49999999999999" y2="54.99999999999999" /><path d="M 25.521815274538284 56.99999999999999 a86.0,86.0 0 0,1 29.574782752854787,-30.34633250058573" fill="none" id="id35" stroke="none" /><text fill="#e1ed5e" style="font-size:6.75px; font-family:Arial;" text-anchor="middle"><textPath startOffset="21.40746469413373" xlink:href="#id35">November</textPath></text><line stroke="#e1ed5e" stroke-width="0.3" x1="56.869717070023135" x2="54.33264160355391" y1="26.7553504044142" y2="22.446841604673864" /><path d="M 56.362301976729285 25.89364864446614 a86.0,86.0 0 0,1 42.16139366436587,-11.88097634709845" fill="none" id="id36" stroke="none" /><text fill="#e1ed5e" style="font-size:6.75px; font-family:Arial;" text-anchor="middle"><textPath startOffset="22.145653131862474" xlink:href="#id36">December</textPath></text></svg>