<?xml version="1.0" encoding="utf-8" ?>
<svg baseProfile="full" height="200mm" version="1.1" viewBox="0,0,200,200" width="200mm" xmlns="http://www.w3.org/2000/svg" xmlns:ev="http://www.w3.org/2001/xml-events" xmlns:xlink="http://www.w3.org/1999/xlink"><defs /><rect fill="#1a1a1a" height="200" width="200" x="0" y="0" /><text alignment-baseline="middle" fill="#e1ed5e" style="dominant-baseline: central; font-size:9.0px; font-family:Arial;" text-anchor="middle" x="100.0" y="100.0">2024</text><line stroke="#e1ed5e" stroke-width="0.3" x1="100.0" x2="100.0" y1="15.0" y2="10.0" /><path d="M 100.0 14.0 a86.0,86.0 0 0,1 42.35913384403234,11.155469271406648" fill="none" id="id25" stroke="none" /><text fill="#e1ed5e" style="font-size:6.75px; font-family:Arial;" text-anchor="middle"><textPath startOffset="22.145653131862478" xlink:href="#id25">January</textPath></text><line stroke="#e1ed5e" stroke-width="0.3" x1="143.13028292997686" x2="145.6673583964461" y1="26.7553504044142" y2="22.446841604673864" /><path d="M 143.63769802327073 25.89364864446614 a86.0,86.0 0 0,1 29.32050498858742,28.57503671076993" fill="none" id="id26" stroke="none" /><text fill="#e1ed5e" style="font-size:6.75px; font-family:Arial;" text-anchor="middle"><textPath startOffset="20.669276256404974" xlink:href="#id26">February</textPath></text><line stroke="#e1ed5e" stroke-width="0.3" x1="172.87174338648825" x2="177.1583165268699" y1="56.24261187166439" y2="53.66864786411523" /><path d="M 173.72905801456457 55.72781907015455 a86.0,86.0 0 0,1 12.242430191666344,42.057860355516425" fill="none" id="id27" stroke="none" /><text fill="#e1ed5e" style="font-size:6.75px; font-family:Arial;" text-anchor="middle"><textPath startOffset="22.145653131862474" xlink:href="#id27">March</textPath></text><line stroke="#e1ed5e" stroke-width="0.3" x1="184.99686870605535" x2="189.99668451229388" y1="99.2704041080226" y2="99.22748670261217" /><path d="M 185.99683186730306 99.26182062694052 a86.0,86.0 0 0,1 -10.086455211305974,41.156179273409016" fill="none" id="id28" stroke="none" /><text fill="#e1ed5e" style="font-size:6.75px; font-family:Arial;" text-anchor="middle"><textPath startOffset="21.40746469413373" xlink:href="#id28">April</textPath></text><path d="M 120.51834098615036 104.47187691870673 l 3.703590019962103 0.807180207103501 a24.790530163803282,24.790530163803282 0 0,0 -0.09419119253802881,0.41502377376392346 l -3.6891879658664095 -0.8706383148064414" fill="red" stroke="none" /><path d="M 120.43855184770803 104.8234425847677 l 7.232482170531348 1.7068460992174517 a28.431158856697095,28.431158856697095 0 0,0 -0.11617847930958569,0.4740478415863967 l -7.202116164705467 -1.830749765411948" fill="red" stroke="none" /><path d="M 120.35273937422433 105.17358676015961 l 7.288557019951137 1.8527226927910623 a28.52034871594808,28.52034871594808 0 0,0 -0.12468895348768275,0.4734642659269328 l -7.255678585658724 -1.9775674630907982" fill="red" stroke="none" /><path d="M 120.26092885502905 105.52220625578681 l 7.301573326518538 1.990076278796988 a28.56791758926836,28.56791758926836 0 0,0 -0.1330197171508475,0.47204004924133286 l -7.26633511729311 -2.1151242519413294" fill="red" stroke="none" /><path d="M 120.16314734710363 105.8691983318838 l 11.822318680428568 3.441304667554159 a33.31299300724809,33.31299300724809 0 0,0 -0.16454029649548207,0.5477011332022832 l -11.761502063929457 -3.6437434043471657" fill="red" stroke="none" /><path d="M 119.83427380445688 106.89939002012753 l 3.560263556073883 1.2384444769679588 a24.769512078670168,24.769512078670168 0 0,0 -0.14314398923628122,0.4003992142004315 l -3.538479396793658 -1.2993786475493119" fill="red" stroke="none" /><path d="M 119.31412917781788 108.2440532568976 l 15.433027709882875 6.587441824794999 a37.78012914399264,37.78012914399264 0 0,0 -0.2597224086388531,0.5942956983346579 l -15.317671419227057 -6.851399592905501" fill="red" stroke="none" /><path d="M 119.16976305983485 108.57439118712176 l 15.840708369318458 7.085347367919961 a38.35310315090319,38.35310315090319 0 0,0 -0.2739791092215227,0.598693799005838 l -15.716744795241878 -7.356230149140488" fill="red" stroke="none" /><path d="M 119.0197475246899 108.90220220490707 l 12.520633386016296 5.860288628497168 a34.82422667624917,34.82422667624917 0 0,0 -0.2580653331585773,0.5392572923984355 l -12.418188794897807 -6.074358422960707" fill="red" stroke="none" /><path d="M 118.70294669586154 109.54985784667822 l 16.585350012680184 8.46859789177208 a39.6223249164984,39.6223249164984 0 0,0 -0.3145105643825286,0.6031154769758466 l -16.437531379322706 -8.752059611852427" fill="red" stroke="none" /><line stroke="#e1ed5e" stroke-width="0.3" x1="174.33088141563837" x2="178.70328620479359" y1="141.23008692659167" y2="143.65538615756765" /><path d="M 175.20536237346943 141.71514677278685 a86.0,86.0 0 0,1 -30.301960400862466,31.631185727798858" fill="none" id="id29" stroke="none" /><text fill="#e1ed5e" style="font-size:6.75px; font-family:Arial;" text-anchor="middle"><textPath startOffset="22.145653131862474" xlink:href="#id29">May</textPath></text><path d="M 117.01052211995028 112.31430620078461 l 5.873239042809086 4.251772135714172 a28.250689839457515,28.250689839457515 0 0,0 -0.28775073819160146,0.3903891404863049 l -5.799386285033656 -4.351967585469355" fill="red" stroke="none" /><path d="M 116.79662413953412 112.60449989151573 l 9.551196435108489 7.167395866578556 a32.94139509648167,32.94139509648167 0 0,0 -0.34329329428836314,0.4493819420862625 l -9.426751163465822 -7.330298721905697" fill="red" stroke="none" /><path d="M 116.1254893667686 113.45245675266167 l 3.3955008940431615 2.8326476109849126 a25.421913478288154,25.421913478288154 0 0,0 -0.2824319343112565,0.33270410845366266 l -3.3463743962247903 -2.8905185018881316" fill="red" stroke="none" /><path d="M 115.41159269507618 114.26474011684316 l 2.797512313281849 2.589335632739873 a24.811920009908388,24.811920009908388 0 0,0 -0.2920057754405436,0.310100014370213 l -2.752650704105046 -2.6369771070545833" fill="red" stroke="none" /><path d="M 114.91283532996324 114.78537596483092 l 4.077077698932283 4.042231090383138 a26.741271179032655,26.741271179032655 0 0,0 -0.3259991184680029,0.32321281795879286 l -4.0070866603343145 -4.111623918570593" fill="red" stroke="none" /><line stroke="#e1ed5e" stroke-width="0.3" x1="143.1302829299769" x2="145.66735839644613" y1="173.24464959558577" y2="177.55315839532614" /><path d="M 143.63769802327073 174.10635135553383 a86.0,86.0 0 0,1 -40.68552437913181,11.842963189579606" fill="none" id="id30" stroke="none" /><text fill="#e1ed5e" style="font-size:6.75px; font-family:Arial;" text-anchor="middle"><textPath startOffset="21.407464694133747" xlink:href="#id30">June</textPath></text><path d="M 101.08105385017728 120.97215588758144 l 0.6142113102425971 11.91553533083573 a32.93135523543007,32.93135523543007 0 0,0 -0.5648107535383292,0.024255403988031866 l -0.4095747961034383 -11.924323303249594" fill="red" stroke="none" /><path d="M 100.72087961077811 120.9876233191556 l 0.4333115980460957 12.615394392687351 a33.62283385868834,33.62283385868834 0 0,0 -0.5770105555182226,0.014861745112800898 l -0.21668772845712927 -12.620973855150197" fill="red" stroke="none" /><line stroke="#e1ed5e" stroke-width="0.3" x1="101.45913802915013" x2="101.54496967792366" y1="184.9874750549273" y2="189.98673829345242" /><path d="M 101.47630435890484 185.9873277026323 a86.0,86.0 0 0,1 -42.54439059252881,-10.42667462771756" fill="none" id="id31" stroke="none" /><text fill="#e1ed5e" style="font-size:6.75px; font-family:Arial;" text-anchor="middle"><textPath startOffset="22.145653131862474" xlink:href="#id31">July</textPath></text><path d="M 100.0 121.0 l 1.2904599033873816e-15 10.53740477896035 a31.53740477896035,31.53740477896035 0 0,0 -0.5413814900433136,-0.004647108971675135 l 0.18088856519446012 -10.535852068183111" fill="red" stroke="none" /><path d="M 99.27912038922189 120.98762331915562 l -0.45132168480959944 13.139738418078496 a34.14748709673097,34.14748709673097 0 0,0 -0.5856688186884643,-0.025151139052313684 l 0.6768162640989025 -13.130054710600355" fill="red" stroke="none" /><line stroke="#e1ed5e" stroke-width="0.3" x1="58.13341422392154" x2="55.67067388415222" y1="173.97424548756322" y2="178.32567169271397" /><path d="M 57.64086615596768 174.84453072859336 a86.0,86.0 0 0,1 -31.369924170532247,-30.572349798747897" fill="none" id="id32" stroke="none" /><text fill="#e1ed5e" style="font-size:6.75px; font-family:Arial;" text-anchor="middle"><textPath startOffset="22.145653131862474" xlink:href="#id32">August</textPath></text><line stroke="#e1ed5e" stroke-width="0.3" x1="26.387840678322732" x2="22.057713659400548" y1="142.50000000000003" y2="145.00000000000006" /><path d="M 25.521815274538298 143.00000000000003 a86.0,86.0 0 0,1 -11.493303480769221,-40.785679425670985" fill="none" id="id33" stroke="none" /><text fill="#e1ed5e" style="font-size:6.75px; font-family:Arial;" text-anchor="middle"><textPath startOffset="21.40746469413373" xlink:href="#id33">September</textPath></text><path d="M 81.63589988554817 110.18625677009913 l -48.94311397429801 27.147920288132678 a76.96818722695895,76.96818722695895 0 0,0 -0.6309729220380461,-1.1609191085886799 l 49.40193224595138 -26.303746346069413" fill="red" stroke="none" /><path d="M 80.5471966667186 107.91128576633889 l -6.8959220635986265 2.8045114697783498 a28.444395589391032,28.444395589391032 0 0,0 -0.18006836378292237,-0.4538899060942802 l 6.943049102347673 -2.6857205464705043" fill="red" stroke="none" /><path d="M 79.34024301695615 103.76489593502545 l -61.97927094913153 11.294687805076363 a84.0,84.0 0 0,0 -0.24634073003106272,-1.4208278683176294 l 62.16402649665483 -10.22906690383814" fill="red" stroke="none" /><line stroke="#e1ed5e" stroke-width="0.3" x1="15.003131293944662" x2="10.003315487706104" y1="100.72959589197737" y2="100.7725132973878" /><path d="M 14.003168132696942 100.73817937305945 a86.0,86.0 0 0,1 10.791469493833604,-42.45332614584628" fill="none" id="id34" stroke="none" /><text fill="#e1ed5e" style="font-size:6.75px; font-family:Arial;" text-anchor="middle"><textPath startOffset="22.145653131862435" xlink:href="#id34">October</textPath></text><line stroke="#e1ed5e" stroke-width="0.3" x1="26.387840678322718" x2="22.05771365940052" y1="57.49999999999999" y2="54.99999999999999" /><path d="M 25.521815274538284 56.99999999999999 a86.0,86.0 0 0,1 29.574782752854787,-30.34633250058573" fill="none" id="id35" stroke="none" /><text fill="#e1ed5e" style="font-size:6.75px; font-family:Arial;" text-anchor="middle"><textPath startOffset="21.40746469413373" xlink:href="#id35">November</textPath></text><path d="M 87.25179093698888 83.31218511350988 l -11.440647164677582 -14.976174388270692 a39.84606608431957,39.84606608431957 0 0,0 0.547118764718009,-0.41056812090609385 l 11.181875411048821 15.170361536440787" fill="red" stroke="none" /><path d="M 87.83215693770416 82.88440491214696 l -5.218667136316231 -7.340708878819237 a30.006691596987356,30.006691596987356 0 0,0 0.4223869206525898,-0.2948588748369087 l 5.091885124489876 7.4292125694612725" fill="red" stroke="none" /><path d="M 89.03521579738668 82.08984904055464 l -4.271666385681629 -6.977446012819111 a29.181191024072696,29.181191024072696 0 0,0 0.42947382238957577,-0.25788669055974633 l 4.151259806734618 7.0497467039147805" fill="red" stroke="none" /><line stroke="#e1ed5e" stroke-width="0.3" x1="56.869717070023135" x2="54.33264160355391" y1="26.7553504044142" y2="22.446841604673864" /><path d="M 56.362301976729285 25.89364864446614 a86.0,86.0 0 0,1 42.16139366436587,-11.88097634709845" fill="none" id="id36" stroke="none" /><text fill="#e1ed5e" style="font-size:6.75px; font-family:Arial;" text-anchor="middle"><textPath startOffset="22.145653131862474" xlink:href="#id36">December</textPath></text><path d="M 89.97174638481275 81.54914285379989 l -5.347556362508662 -9.838901399190274 a32.19822931508349,32.19822931508349 0 0,0 0.4878969847585026,-0.2597776634769454 l 5.177870561963598 9.929249530389795" fill="red" stroke="none" /><path d="M 90.61103034731259 81.2157712731953 l -5.021510410935608 -10.046384598340552 a32.23144738245739,32.23144738245739 0 0,0 0.4970392326789644,-0.24312679565685896 l 4.848310928994591 10.131105144094624" fill="red" stroke="none" /><path d="M 91.26138138417902 80.90454125486306 l -4.712391443371938 -10.297425755019201 a32.32446953705549,32.32446953705549 0 0,0 0.5065499849736573,-0.22657336522302512 l 4.534928055542662 10.376802871152073" fill="red" stroke="none" /></svg>