<?xml version="1.0" encoding="utf-8" ?>
<svg baseProfile="full" height="200mm" version="1.1" viewBox="0,0,200,200" width="200mm" xmlns="http://www.w3.org/2000/svg" xmlns:ev="http://www.w3.org/2001/xml-events" xmlns:xlink="http://www.w3.org/1999/xlink"><defs /><rect fill="#1a1a1a" height="200" width="200" x="0" y="0" /><text alignment-baseline="middle" fill="#e1ed5e" style="dominant-baseline: central; font-size:9.0px; font-family:Arial;" text-anchor="middle" x="100.0" y="100.0">2024</text><line stroke="#e1ed5e" stroke-width="0.3" x1="100.0" x2="100.0" y1="15.0" y2="10.0" /><path d="M 100.0 14.0 a86.0,86.0 0 0,1 42.35913384403234,11.155469271406648" fill="none" id="id25" stroke="none" /><text fill="#e1ed5e" style="font-size:6.75px; font-family:Arial;" text-anchor="middle"><textPath startOffset="22.145653131862478" xlink:href="#id25">January</textPath></text><line stroke="#e1ed5e" stroke-width="0.3" x1="143.13028292997686" x2="145.6673583964461" y1="26.7553504044142" y2="22.446841604673864" /><path d="M 143.63769802327073 25.89364864446614 a86.0,86.0 0 0,1 29.32050498858742,28.57503671076993" fill="none" id="id26" stroke="none" /><text fill="#e1ed5e" style="font-size:6.75px; font-family:Arial;" text-anchor="middle"><textPath startOffset="20.669276256404974" xlink:href="#id26">February</textPath></text><line stroke="#e1ed5e" stroke-width="0.3" x1="172.87174338648825" x2="177.1583165268699" y1="56.24261187166439" y2="53.66864786411523" /><path d="M 173.72905801456457 55.72781907015455 a86.0,86.0 0 0,1 12.242430191666344,42.057860355516425" fill="none" id="id27" stroke="none" /><text fill="#e1ed5e" style="font-size:6.75px; font-family:Arial;" text-anchor="middle"><textPath startOffset="22.145653131862474" xlink:href="#id27">March</textPath></text><line stroke="#e1ed5e" stroke-width="0.3" x1="184.99686870605535" x2="189.99668451229388" y1="99.2704041080226" y2="99.22748670261217" /><path d="M 185.99683186730306 99.26182062694052 a86.0,86.0 0 0,1 -10.086455211305974,41.156179273409016" fill="none" id="id28" stroke="none" /><text fill="#e1ed5e" style="font-size:6.75px; font-family:Arial;" text-anchor="middle"><textPath startOffset="21.40746469413373" xlink:href="#id28">April</textPath></text><path d="M 120.51834098615036 104.47187691870673 l 0.9610740333405021 0.209461612406419 a21.983634822804316,21.983634822804316 0 0,0 -0.08352644201630907,0.36803291518669623 l -0.957336729766529 -0.22592886153213215" fill="#ff0000" stroke="none" /><path d="M 120.43855184770803 104.8234425847677 l 1.8945498314426306 0.4471086016287219 a22.946593220338983,22.946593220338983 0 0,0 -0.09376685344103257,0.3826007600566174 l -1.886595451485302 -0.47956518629343886" fill="#ff0e01" stroke="none" /><path d="M 120.35273937422433 105.17358676015961 l 1.8913935549125072 0.48078484542179695 a22.951543913713405,22.951543913713405 0 0,0 -0.10034253157386003,0.38101693633639167 l -1.8828615425339168 -0.5131822861309918" fill="#ff0e01" stroke="none" /><path d="M 120.26092885502905 105.52220625578681 l 1.8793026120416638 0.5122122837994674 a22.947855161787366,22.947855161787366 0 0,0 -0.10685123244636706,0.3791773287886505 l -1.8702328875207173 -0.5443975364911263" fill="#ff0e01" stroke="none" /><path d="M 120.16314734710363 105.8691983318838 l 3.053924588483195 0.888952939333611 a24.180674884437597,24.180674884437597 0 0,0 -0.11943374208617498,0.3975560836854538 l -3.03821452639339 -0.9412466266097883" fill="#ff2003" stroke="none" /><path d="M 119.83427380445688 106.89939002012753 l 0.9355420488475115 0.32543008828373526 a21.990526964560864,21.990526964560864 0 0,0 -0.12708412443158035,0.35547691405862747 l -0.9298177543719879 -0.3414419587232842" fill="#ff0000" stroke="none" /><path d="M 119.31412917781788 108.2440532568976 l 3.750631279322632 1.6009214668209641 a25.078012326656395,25.078012326656395 0 0,0 -0.17240072792047936,0.39448660410112035 l -3.7225966693851866 -1.6650701406979291" fill="#ff2d04" stroke="none" /><path d="M 119.16976305983485 108.57439118712176 l 4.08572928426594 1.827494740473699 a25.475815100154083,25.475815100154083 0 0,0 -0.18198895407158372,0.3976787084234242 l -4.0537558653393 -1.897362431111812" fill="#ff3204" stroke="none" /><path d="M 119.0197475246899 108.90220220490707 l 3.242090337690902 1.5174619807772884 a24.579642526964562,24.579642526964562 0 0,0 -0.18214772424411094,0.38061868826084677 l -3.215563355486879 -1.5728931711032388" fill="#ff2603" stroke="none" /><path d="M 118.70294669586154 109.54985784667822 l 4.326086670481737 2.2089306785358933 a25.857406779661016,25.857406779661016 0 0,0 -0.20524862225723495,0.3935912962235115 l -4.287529979249553 -2.2828682178639075" fill="#ff3805" stroke="none" /><line stroke="#e1ed5e" stroke-width="0.3" x1="174.33088141563837" x2="178.70328620479359" y1="141.23008692659167" y2="143.65538615756765" /><path d="M 175.20536237346943 141.71514677278685 a86.0,86.0 0 0,1 -30.301960400862466,31.631185727798858" fill="none" id="id29" stroke="none" /><text fill="#e1ed5e" style="font-size:6.75px; font-family:Arial;" text-anchor="middle"><textPath startOffset="22.145653131862474" xlink:href="#id29">May</textPath></text><path d="M 117.01052211995028 112.31430620078461 l 1.5398323020415388 1.1147198381970642 a22.900969183359013,22.900969183359013 0 0,0 -0.23326052656635632,0.31646270326850745 l -1.5204697558913545 -1.140988850734449" fill="#ff0d01" stroke="none" /><path d="M 116.79662413953412 112.60449989151573 l 2.504663935826954 1.8795465115581176 a24.131459167950695,24.131459167950695 0 0,0 -0.25148200583149294,0.32919801831426543 l -2.4720299526411567 -1.9222654431132604" fill="#ff1f03" stroke="none" /><path d="M 116.1254893667686 113.45245675266167 l 0.8692110855433998 0.7251268021238272 a22.131961479198768,22.131961479198768 0 0,0 -0.2458812825403903,0.2896475325728889 l -0.8566352394958949 -0.7399411171462728" fill="#ff0200" stroke="none" /><path d="M 115.41159269507618 114.26474011684316 l 0.7151786397497832 0.6619586719552624 a21.97451001540832,21.97451001540832 0 0,0 -0.25861295032439496,0.27463799128948063 l -0.7037098556891282 -0.6741381231892402" fill="#ff0000" stroke="none" /><path d="M 114.91283532996324 114.78537596483092 l 1.0453231199240176 1.0363887879693183 a22.472006163328196,22.472006163328196 0 0,0 -0.273953102319107,0.2716116368817815 l -1.0273780974749458 -1.0541804350797617" fill="#ff0701" stroke="none" /><line stroke="#e1ed5e" stroke-width="0.3" x1="143.1302829299769" x2="145.66735839644613" y1="173.24464959558577" y2="177.55315839532614" /><path d="M 143.63769802327073 174.10635135553383 a86.0,86.0 0 0,1 -40.68552437913181,11.842963189579606" fill="none" id="id30" stroke="none" /><text fill="#e1ed5e" style="font-size:6.75px; font-family:Arial;" text-anchor="middle"><textPath startOffset="21.407464694133747" xlink:href="#id30">June</textPath></text><path d="M 101.08105385017728 120.97215588758144 l 0.15713592443216315 3.0483949547842775 a24.052442218798152,24.052442218798152 0 0,0 -0.4125271467546724,0.01771569067671028 l -0.1047830170766612 -3.0506432138868185" fill="#ff1e03" stroke="none" /><path d="M 100.72087961077811 120.9876233191556 l 0.11235725138466722 3.271158781549871 a24.27308782742681,24.27308782742681 0 0,0 -0.41655703235219604,0.010729031523874062 l -0.05618690496172735 -3.27260553042379" fill="#ff2103" stroke="none" /><line stroke="#e1ed5e" stroke-width="0.3" x1="101.45913802915013" x2="101.54496967792366" y1="184.9874750549273" y2="189.98673829345242" /><path d="M 101.47630435890484 185.9873277026323 a86.0,86.0 0 0,1 -42.54439059252881,-10.42667462771756" fill="none" id="id31" stroke="none" /><text fill="#e1ed5e" style="font-size:6.75px; font-family:Arial;" text-anchor="middle"><textPath startOffset="22.145653131862474" xlink:href="#id31">July</textPath></text><path d="M 100.0 121.0 l 3.2710863227986605e-16 2.6710446841294306 a23.67104468412943,23.67104468412943 0 0,0 -0.4063449586861758,-0.0034879827586170573 l 0.045852033837323336 -2.6706510995652484" fill="#ff1902" stroke="none" /><path d="M 99.27912038922189 120.98762331915562 l -0.09732874424471616 2.83362019370985 a23.83529121725732,23.83529121725732 0 0,0 -0.4088027564301507,-0.01755574933111316 l 0.14595726127570557 -2.8315318759529085" fill="#ff1b02" stroke="none" /><path d="M 96.05791012581884 120.62667999033965 l -0.25287079129743656 1.3231268330937294 a22.347073959938367,22.347073959938367 0 0,0 -0.37617948490180103,-0.07524643250128092 l 0.2755467617301957 -1.318591003929587" fill="#ff0500" stroke="none" /><line stroke="#e1ed5e" stroke-width="0.3" x1="58.13341422392154" x2="55.67067388415222" y1="173.97424548756322" y2="178.32567169271397" /><path d="M 57.64086615596768 174.84453072859336 a86.0,86.0 0 0,1 -31.369924170532247,-30.572349798747897" fill="none" id="id32" stroke="none" /><text fill="#e1ed5e" style="font-size:6.75px; font-family:Arial;" text-anchor="middle"><textPath startOffset="22.145653131862474" xlink:href="#id32">August</textPath></text><line stroke="#e1ed5e" stroke-width="0.3" x1="26.387840678322732" x2="22.057713659400548" y1="142.50000000000003" y2="145.00000000000006" /><path d="M 25.521815274538298 143.00000000000003 a86.0,86.0 0 0,1 -11.493303480769221,-40.785679425670985" fill="none" id="id33" stroke="none" /><text fill="#e1ed5e" style="font-size:6.75px; font-family:Arial;" text-anchor="middle"><textPath startOffset="21.40746469413373" xlink:href="#id33">September</textPath></text><path d="M 81.63589988554817 110.18625677009913 l -12.047217523002566 6.682388480226648 a34.77642064714946,34.77642064714946 0 0,0 -0.28509154943524984,-0.5245363404304365 l 12.160154422053145 -6.474597306321625" fill="#ffb010" stroke="none" /><path d="M 81.4637452351635 109.86951160357371 l -13.827731880758456 7.362488376408307 a36.66564406779661,36.66564406779661 0 0,0 -0.2910412862827721,-0.5581100416792517 l 13.952081236016179 -7.124032091624553" fill="#ffc912" stroke="none" /><path d="M 81.29705330413844 109.54985784667822 l -15.440046177075375 7.883797592699339 a38.33635747303544,38.33635747303544 0 0,0 -0.29424082974522514,-0.5886787636082182 l 15.573106920032338 -7.617586972927368" fill="#ffde14" stroke="none" /><path d="M 80.9802524753101 108.90220220490708 l -2.5195743816451315 1.1792880313785539 a23.781901386748846,23.781901386748846 0 0,0 -0.16988831729987677,-0.37123663326000195 l 2.539447163800064 -1.135862415903863" fill="#ff1a02" stroke="none" /><path d="M 80.83023694016515 108.57439118712176 l -57.50928917950453 25.7231735613653 a84.0,84.0 0 0,0 -0.577464471932128,-1.3213517208966026 l 57.942387533453626 -24.73215977069285" fill="#4dd2ff" stroke="none" /><path d="M 80.5471966667186 107.91128576633889 l -1.8019170693172213 0.7328239852311175 a22.945234206471493,22.945234206471493 0 0,0 -0.14525570660099651,-0.3661392686850049 l 1.8142314508843422 -0.7017836993325473" fill="#ff0e01" stroke="none" /><path d="M 80.41425534168474 107.57618678355246 l -3.3771376606062073 1.3063493963023454 a24.620995377503853,24.620995377503853 0 0,0 -0.1490969117126237,-0.3954972720964468 l 3.399065256133267 -1.2481838440117536" fill="#ff2603" stroke="none" /><path d="M 79.34024301695615 103.76489593502545 l -16.381340961043726 2.9852260142806832 a37.65112326656394,37.65112326656394 0 0,0 -0.11041672847589158,-0.6368543477451946 l 16.43017250701185 -2.703578633614896" fill="#ffd513" stroke="none" /><path d="M 79.03789590574601 101.26102812881392 l -2.723200185508078 0.16382096085756406 a23.728123266563944,23.728123266563944 0 0,0 -0.020969345381235408,-0.40679969839032787 l 2.7256111203458864 -0.1170494690905054" fill="#ff1902" stroke="none" /><line stroke="#e1ed5e" stroke-width="0.3" x1="15.003131293944662" x2="10.003315487706104" y1="100.72959589197737" y2="100.7725132973878" /><path d="M 14.003168132696942 100.73817937305945 a86.0,86.0 0 0,1 10.791469493833604,-42.45332614584628" fill="none" id="id34" stroke="none" /><text fill="#e1ed5e" style="font-size:6.75px; font-family:Arial;" text-anchor="middle"><textPath startOffset="22.145653131862435" xlink:href="#id34">October</textPath></text><line stroke="#e1ed5e" stroke-width="0.3" x1="26.387840678322718" x2="22.05771365940052" y1="57.49999999999999" y2="54.99999999999999" /><path d="M 25.521815274538284 56.99999999999999 a86.0,86.0 0 0,1 29.574782752854787,-30.34633250058573" fill="none" id="id35" stroke="none" /><text fill="#e1ed5e" style="font-size:6.75px; font-family:Arial;" text-anchor="middle"><textPath startOffset="21.40746469413373" xlink:href="#id35">November</textPath></text><path d="M 87.25179093698888 83.31218511350988 l -2.954559503857866 -3.8676132331841666 a25.867016949152543,25.867016949152543 0 0,0 0.3551750963372879,-0.2665300137731525 l 2.8877314186098255 3.91776227422132" fill="#ff3805" stroke="none" /><line stroke="#e1ed5e" stroke-width="0.3" x1="56.869717070023135" x2="54.33264160355391" y1="26.7553504044142" y2="22.446841604673864" /><path d="M 56.362301976729285 25.89364864446614 a86.0,86.0 0 0,1 42.16139366436587,-11.88097634709845" fill="none" id="id36" stroke="none" /><text fill="#e1ed5e" style="font-size:6.75px; font-family:Arial;" text-anchor="middle"><textPath startOffset="22.145653131862474" xlink:href="#id36">December</textPath></text></svg>