<?xml version="1.0" encoding="utf-8" ?>
<svg baseProfile="full" height="200mm" version="1.1" viewBox="0,0,200,200" width="200mm" xmlns="http://www.w3.org/2000/svg" xmlns:ev="http://www.w3.org/2001/xml-events" xmlns:xlink="http://www.w3.org/1999/xlink"><defs /><rect fill="#1a1a1a" height="200" width="200" x="0" y="0" /><rect fill="#1a1a1a" height="200" width="180" x="10" y="0" /><text alignment-baseline="middle" fill="#e1ed5e" style="dominant-baseline: central; font-size:9.0px; font-family:Arial;" text-anchor="middle" x="100.0" y="100.0">2025</text><line stroke="#e1ed5e" stroke-width="0.3" x1="100.0" x2="100.0" y1="15.0" y2="10.0" /><path d="M 100.0 14.0 a86.0,86.0 0 0,1 42.46469731375804,11.215312516191453" fill="none" id="id37" stroke="none" /><text fill="#e1ed5e" style="font-size:6.75px; font-family:Arial;" text-anchor="middle"><textPath startOffset="22.20632615414155" xlink:href="#id37">January</textPath></text><line stroke="#e1ed5e" stroke-width="0.3" x1="143.23703022742887" x2="145.7803849466894" y1="26.81831364943548" y2="22.513508569990506" /><path d="M 143.74570117128098 25.957352633546492 a86.0,86.0 0 0,1 28.547481713284135,27.462654790039103" fill="none" id="id38" stroke="none" /><text fill="#e1ed5e" style="font-size:6.75px; font-family:Arial;" text-anchor="middle"><textPath startOffset="19.985693538727396" xlink:href="#id38">February</textPath></text><line stroke="#e1ed5e" stroke-width="0.3" x1="172.23445277983987" x2="176.4835382374775" y1="55.19839476539836" y2="52.563006222186495" /><path d="M 173.08426987136738 54.67131705675599 a86.0,86.0 0 0,1 12.851231095245387,41.99856678651699" fill="none" id="id39" stroke="none" /><text fill="#e1ed5e" style="font-size:6.75px; font-family:Arial;" text-anchor="middle"><textPath startOffset="22.20632615414155" xlink:href="#id39">March</textPath></text><path d="M 118.03404312379186 89.2402003453031 l 16.837773477743276 -10.046059444799278 a40.60698666435604,40.60698666435604 0 0,0 0.3529720268805062,0.6033436115023766 l -17.00820517909411 9.754736420943006" fill="red" stroke="none" /><path d="M 118.21658344932153 89.55222093294921 l 51.598086664332406 -29.593112849685475 a80.48205507171198,80.48205507171198 0 0,0 0.6788943366207317,1.2076772717825 l -52.099838642245565 28.700552067968182" fill="red" stroke="none" /><path d="M 118.56541770881063 90.18545643968196 l 48.25579666165767 -25.510259225082116 a75.58383677593706,75.58383677593706 0 0,0 0.5981581275107726,1.1554511124427385 l -48.68776422232856 24.67583539037903" fill="red" stroke="none" /><path d="M 118.73160827565052 90.50648371742162 l 5.961726835574647 -3.021510483933442 a27.68369003369625,27.68369003369625 0 0,0 0.21176702897213479,0.42690940820855783 l -6.0128538775001905 2.9184414872259343" fill="red" stroke="none" /><path d="M 119.04729006885535 91.15688171328212 l 15.564745614119525 -7.22627135255277 a38.16042842393446,38.16042842393446 0 0,0 0.27147998048675454,0.5981701509674759 l -15.686827911569626 6.957279192743231" fill="red" stroke="none" /><path d="M 119.196687751892 91.48605970444005 l 57.59006325567602 -25.541820886679833 a84.0,84.0 0 0,0 0.574837160629277,1.3268034216535889 l -58.02119112614798 24.54671832043964" fill="red" stroke="none" /><path d="M 119.34039704204932 91.81776055985345 l 6.767763869092599 -2.86320204962145 a28.348506907171803,28.348506907171803 0 0,0 0.1862609124926927,0.4510455736841087 l -6.816046468471489 2.746281905484038" fill="red" stroke="none" /><path d="M 119.85752413597 93.16781622104841 l 13.488417354612633 -4.64082760886504 a35.26445525168835,35.26445525168835 0 0,0 0.19254847013442386,0.5756954176700583 l -13.566303118518826 4.407959088272667" fill="red" stroke="none" /><path d="M 119.97218684219823 93.5106431181261 l 6.965410743995268 -2.2631991430763647 a28.32386627361439,28.32386627361439 0 0,0 0.14666976836848655,0.46498324685661524 l -7.003335996131961 2.1429657297933304" fill="red" stroke="none" /><path d="M 120.08093135843002 93.85539295169968 l 13.036942529761223 -3.9892018715072157 a34.63362028574706,34.63362028574706 0 0,0 0.16953009176415798,0.5715711915056753 l -13.103678518637084 3.7642012932550104" fill="red" stroke="none" /><path d="M 120.6074358757038 95.95851677861258 l 26.881994472315544 -5.272035311553892 a48.394086645403505,48.394086645403505 0 0,0 0.15328084001250286,0.818832376489909 l -26.968761036237908 4.8085248576014195" fill="red" stroke="none" /><path d="M 120.96714384426684 98.82574320788733 l 8.226205393564882 -0.4607054555667926 a29.23909610903435,29.23909610903435 0 0,0 0.02381787775902812,0.5027577551121413 l -8.232916879557406 0.31903659383165156" fill="red" stroke="none" /><line stroke="#e1ed5e" stroke-width="0.3" x1="184.98032266829074" x2="189.97916517819016" y1="98.17113171792111" y2="98.06355123074" /><path d="M 185.9800911702706 98.14961562048488 a86.0,86.0 0 0,1 -9.607161424134198,41.387399972396054" fill="none" id="id40" stroke="none" /><text fill="#e1ed5e" style="font-size:6.75px; font-family:Arial;" text-anchor="middle"><textPath startOffset="21.466115282336823" xlink:href="#id40">April</textPath></text><path d="M 120.9904718944345 100.63252640178507 l 8.65672819288063 0.26086165011497353 a29.660657700539552,29.660657700539552 0 0,0 -0.019770759335147124,0.5101954490459102 l -8.65095530069428 -0.40983434617488995" fill="red" stroke="none" /><path d="M 120.95626037817324 101.35467743843564 l 27.482521029477624 1.776555097050752 a48.53988217383177,48.53988217383177 0 0,0 -0.061075749002866914,0.8333300702356143 l -27.44786872181042 -2.249358303783137" fill="red" stroke="none" /><path d="M 120.92983693683757 101.71520430193887 l 62.773757241794954 5.144321897725285 a83.9841936206158,83.9841936206158 0 0,0 -0.13047705824842212,1.4398034652934333 l -62.675905587269455 -6.224106751567289" fill="red" stroke="none" /><path d="M 120.89721153311464 102.0752229133903 l 7.4738033322101085 0.742195096249931 a28.510565212382645,28.510565212382645 0 0,0 -0.05270069164042229,0.4879429524987541 l -7.459920339068634 -0.8707343706334764" fill="red" stroke="none" /><path d="M 119.79798401119884 107.00284435728193 l 7.344333251252976 2.597801000215101 a28.790237540805716,28.790237540805716 0 0,0 -0.16928075505647855,0.46578793472407276 l -7.298528235191271 -2.7238367319453047" fill="red" stroke="none" /><line stroke="#e1ed5e" stroke-width="0.3" x1="174.80103733775053" x2="179.2010983576182" y1="140.37084112569926" y2="142.7455964860345" /><path d="M 175.68104954172406 140.8457921977663 a86.0,86.0 0 0,1 -30.038265399797805,32.042727171017184" fill="none" id="id41" stroke="none" /><text fill="#e1ed5e" style="font-size:6.75px; font-family:Arial;" text-anchor="middle"><textPath startOffset="22.206326154141568" xlink:href="#id41">May</textPath></text><path d="M 115.07121518719521 114.62390073753431 l 4.0817908653402215 3.960643100419994 a26.687504763714873,26.687504763714873 0 0,0 -0.3227400966009736,0.32693401392390226 l -4.0130101436837124 -4.030317608324561" fill="red" stroke="none" /><path d="M 114.81725581225074 114.88116024355365 l 14.75647338692313 14.820115673442084 a41.913855105962035,41.913855105962035 0 0,0 -0.515640307749493,0.5046625690314633 l -14.499183126797842 -15.07192834539612" fill="red" stroke="none" /><line stroke="#e1ed5e" stroke-width="0.3" x1="143.8653032363475" x2="146.44561519142675" y1="172.8068346515853" y2="177.08958963109032" /><path d="M 144.38136562736335 173.6633856474863 a86.0,86.0 0 0,1 -40.68145358897372,12.25698825130547" fill="none" id="id42" stroke="none" /><text fill="#e1ed5e" style="font-size:6.75px; font-family:Arial;" text-anchor="middle"><textPath startOffset="21.466115282336833" xlink:href="#id42">June</textPath></text><path d="M 110.5260780823613 118.17145234162733 l 4.021370910095843 6.942201004879925 a29.022816138284668,29.022816138284668 0 0,0 -0.43444562097567185,0.24668956192420857 l -3.901276522198972 -7.010393732598762" fill="red" stroke="none" /><path d="M 110.21172684928248 118.3499491758327 l 3.5311945361481123 6.345375392884588 a28.261757619801664,28.261757619801664 0 0,0 -0.427125579286783,0.2329029216098198 l -3.4214461449926805 -6.4052189662541785" fill="red" stroke="none" /><path d="M 109.89434966115114 118.52300852407294 l 10.201105200116542 19.097279260165113 a42.65106515727523,42.65106515727523 0 0,0 -0.650548770800498,0.3403363700491121 l -9.870865526789547 -19.27004504915894" fill="red" stroke="none" /><path d="M 109.2508944713604 118.85261126421891 l 2.7784022867937694 5.662170118868192 a27.307114215095893,27.307114215095893 0 0,0 -0.4237639331509771,0.2034324400042774 l -2.68052568564256 -5.7091568353720294" fill="red" stroke="none" /><path d="M 108.2653958097858 119.30500536409082 l 8.97808852585556 20.96960038449937 a43.81074777081399,43.81074777081399 0 0,0 -0.695815941063069,0.2908511197967066 l -8.61580112529503 -21.12103654731605" fill="red" stroke="none" /><path d="M 107.93186726928326 119.44442032107085 l 2.177376683990797 5.3376873318055695 a26.764709470225228,26.764709470225228 0 0,0 -0.4280810389005391,0.17034227996430348 l -2.085174569048392 -5.374376456175942" fill="red" stroke="none" /><path d="M 107.59598834532513 119.57807347666477 l 2.1149483779865386 5.451116149889396 a26.84702265440565,26.84702265440565 0 0,0 -0.43227513539895634,0.1634494678948898 l -2.0208030218273074 -5.486713867890916" fill="red" stroke="none" /><path d="M 106.57524785965236 119.94407469862006 l 2.8163863650574736 8.54267721062777 a29.994963373036086,29.994963373036086 0 0,0 -0.49174407829120825,0.15744092510267302 l -2.668920941675325 -8.58989098239015" fill="red" stroke="none" /><line stroke="#e1ed5e" stroke-width="0.3" x1="102.19456741930631" x2="102.32365962044197" y1="184.97166512339345" y2="189.96999836594603" /><path d="M 102.22038585953345 185.97133177190398 a86.0,86.0 0 0,1 -42.740103519485714,-10.115201625700543" fill="none" id="id43" stroke="none" /><text fill="#e1ed5e" style="font-size:6.75px; font-family:Arial;" text-anchor="middle"><textPath startOffset="22.20632615414155" xlink:href="#id43">July</textPath></text><path d="M 96.58105272829116 120.7198165907248 l -5.910041543427384 35.816573667769525 a57.30090274833119,57.30090274833119 0 0,0 -0.9717988309237234,-0.1689596833431548 l 6.5256893458231575 -35.70953540590536" fill="red" stroke="none" /><path d="M 95.86986931433489 120.58985236759428 l -4.133802884533835 20.608159302247483 a42.01867160681164,42.01867160681164 0 0,0 -0.707931656851645,-0.14835396178383708 l 4.487926002814866 -20.533949359737104" fill="red" stroke="none" /><line stroke="#e1ed5e" stroke-width="0.3" x1="58.666819895761336" x2="56.23545636021788" y1="174.27360380694188" y2="178.64263932499728" /><path d="M 58.180547188652646 175.14741091055294 a86.0,86.0 0 0,1 -31.652253787137756,-30.449443065178592" fill="none" id="id44" stroke="none" /><text fill="#e1ed5e" style="font-size:6.75px; font-family:Arial;" text-anchor="middle"><textPath startOffset="22.20632615414155" xlink:href="#id44">August</textPath></text><line stroke="#e1ed5e" stroke-width="0.3" x1="26.63291911575756" x2="22.317208475507996" y1="142.92168965132927" y2="145.44649492493687" /><path d="M 25.769776987707644 143.4266507060508 a86.0,86.0 0 0,1 -11.730757126820373,-40.83630448921669" fill="none" id="id45" stroke="none" /><text fill="#e1ed5e" style="font-size:6.75px; font-family:Arial;" text-anchor="middle"><textPath startOffset="21.46611528233685" xlink:href="#id45">September</textPath></text><line stroke="#e1ed5e" stroke-width="0.3" x1="15.007084014347285" x2="10.007500721073583" y1="101.09737516637583" y2="101.16192664675087" /><path d="M 14.007167355692545 101.11028546245083 a86.0,86.0 0 0,1 10.666146001902534,-42.60595125391555" fill="none" id="id46" stroke="none" /><text fill="#e1ed5e" style="font-size:6.75px; font-family:Arial;" text-anchor="middle"><textPath startOffset="22.20632615414155" xlink:href="#id46">October</textPath></text><line stroke="#e1ed5e" stroke-width="0.3" x1="26.266209847984243" x2="21.928928074336255" y1="57.711370442889674" y2="55.22380399835377" /><path d="M 25.398753493254645 57.213857153982495 a86.0,86.0 0 0,1 29.58750427330803,-30.492523968695096" fill="none" id="id47" stroke="none" /><text fill="#e1ed5e" style="font-size:6.75px; font-family:Arial;" text-anchor="middle"><textPath startOffset="21.46611528233685" xlink:href="#id47">November</textPath></text><line stroke="#e1ed5e" stroke-width="0.3" x1="56.762969772571076" x2="54.21961505331055" y1="26.818313649435495" y2="22.513508569990535" /><path d="M 56.25429882871897 25.957352633546506 a86.0,86.0 0 0,1 42.265352541879196,-11.944610805530505" fill="none" id="id48" stroke="none" /><text fill="#e1ed5e" style="font-size:6.75px; font-family:Arial;" text-anchor="middle"><textPath startOffset="22.20632615414155" xlink:href="#id48">December</textPath></text></svg>