<?xml version="1.0" encoding="utf-8" ?>
<svg baseProfile="full" height="200mm" version="1.1" viewBox="0,0,200,200" width="200mm" xmlns="http://www.w3.org/2000/svg" xmlns:ev="http://www.w3.org/2001/xml-events" xmlns:xlink="http://www.w3.org/1999/xlink"><defs /><rect fill="#1a1a1a" height="200" width="200" x="0" y="0" /><rect fill="#1a1a1a" height="200" width="180" x="10" y="0" /><text alignment-baseline="middle" fill="#e1ed5e" style="dominant-baseline: central; font-size:9.0px; font-family:Arial;" text-anchor="middle" x="100.0" y="100.0">2026</text><line stroke="#e1ed5e" stroke-width="0.3" x1="100.0" x2="100.0" y1="15.0" y2="10.0" /><path d="M 100.0 14.0 a86.0,86.0 0 0,1 42.46469731375804,11.215312516191453" fill="none" id="id49" stroke="none" /><text fill="#e1ed5e" style="font-size:6.75px; font-family:Arial;" text-anchor="middle"><textPath startOffset="22.20632615414155" xlink:href="#id49">January</textPath></text><path d="M 100.0 79.0 l 0.0 -25.595566424893974 a46.595566424893974,46.595566424893974 0 0,0 0.8020660801545526,0.006903635973188863 l -0.44058560088202425 25.591774165529344" fill="red" stroke="none" /><path d="M 100.36148047927253 79.00311137660856 l 0.5837259895524868 -33.90620045065315 a54.911224764534104,54.911224764534104 0 0,0 0.9449263837490758,0.024404660687857405 l -1.1672790084964304 33.89112899782294" fill="red" stroke="none" /><path d="M 100.72285384407766 79.0124445844662 l 1.5042284581271403 -43.674220426743084 a64.70011708380176,64.70011708380176 0 0,0 1.1127162109666016,0.04791590070494777 l -2.255785501483073 43.64185679951394" fill="red" stroke="none" /><path d="M 101.08401301168833 79.027996857942 l 0.877763914998216 -16.98177732632276 a38.004447378591365,38.004447378591365 0 0,0 0.6530212822416043,0.03939202706858128 l -1.1699472460794322 16.964152029873876" fill="red" stroke="none" /><path d="M 101.44485096284872 79.0497635885617 l 1.7602732556161846 -25.523837269126386 a46.58446463921578,46.58446463921578 0 0,0 0.799499908536975,0.06205658020822891 l -2.199363353515501 25.489755426729694" fill="red" stroke="none" /><path d="M 102.16513564639614 79.11191278185805 l 3.3075999672508174 -31.909980658097737 a53.080945795651495,53.080945795651495 0 0,0 0.9080211018568322,0.10202675075810441 l -3.8563877726173748 31.84831795386903" fill="red" stroke="none" /><path d="M 102.52436894288641 79.15227682838746 l 5.210019053563471 -43.02740106734298 a64.34168364459879,64.34168364459879 0 0,0 1.098359329980775,0.14259856415534608 l -5.949893112052092 42.931344180023494" fill="red" stroke="none" /><path d="M 103.59715602781102 79.31037775812273 l 7.996700925325352 -45.994313298367594 a67.68430230256733,67.68430230256733 0 0,0 1.1461365773113859,0.20944913358302084 l -8.787232623739639 45.849848683433834" fill="red" stroke="none" /><path d="M 103.95276090670814 79.375362276772 l 8.862120872386452 -46.24059910687745 a68.08216426758378,68.08216426758378 0 0,0 1.1490764729813665,0.2304939305298502 l -9.656763754834945 46.08120122027039" fill="red" stroke="none" /><path d="M 104.307194497241 79.44645832069477 l 5.526469722613075 -26.371812523420044 a47.94465370654025,47.94465370654025 0 0,0 0.8062858711621055,0.17622286212441413 l -5.979598317928708 26.27277616319976" fill="red" stroke="none" /><path d="M 105.01212808612495 79.60689891045804 l 9.141829932068044 -37.19582954477122 a59.30277783699938,59.30277783699938 0 0,0 0.98920171202798,0.2521695418908244 l -9.78074053278105 37.032957006711534" fill="red" stroke="none" /><path d="M 105.36241919743992 79.69619591428918 l 4.643024828397091 -17.579950953083195 a39.18274883151397,39.18274883151397 0 0,0 0.6506241535031475,0.17784015862219513 l -4.944946871123949 17.497424253634705" fill="red" stroke="none" /><path d="M 105.71112130821622 79.79150937346287 l 7.982696556768187 -28.246335498050456 a50.35266450232183,50.35266450232183 0 0,0 0.832041292666477,0.24289566940386098 l -8.467728067158092 28.10474149972789" fill="red" stroke="none" /><path d="M 106.0581310904928 79.89281104454417 l 8.9739351606019 -29.784863888370168 a52.10738865792859,52.10738865792859 0 0,0 0.8565825121221221,0.266144356146357 l -9.485303045434742 29.62597939734129" fill="red" stroke="none" /><path d="M 107.08798089147638 80.2323363322302 l 18.032025129219665 -50.28949900695077 a74.42459771145602,74.42459771145602 0 0,0 1.202197092428178,0.4427793348999143 l -18.89500454742042 49.97165640424453" fill="red" stroke="none" /><path d="M 107.4271985657038 80.35727306442388 l 12.05128613697666 -31.872060604952306 a55.07435611660239,55.07435611660239 0 0,0 0.8838564375285032,0.3429225662274311 l -12.59812573950483 31.659895334834328" fill="red" stroke="none" /><path d="M 107.76421540070413 80.48803036053334 l 9.456983274220697 -23.766003517986345 a46.57845687030063,46.57845687030063 0 0,0 0.7424076592462483,0.30284672495272474 l -9.864674803055333 23.59969590685004" fill="red" stroke="none" /><path d="M 108.76106565485865 80.91482961587045 l 26.283196964575957 -57.255511152388685 a84.0,84.0 0 0,0 1.308887154801608,0.6145400694399883 l -27.264862330677165 56.79460610030869" fill="red" stroke="none" /><path d="M 109.08828744355905 81.06846463323043 l 21.353483887807396 -44.48079332176802 a70.34077673365806,70.34077673365806 0 0,0 1.0870287214702927,0.5334002727115673 l -22.11598387628812 44.106637888921625" fill="red" stroke="none" /><path d="M 109.41281617654863 81.2277094730956 l 11.669642347854138 -23.273153580197615 a47.03498089291205,47.03498089291205 0 0,0 0.7206196104170344,0.3691293534731249 l -12.068522445859928 23.068831701411987" fill="red" stroke="none" /><line stroke="#e1ed5e" stroke-width="0.3" x1="143.23703022742887" x2="145.7803849466894" y1="26.81831364943548" y2="22.513508569990506" /><path d="M 143.74570117128098 25.957352633546492 a86.0,86.0 0 0,1 28.547481713284135,27.462654790039103" fill="none" id="id50" stroke="none" /><text fill="#e1ed5e" style="font-size:6.75px; font-family:Arial;" text-anchor="middle"><textPath startOffset="19.985693538727396" xlink:href="#id50">February</textPath></text><line stroke="#e1ed5e" stroke-width="0.3" x1="172.23445277983987" x2="176.4835382374775" y1="55.19839476539836" y2="52.563006222186495" /><path d="M 173.08426987136738 54.67131705675599 a86.0,86.0 0 0,1 12.851231095245387,41.99856678651699" fill="none" id="id51" stroke="none" /><text fill="#e1ed5e" style="font-size:6.75px; font-family:Arial;" text-anchor="middle"><textPath startOffset="22.20632615414155" xlink:href="#id51">March</textPath></text><line stroke="#e1ed5e" stroke-width="0.3" x1="184.98032266829074" x2="189.97916517819016" y1="98.17113171792111" y2="98.06355123074" /><path d="M 185.9800911702706 98.14961562048488 a86.0,86.0 0 0,1 -9.607161424134198,41.387399972396054" fill="none" id="id52" stroke="none" /><text fill="#e1ed5e" style="font-size:6.75px; font-family:Arial;" text-anchor="middle"><textPath startOffset="21.466115282336823" xlink:href="#id52">April</textPath></text><line stroke="#e1ed5e" stroke-width="0.3" x1="174.80103733775053" x2="179.2010983576182" y1="140.37084112569926" y2="142.7455964860345" /><path d="M 175.68104954172406 140.8457921977663 a86.0,86.0 0 0,1 -30.038265399797805,32.042727171017184" fill="none" id="id53" stroke="none" /><text fill="#e1ed5e" style="font-size:6.75px; font-family:Arial;" text-anchor="middle"><textPath startOffset="22.206326154141568" xlink:href="#id53">May</textPath></text><line stroke="#e1ed5e" stroke-width="0.3" x1="143.8653032363475" x2="146.44561519142675" y1="172.8068346515853" y2="177.08958963109032" /><path d="M 144.38136562736335 173.6633856474863 a86.0,86.0 0 0,1 -40.68145358897372,12.25698825130547" fill="none" id="id54" stroke="none" /><text fill="#e1ed5e" style="font-size:6.75px; font-family:Arial;" text-anchor="middle"><textPath startOffset="21.466115282336833" xlink:href="#id54">June</textPath></text><line stroke="#e1ed5e" stroke-width="0.3" x1="102.19456741930631" x2="102.32365962044197" y1="184.97166512339345" y2="189.96999836594603" /><path d="M 102.22038585953345 185.97133177190398 a86.0,86.0 0 0,1 -42.740103519485714,-10.115201625700543" fill="none" id="id55" stroke="none" /><text fill="#e1ed5e" style="font-size:6.75px; font-family:Arial;" text-anchor="middle"><textPath startOffset="22.20632615414155" xlink:href="#id55">July</textPath></text><line stroke="#e1ed5e" stroke-width="0.3" x1="58.666819895761336" x2="56.23545636021788" y1="174.27360380694188" y2="178.64263932499728" /><path d="M 58.180547188652646 175.14741091055294 a86.0,86.0 0 0,1 -31.652253787137756,-30.449443065178592" fill="none" id="id56" stroke="none" /><text fill="#e1ed5e" style="font-size:6.75px; font-family:Arial;" text-anchor="middle"><textPath startOffset="22.20632615414155" xlink:href="#id56">August</textPath></text><line stroke="#e1ed5e" stroke-width="0.3" x1="26.63291911575756" x2="22.317208475507996" y1="142.92168965132927" y2="145.44649492493687" /><path d="M 25.769776987707644 143.4266507060508 a86.0,86.0 0 0,1 -11.730757126820373,-40.83630448921669" fill="none" id="id57" stroke="none" /><text fill="#e1ed5e" style="font-size:6.75px; font-family:Arial;" text-anchor="middle"><textPath startOffset="21.46611528233685" xlink:href="#id57">September</textPath></text><line stroke="#e1ed5e" stroke-width="0.3" x1="15.007084014347285" x2="10.007500721073583" y1="101.09737516637583" y2="101.16192664675087" /><path d="M 14.007167355692545 101.11028546245083 a86.0,86.0 0 0,1 10.666146001902534,-42.60595125391555" fill="none" id="id58" stroke="none" /><text fill="#e1ed5e" style="font-size:6.75px; font-family:Arial;" text-anchor="middle"><textPath startOffset="22.20632615414155" xlink:href="#id58">October</textPath></text><line stroke="#e1ed5e" stroke-width="0.3" x1="26.266209847984243" x2="21.928928074336255" y1="57.711370442889674" y2="55.22380399835377" /><path d="M 25.398753493254645 57.213857153982495 a86.0,86.0 0 0,1 29.58750427330803,-30.492523968695096" fill="none" id="id59" stroke="none" /><text fill="#e1ed5e" style="font-size:6.75px; font-family:Arial;" text-anchor="middle"><textPath startOffset="21.46611528233685" xlink:href="#id59">November</textPath></text><line stroke="#e1ed5e" stroke-width="0.3" x1="56.762969772571076" x2="54.21961505331055" y1="26.818313649435495" y2="22.513508569990535" /><path d="M 56.25429882871897 25.957352633546506 a86.0,86.0 0 0,1 42.265352541879196,-11.944610805530505" fill="none" id="id60" stroke="none" /><text fill="#e1ed5e" style="font-size:6.75px; font-family:Arial;" text-anchor="middle"><textPath startOffset="22.20632615414155" xlink:href="#id60">December</textPath></text></svg>