<?xml version="1.0" encoding="utf-8" ?>
<svg baseProfile="full" height="200mm" version="1.1" viewBox="0,0,200,200" width="200mm" xmlns="http://www.w3.org/2000/svg" xmlns:ev="http://www.w3.org/2001/xml-events" xmlns:xlink="http://www.w3.org/1999/xlink"><defs /><rect fill="#1a1a1a" height="200" width="200" x="0" y="0" /><text alignment-baseline="middle" fill="#e1ed5e" style="dominant-baseline: central; font-size:9.0px; font-family:Arial;" text-anchor="middle" x="100.0" y="100.0">2024</text><line stroke="#e1ed5e" stroke-width="0.3" x1="100.0" x2="100.0" y1="15.0" y2="10.0" /><path d="M 100.0 14.0 a86.0,86.0 0 0,1 42.35913384403234,11.155469271406648" fill="none" id="id25" stroke="none" /><text fill="#e1ed5e" style="font-size:6.75px; font-family:Arial;" text-anchor="middle"><textPath startOffset="22.145653131862478" xlink:href="#id25">January</textPath></text><line stroke="#e1ed5e" stroke-width="0.3" x1="143.13028292997686" x2="145.6673583964461" y1="26.7553504044142" y2="22.446841604673864" /><path d="M 143.63769802327073 25.89364864446614 a86.0,86.0 0 0,1 29.32050498858742,28.57503671076993" fill="none" id="id26" stroke="none" /><text fill="#e1ed5e" style="font-size:6.75px; font-family:Arial;" text-anchor="middle"><textPath startOffset="20.669276256404974" xlink:href="#id26">February</textPath></text><line stroke="#e1ed5e" stroke-width="0.3" x1="172.87174338648825" x2="177.1583165268699" y1="56.24261187166439" y2="53.66864786411523" /><path d="M 173.72905801456457 55.72781907015455 a86.0,86.0 0 0,1 12.242430191666344,42.057860355516425" fill="none" id="id27" stroke="none" /><text fill="#e1ed5e" style="font-size:6.75px; font-family:Arial;" text-anchor="middle"><textPath startOffset="22.145653131862474" xlink:href="#id27">March</textPath></text><line stroke="#e1ed5e" stroke-width="0.3" x1="184.99686870605535" x2="189.99668451229388" y1="99.2704041080226" y2="99.22748670261217" /><path d="M 185.99683186730306 99.26182062694052 a86.0,86.0 0 0,1 -10.086455211305974,41.156179273409016" fill="none" id="id28" stroke="none" /><text fill="#e1ed5e" style="font-size:6.75px; font-family:Arial;" text-anchor="middle"><textPath startOffset="21.40746469413373" xlink:href="#id28">April</textPath></text><path d="M 120.51834098615036 104.47187691870673 l 4.3950214392574996 0.9578744667857422 a25.49819263100783,25.49819263100783 0 0,0 -0.0968799438983254,0.42687090836531033 l -4.37793063380151 -1.0331797090900694" fill="#ff0100" stroke="none" /><path d="M 120.43855184770803 104.8234425847677 l 8.663835290597223 2.044641538180515 a29.901831326319943,29.901831326319943 0 0,0 -0.12218810037162017,0.49856914630771393 l -8.627459663709308 -2.193066509096329" fill="#ff4306" stroke="none" /><path d="M 120.35273937422433 105.17358676015961 l 8.649401539879916 2.1986440482158582 a29.92447100106399,29.92447100106399 0 0,0 -0.1308276771072132,0.49677399939531447 l -8.610384381967972 -2.3467985519839756" fill="#ff4406" stroke="none" /><path d="M 120.26092885502905 105.52220625578681 l 8.594109282161225 2.3423627011594927 a29.907602223803718,29.907602223803718 0 0,0 -0.13925764018462763,0.4941762374628882 l -8.552633149902018 -2.4895468625253896" fill="#ff4306" stroke="none" /><path d="M 120.16314734710363 105.8691983318838 l 13.965692105536208 4.06520943374399 a35.54532515026177,35.54532515026177 0 0,0 -0.17556628244060407,0.5844030544060145 l -13.893849503091975 -4.304350091740728" fill="#ff950d" stroke="none" /><path d="M 119.83427380445688 106.89939002012753 l 4.278262880248833 1.488201913035914 a25.529710609573065,25.529710609573065 0 0,0 -0.14753720659072025,0.41268782503148443 l -4.252085503614169 -1.5614246944483199" fill="#ff0100" stroke="none" /><path d="M 119.31412917781788 108.2440532568976 l 17.151753466980374 7.321063648748973 a39.648877176417535,39.648877176417535 0 0,0 -0.2725692609688348,0.623691810579501 l -17.023550323994574 -7.614417529104319" fill="#ffcd13" stroke="none" /><path d="M 119.16976305983485 108.57439118712176 l 18.684167063526342 8.357190274504687 a41.46804162938014,41.46804162938014 0 0,0 -0.296230974116394,0.6473181396233693 l -18.537951624554893 -8.676697396342744" fill="#ffe515" stroke="none" /><path d="M 119.0197475246899 108.90220220490707 l 14.826179927715062 6.9394008238816465 a37.369816585517086,37.369816585517086 0 0,0 -0.27692945652095985,0.578676054939538 l -14.70487121323419 -7.192889380886288" fill="#ffae10" stroke="none" /><path d="M 118.70294669586154 109.54985784667822 l 19.783328864652706 10.10150868009072 a43.213072245435775,43.213072245435775 0 0,0 -0.3430128789579388,0.657772423345242 l -19.60700791671982 -10.439627346540465" fill="#fffc17" stroke="none" /><line stroke="#e1ed5e" stroke-width="0.3" x1="174.33088141563837" x2="178.70328620479359" y1="141.23008692659167" y2="143.65538615756765" /><path d="M 175.20536237346943 141.71514677278685 a86.0,86.0 0 0,1 -30.301960400862466,31.631185727798858" fill="none" id="id29" stroke="none" /><text fill="#e1ed5e" style="font-size:6.75px; font-family:Arial;" text-anchor="middle"><textPath startOffset="22.145653131862474" xlink:href="#id29">May</textPath></text><path d="M 117.01052211995028 112.31430620078461 l 7.041700998632733 5.097648482513931 a29.693191186521886,29.693191186521886 0 0,0 -0.3024435060432527,0.4103227019048395 l -6.953155473005651 -5.217777493687649" fill="#ff4006" stroke="none" /><path d="M 116.79662413953412 112.60449989151573 l 11.453906061568167 8.595224642234077 a35.32026014839451,35.32026014839451 0 0,0 -0.36808424251465244,0.4818340891146045 l -11.30466984169921 -8.79057964458956" fill="#ff920d" stroke="none" /><path d="M 116.1254893667686 113.45245675266167 l 3.974929322484416 3.316027414076786 a26.176495042947032,26.176495042947032 0 0,0 -0.2908151715166005,0.34257954080220776 l -3.917419587460701 -3.38377373732855" fill="#ff0b01" stroke="none" /><path d="M 115.41159269507618 114.26474011684316 l 3.2705341582001664 3.0271575905901633 a25.456464603048218,25.456464603048218 0 0,0 -0.29959127239727434,0.31815554927098194 l -3.218087052066632 -3.0828545998056422" fill="#ff0000" stroke="none" /><path d="M 114.91283532996324 114.78537596483092 l 4.780295131946309 4.7394381541026105 a27.731529957229125,27.731529957229125 0 0,0 -0.3380712255337422,0.3351817452422598 l -4.698231986282602 -4.820799909573532" fill="#ff2303" stroke="none" /><line stroke="#e1ed5e" stroke-width="0.3" x1="143.1302829299769" x2="145.66735839644613" y1="173.24464959558577" y2="177.55315839532614" /><path d="M 143.63769802327073 174.10635135553383 a86.0,86.0 0 0,1 -40.68552437913181,11.842963189579606" fill="none" id="id30" stroke="none" /><text fill="#e1ed5e" style="font-size:6.75px; font-family:Arial;" text-anchor="middle"><textPath startOffset="21.407464694133747" xlink:href="#id30">June</textPath></text><path d="M 101.08105385017728 120.97215588758144 l 0.7185874686016239 13.940404918685982 a34.958913182871925,34.958913182871925 0 0,0 -0.5995857126601204,0.02574879036016137 l -0.479175995340674 -13.950686277471975" fill="#ff8d0c" stroke="none" /><path d="M 100.72087961077811 120.9876233191556 l 0.513813204353533 14.959110825371281 a35.967932412150596,35.967932412150596 0 0,0 -0.6172554267496395,0.015898310237335997 l -0.25694446353314965 -14.965726852958664" fill="#ff9b0e" stroke="none" /><line stroke="#e1ed5e" stroke-width="0.3" x1="101.45913802915013" x2="101.54496967792366" y1="184.9874750549273" y2="189.98673829345242" /><path d="M 101.47630435890484 185.9873277026323 a86.0,86.0 0 0,1 -42.54439059252881,-10.42667462771756" fill="none" id="id31" stroke="none" /><text fill="#e1ed5e" style="font-size:6.75px; font-family:Arial;" text-anchor="middle"><textPath startOffset="22.145653131862474" xlink:href="#id31">July</textPath></text><path d="M 100.0 121.0 l 1.4958779469248864e-15 12.2147703971984 a33.2147703971984,33.2147703971984 0 0,0 -0.5701757013651962,-0.004894272645031469 l 0.20968277651634265 -12.212970522747803" fill="#ff740a" stroke="none" /><path d="M 99.27912038922189 120.98762331915562 l -0.4450873738880682 12.958233257827999 a33.9658749004714,33.9658749004714 0 0,0 -0.5825539598954451,-0.025017373613328925 l 0.667467094384352 -12.948683315788841" fill="#ff7e0b" stroke="none" /><path d="M 96.05791012581884 120.62667999033965 l -1.156385991671561 6.050700150634024 a27.160211106335304,27.160211106335304 0 0,0 -0.457201432371935,-0.09145309114728666 l 1.2600839095744543 -6.029957662823876" fill="#ff1a02" stroke="none" /><line stroke="#e1ed5e" stroke-width="0.3" x1="58.13341422392154" x2="55.67067388415222" y1="173.97424548756322" y2="178.32567169271397" /><path d="M 57.64086615596768 174.84453072859336 a86.0,86.0 0 0,1 -31.369924170532247,-30.572349798747897" fill="none" id="id32" stroke="none" /><text fill="#e1ed5e" style="font-size:6.75px; font-family:Arial;" text-anchor="middle"><textPath startOffset="22.145653131862474" xlink:href="#id32">August</textPath></text><line stroke="#e1ed5e" stroke-width="0.3" x1="26.387840678322732" x2="22.057713659400548" y1="142.50000000000003" y2="145.00000000000006" /><path d="M 25.521815274538298 143.00000000000003 a86.0,86.0 0 0,1 -11.493303480769221,-40.785679425670985" fill="none" id="id33" stroke="none" /><text fill="#e1ed5e" style="font-size:6.75px; font-family:Arial;" text-anchor="middle"><textPath startOffset="21.40746469413373" xlink:href="#id33">September</textPath></text><path d="M 81.63589988554817 110.18625677009913 l -55.09230034335548 30.558770310297394 a84.0,84.0 0 0,0 -0.6886186015386815,-1.266980666101652 l 55.60876429450949 -29.608534810721153" fill="#4dd2ff" stroke="none" /><line stroke="#e1ed5e" stroke-width="0.3" x1="15.003131293944662" x2="10.003315487706104" y1="100.72959589197737" y2="100.7725132973878" /><path d="M 14.003168132696942 100.73817937305945 a86.0,86.0 0 0,1 10.791469493833604,-42.45332614584628" fill="none" id="id34" stroke="none" /><text fill="#e1ed5e" style="font-size:6.75px; font-family:Arial;" text-anchor="middle"><textPath startOffset="22.145653131862435" xlink:href="#id34">October</textPath></text><line stroke="#e1ed5e" stroke-width="0.3" x1="26.387840678322718" x2="22.05771365940052" y1="57.49999999999999" y2="54.99999999999999" /><path d="M 25.521815274538284 56.99999999999999 a86.0,86.0 0 0,1 29.574782752854787,-30.34633250058573" fill="none" id="id35" stroke="none" /><text fill="#e1ed5e" style="font-size:6.75px; font-family:Arial;" text-anchor="middle"><textPath startOffset="21.40746469413373" xlink:href="#id35">November</textPath></text><line stroke="#e1ed5e" stroke-width="0.3" x1="56.869717070023135" x2="54.33264160355391" y1="26.7553504044142" y2="22.446841604673864" /><path d="M 56.362301976729285 25.89364864446614 a86.0,86.0 0 0,1 42.16139366436587,-11.88097634709845" fill="none" id="id36" stroke="none" /><text fill="#e1ed5e" style="font-size:6.75px; font-family:Arial;" text-anchor="middle"><textPath startOffset="22.145653131862474" xlink:href="#id36">December</textPath></text></svg>