<?xml version="1.0" encoding="utf-8" ?>
<svg baseProfile="full" height="200mm" version="1.1" viewBox="0,0,200,200" width="200mm" xmlns="http://www.w3.org/2000/svg" xmlns:ev="http://www.w3.org/2001/xml-events" xmlns:xlink="http://www.w3.org/1999/xlink"><defs /><rect fill="#1a1a1a" height="200" width="200" x="0" y="0" /><rect fill="#1a1a1a" height="200" width="180" x="10" y="0" /><text alignment-baseline="middle" fill="#e1ed5e" style="dominant-baseline: central; font-size:9.0px; font-family:Arial;" text-anchor="middle" x="100.0" y="100.0">2026</text><line stroke="#e1ed5e" stroke-width="0.3" x1="100.0" x2="100.0" y1="15.0" y2="10.0" /><path d="M 100.0 14.0 a86.0,86.0 0 0,1 42.46469731375804,11.215312516191453" fill="none" id="id49" stroke="none" /><text fill="#e1ed5e" style="font-size:6.75px; font-family:Arial;" text-anchor="middle"><textPath startOffset="22.20632615414155" xlink:href="#id49">January</textPath></text><path d="M 100.0 79.0 l 0.0 -22.38738117678234 a43.38738117678234,43.38738117678234 0 0,0 0.7468424448649122,0.006428308709527045 l -0.38536196559238384 22.384064244681372" fill="red" stroke="none" /><path d="M 100.36148047927253 79.00311137660856 l 0.5105609312945738 -29.656348335659306 a50.660742894784796,50.660742894784796 0 0,0 0.871783005876956,0.022515583031404923 l -1.0209705723663975 29.64316596048554" fill="red" stroke="none" /><path d="M 100.72285384407766 79.0124445844662 l 1.3156862915252074 -38.200030585818965 a59.22268131849481,59.22268131849481 0 0,0 1.0185149661266415,0.0438593969445568 l -1.9730420900411803 38.171723462350215" fill="red" stroke="none" /><path d="M 101.08401301168833 79.027996857942 l 0.7677437186612776 -14.853256839585733 a35.87308539477415,35.87308539477415 0 0,0 0.6163986016977118,0.03718284696597128 l -1.0233043691986012 14.837840723239458" fill="red" stroke="none" /><path d="M 101.44485096284872 79.0497635885617 l 1.5396380644441394 -22.32464265695432 a43.37767090494875,43.37767090494875 0 0,0 0.7444637217502506,0.057784712878143435 l -1.923691975556731 22.294832681887716" fill="red" stroke="none" /><path d="M 102.16513564639614 79.11191278185805 l 2.893020612161099 -27.910337613852793 a49.05987373424255,49.05987373424255 0 0,0 0.8392352460451712,0.09429785838740071 l -3.3730225617159957 27.85640380199479" fill="red" stroke="none" /><path d="M 102.52436894288641 79.15227682838746 l 4.556987743665741 -37.634284498741614 a58.90917444403324,58.90917444403324 0 0,0 1.0056224473308528,0.13055865522103297 l -5.20412491950444 37.55026752035644" fill="red" stroke="none" /><path d="M 103.59715602781102 79.31037775812273 l 6.9943828864779 -40.22931966738727 a61.8328244536609,61.8328244536609 0 0,0 1.0470501929385558,0.19134173018311607 l -7.685828200519357 40.102962455853415" fill="red" stroke="none" /><path d="M 103.95276090670814 79.375362276772 l 7.751329847964333 -40.44473565709475 a62.18081782558737,62.18081782558737 0 0,0 1.0494747868663574,0.21051476929919366 l -8.446371044297816 40.30531693171835" fill="red" stroke="none" /><path d="M 104.307194497241 79.44645832069477 l 4.833774028995649 -23.06633146864975 a44.5673719108647,44.5673719108647 0 0,0 0.7494900788417883,0.16380950175523828 l -5.230106831990965 22.97970846879864" fill="red" stroke="none" /><path d="M 105.01212808612495 79.60689891045804 l 7.995979770288414 -32.53365056987073 a54.5018523650456,54.5018523650456 0 0,0 0.9091197349369771,0.2317548628307274 l -8.554808393910417 32.39119271087113" fill="red" stroke="none" /><path d="M 105.36241919743992 79.69619591428918 l 4.061061393253409 -15.376454520382504 a36.9036968424692,36.9036968424692 0 0,0 0.6127808087817757,0.16749614296921547 l -4.325140091258896 15.304271836586993" fill="red" stroke="none" /><path d="M 105.71112130821622 79.79150937346287 l 6.982133845693851 -24.705899027384127 a46.673559157048786,46.673559157048786 0 0,0 0.7712467429123925,0.22514807323432337 l -7.4063708063296705 24.5820526252311" fill="red" stroke="none" /><path d="M 106.0581310904928 79.89281104454417 l 7.84912917186815 -26.051586048081948 a48.20834365368994,48.20834365368994 0 0,0 0.7924869231734373,0.24622954465866084 l -8.296401467752306 25.912616368540764" fill="red" stroke="none" /><path d="M 107.08798089147638 80.2323363322302 l 15.771865066620842 -43.98614059828089 a67.72828150500968,67.72828150500968 0 0,0 1.094030006264267,0.4029404842061545 l -16.526677398657686 43.70813684626842" fill="red" stroke="none" /><path d="M 107.4271985657038 80.35727306442388 l 10.54076053408093 -27.877170514913935 a50.80342712767149,50.80342712767149 0 0,0 0.8153147722732335,0.3163294649670461 l -11.01905847135383 27.69159834605634" fill="red" stroke="none" /><path d="M 107.76421540070413 80.48803036053334 l 8.27163133754759 -20.78713832597336 a43.372416158462855,43.372416158462855 0 0,0 0.691307014436323,0.28200148887397736 l -8.6282222215723 20.641675950915804" fill="red" stroke="none" /><path d="M 108.76106565485865 80.91482961587045 l 22.988823111885793 -50.079022724551706 a76.10348904666328,76.10348904666328 0 0,0 1.1858438005805054,0.5567695648019267 l -23.847445123765898 49.675888177109776" fill="red" stroke="none" /><path d="M 109.08828744355905 81.06846463323043 l 18.6770073892047 -38.905506469729175 a64.1563325443966,64.1563325443966 0 0,0 0.9914558720900205,0.4865030905889955 l -19.34393452830515 38.578248219005346" fill="red" stroke="none" /><path d="M 109.41281617654863 81.2277094730956 l 24.050163177602652 -47.964035621373114 a74.6559322159038,74.6559322159038 0 0,0 1.1437982490358003,0.5858978885211543 l -24.87222191422721 47.54294520753946" fill="red" stroke="none" /><path d="M 109.73455568895987 81.39251694778311 l 17.20888546391405 -32.89457216629649 a58.12409752322338,58.12409752322338 0 0,0 0.882531257683395,0.4714176338615069 l -17.772561768125755 32.59347580593323" fill="red" stroke="none" /><path d="M 110.05341064243156 81.56283822128135 l 16.799956514106626 -30.809794520748472 a56.09247750282981,56.09247750282981 0 0,0 0.8437267822577498,0.46953304084283287 l -17.32780738543641 30.516046082345458" fill="red" stroke="none" /><path d="M 110.36928655335952 81.73862282372117 l 7.419723498619626 -13.066894106431425 a36.02651051923435,36.02651051923435 0 0,0 0.5366290575375584,0.31085018713471013 l -7.643549288622513 12.937239761906666" fill="red" stroke="none" /><line stroke="#e1ed5e" stroke-width="0.3" x1="143.23703022742887" x2="145.7803849466894" y1="26.81831364943548" y2="22.513508569990506" /><path d="M 143.74570117128098 25.957352633546492 a86.0,86.0 0 0,1 28.547481713284135,27.462654790039103" fill="none" id="id50" stroke="none" /><text fill="#e1ed5e" style="font-size:6.75px; font-family:Arial;" text-anchor="middle"><textPath startOffset="19.985693538727396" xlink:href="#id50">February</textPath></text><path d="M 110.68208982089419 81.91981866633111 l 32.04626946268258 -54.24054400100664 a84.0,84.0 0 0,0 1.23855173512945,0.7462135621655417 l -32.97518326402967 53.68088382938249" fill="red" stroke="none" /><path d="M 110.99172775467656 82.1063720568725 l 25.183259946421966 -40.996274101186515 a69.1133149108298,69.1133149108298 0 0,0 1.0083331430829872,0.6314181216939063 l -25.885212241877216 40.556711638169666" fill="red" stroke="none" /><path d="M 111.2981086023043 82.29822771554956 l 12.131231403258104 -19.007101399844146 a43.548540506723555,43.548540506723555 0 0,0 0.6284116072621996,0.40873638976940885 l -12.456610036304584 18.79546608591521" fill="red" stroke="none" /><line stroke="#e1ed5e" stroke-width="0.3" x1="172.23445277983987" x2="176.4835382374775" y1="55.19839476539836" y2="52.563006222186495" /><path d="M 173.08426987136738 54.67131705675599 a86.0,86.0 0 0,1 12.851231095245387,41.99856678651699" fill="none" id="id51" stroke="none" /><text fill="#e1ed5e" style="font-size:6.75px; font-family:Arial;" text-anchor="middle"><textPath startOffset="22.20632615414155" xlink:href="#id51">March</textPath></text><line stroke="#e1ed5e" stroke-width="0.3" x1="184.98032266829074" x2="189.97916517819016" y1="98.17113171792111" y2="98.06355123074" /><path d="M 185.9800911702706 98.14961562048488 a86.0,86.0 0 0,1 -9.607161424134198,41.387399972396054" fill="none" id="id52" stroke="none" /><text fill="#e1ed5e" style="font-size:6.75px; font-family:Arial;" text-anchor="middle"><textPath startOffset="21.466115282336823" xlink:href="#id52">April</textPath></text><line stroke="#e1ed5e" stroke-width="0.3" x1="174.80103733775053" x2="179.2010983576182" y1="140.37084112569926" y2="142.7455964860345" /><path d="M 175.68104954172406 140.8457921977663 a86.0,86.0 0 0,1 -30.038265399797805,32.042727171017184" fill="none" id="id53" stroke="none" /><text fill="#e1ed5e" style="font-size:6.75px; font-family:Arial;" text-anchor="middle"><textPath startOffset="22.206326154141568" xlink:href="#id53">May</textPath></text><line stroke="#e1ed5e" stroke-width="0.3" x1="143.8653032363475" x2="146.44561519142675" y1="172.8068346515853" y2="177.08958963109032" /><path d="M 144.38136562736335 173.6633856474863 a86.0,86.0 0 0,1 -40.68145358897372,12.25698825130547" fill="none" id="id54" stroke="none" /><text fill="#e1ed5e" style="font-size:6.75px; font-family:Arial;" text-anchor="middle"><textPath startOffset="21.466115282336833" xlink:href="#id54">June</textPath></text><line stroke="#e1ed5e" stroke-width="0.3" x1="102.19456741930631" x2="102.32365962044197" y1="184.97166512339345" y2="189.96999836594603" /><path d="M 102.22038585953345 185.97133177190398 a86.0,86.0 0 0,1 -42.740103519485714,-10.115201625700543" fill="none" id="id55" stroke="none" /><text fill="#e1ed5e" style="font-size:6.75px; font-family:Arial;" text-anchor="middle"><textPath startOffset="22.20632615414155" xlink:href="#id55">July</textPath></text><line stroke="#e1ed5e" stroke-width="0.3" x1="58.666819895761336" x2="56.23545636021788" y1="174.27360380694188" y2="178.64263932499728" /><path d="M 58.180547188652646 175.14741091055294 a86.0,86.0 0 0,1 -31.652253787137756,-30.449443065178592" fill="none" id="id56" stroke="none" /><text fill="#e1ed5e" style="font-size:6.75px; font-family:Arial;" text-anchor="middle"><textPath startOffset="22.20632615414155" xlink:href="#id56">August</textPath></text><line stroke="#e1ed5e" stroke-width="0.3" x1="26.63291911575756" x2="22.317208475507996" y1="142.92168965132927" y2="145.44649492493687" /><path d="M 25.769776987707644 143.4266507060508 a86.0,86.0 0 0,1 -11.730757126820373,-40.83630448921669" fill="none" id="id57" stroke="none" /><text fill="#e1ed5e" style="font-size:6.75px; font-family:Arial;" text-anchor="middle"><textPath startOffset="21.46611528233685" xlink:href="#id57">September</textPath></text><line stroke="#e1ed5e" stroke-width="0.3" x1="15.007084014347285" x2="10.007500721073583" y1="101.09737516637583" y2="101.16192664675087" /><path d="M 14.007167355692545 101.11028546245083 a86.0,86.0 0 0,1 10.666146001902534,-42.60595125391555" fill="none" id="id58" stroke="none" /><text fill="#e1ed5e" style="font-size:6.75px; font-family:Arial;" text-anchor="middle"><textPath startOffset="22.20632615414155" xlink:href="#id58">October</textPath></text><line stroke="#e1ed5e" stroke-width="0.3" x1="26.266209847984243" x2="21.928928074336255" y1="57.711370442889674" y2="55.22380399835377" /><path d="M 25.398753493254645 57.213857153982495 a86.0,86.0 0 0,1 29.58750427330803,-30.492523968695096" fill="none" id="id59" stroke="none" /><text fill="#e1ed5e" style="font-size:6.75px; font-family:Arial;" text-anchor="middle"><textPath startOffset="21.46611528233685" xlink:href="#id59">November</textPath></text><line stroke="#e1ed5e" stroke-width="0.3" x1="56.762969772571076" x2="54.21961505331055" y1="26.818313649435495" y2="22.513508569990535" /><path d="M 56.25429882871897 25.957352633546506 a86.0,86.0 0 0,1 42.265352541879196,-11.944610805530505" fill="none" id="id60" stroke="none" /><text fill="#e1ed5e" style="font-size:6.75px; font-family:Arial;" text-anchor="middle"><textPath startOffset="22.20632615414155" xlink:href="#id60">December</textPath></text></svg>