<?xml version="1.0" encoding="utf-8" ?>
<svg baseProfile="full" height="200mm" version="1.1" viewBox="0,0,200,200" width="200mm" xmlns="http://www.w3.org/2000/svg" xmlns:ev="http://www.w3.org/2001/xml-events" xmlns:xlink="http://www.w3.org/1999/xlink"><defs /><rect fill="#1a1a1a" height="200" width="200" x="0" y="0" /><rect fill="#1a1a1a" height="200" width="180" x="10" y="0" /><text alignment-baseline="middle" fill="#e1ed5e" style="dominant-baseline: central; font-size:9.0px; font-family:Arial;" text-anchor="middle" x="100.0" y="100.0">2026</text><line stroke="#e1ed5e" stroke-width="0.3" x1="100.0" x2="100.0" y1="15.0" y2="10.0" /><path d="M 100.0 14.0 a86.0,86.0 0 0,1 42.46469731375804,11.215312516191453" fill="none" id="id49" stroke="none" /><text fill="#e1ed5e" style="font-size:6.75px; font-family:Arial;" text-anchor="middle"><textPath startOffset="22.20632615414155" xlink:href="#id49">January</textPath></text><path d="M 100.0 79.0 l 0.0 -30.183113281965646 a51.183113281965646,51.183113281965646 0 0,0 0.8810331580869074,0.007583330543748889 l -0.5195526788143789 30.178641328030455" fill="red" stroke="none" /><path d="M 100.36148047927253 79.00311137660856 l 0.6883484184649448 -39.98327961079058 a60.98920444294766,60.98920444294766 0 0,0 1.0495178107779102,0.027105948673245395 l -1.3764928644377228 39.96550686997497" fill="red" stroke="none" /><path d="M 100.72285384407766 79.0124445844662 l 1.773834468044833 -51.502042219305366 a72.53258038832459,72.53258038832459 0 0,0 1.2474193503667241,0.05371650124309769 l -2.6600946508008887 51.46387799153807" fill="red" stroke="none" /><path d="M 101.08401301168833 79.027996857942 l 1.0350873757357208 -20.025456763129203 a41.05219001623924,41.05219001623924 0 0,0 0.7053899112431764,0.04255104578247856 l -1.3796393358185093 20.00467244796642" fill="red" stroke="none" /><path d="M 101.44485096284872 79.0497635885617 l 2.07577070964148 -30.09852795971832 a51.170021700041104,51.170021700041104 0 0,0 0.8781989443446051,0.06816514004139194 l -2.593559843348426 30.058337557488468" fill="red" stroke="none" /><path d="M 102.16513564639614 79.11191278185805 l 3.900428021231839 -37.62927317333969 a58.83088074976094,58.83088074976094 0 0,0 1.0063814870077556,0.11307868609280404 l -4.54757621174932 37.55655853377628" fill="red" stroke="none" /><path d="M 102.52436894288641 79.15227682838746 l 6.143821655845896 -50.739292074469596 a72.10990417479937,72.10990417479937 0 0,0 1.2309685035893405,0.1598150407985039 l -7.0163048879430825 50.626018710506955" fill="red" stroke="none" /><path d="M 103.59715602781102 79.31037775812273 l 9.429966342778231 -54.23797018458048 a76.05162735986441,76.05162735986441 0 0,0 1.2878252255824711,0.23534182840351395 l -10.362186689463604 54.06761287482623" fill="red" stroke="none" /><path d="M 103.95276090670814 79.375362276772 l 10.450497315408427 -54.52839831320994 a76.52079895627796,76.52079895627796 0 0,0 1.2915019773579925,0.2590631468382214 l -11.387565702233545 54.34043121029451" fill="red" stroke="none" /><path d="M 104.307194497241 79.44645832069477 l 6.516990439592303 -31.098487590842407 a52.77400029627237,52.77400029627237 0 0,0 0.8875010561977361,0.19397335592175027 l -7.051334219943567 30.981700736824788" fill="red" stroke="none" /><path d="M 105.01212808612495 79.60689891045804 l 10.780339214361307 -43.86251580174458 a66.16786474956491,66.16786474956491 0 0,0 1.1037149941173356,0.28136152723998725 l -11.533763097163668 43.67045127833572" fill="red" stroke="none" /><path d="M 105.36241919743992 79.69619591428918 l 5.47520387086214 -20.730842299009918 a42.4416809008511,42.4416809008511 0 0,0 0.7047382721438331,0.19263159141936878 l -5.831240032229684 20.633524166764257" fill="red" stroke="none" /><path d="M 105.71112130821622 79.79150937346287 l 9.413451941979808 -33.308985235383254 a55.613603898972194,55.613603898972194 0 0,0 0.9189745038379955,0.26827385761043765 l -9.985416663541232 33.14201304885411" fill="red" stroke="none" /><path d="M 106.0581310904928 79.89281104454417 l 10.582352312157665 -35.12326728414368 a57.682830931813676,57.682830931813676 0 0,0 0.9482360467198434,0.29462155549241453 l -11.185373731588228 34.935905593768744" fill="red" stroke="none" /><path d="M 107.08798089147638 80.2323363322302 l 21.26394267442914 -59.302991003309366 a84.0,84.0 0 0,0 1.3568706969096942,0.49974692877470117 l -22.28159569711141 58.92818080672834" fill="red" stroke="none" /><path d="M 107.4271985657038 80.35727306442388 l 14.211263334730267 -37.584556629827944 a61.181574168140706,61.181574168140706 0 0,0 0.9818676422135671,0.38094939094981173 l -14.856114141943502 37.334364534987586" fill="red" stroke="none" /><path d="M 107.76421540070413 80.48803036053334 l 11.151978148600014 -28.025633992038042 a51.16293714614892,51.16293714614892 0 0,0 0.815479063907215,0.3326543856276384 l -11.632741082095617 27.829518720226822" fill="red" stroke="none" /><line stroke="#e1ed5e" stroke-width="0.3" x1="143.23703022742887" x2="145.7803849466894" y1="26.81831364943548" y2="22.513508569990506" /><path d="M 143.74570117128098 25.957352633546492 a86.0,86.0 0 0,1 28.547481713284135,27.462654790039103" fill="none" id="id50" stroke="none" /><text fill="#e1ed5e" style="font-size:6.75px; font-family:Arial;" text-anchor="middle"><textPath startOffset="19.985693538727396" xlink:href="#id50">February</textPath></text><line stroke="#e1ed5e" stroke-width="0.3" x1="172.23445277983987" x2="176.4835382374775" y1="55.19839476539836" y2="52.563006222186495" /><path d="M 173.08426987136738 54.67131705675599 a86.0,86.0 0 0,1 12.851231095245387,41.99856678651699" fill="none" id="id51" stroke="none" /><text fill="#e1ed5e" style="font-size:6.75px; font-family:Arial;" text-anchor="middle"><textPath startOffset="22.20632615414155" xlink:href="#id51">March</textPath></text><line stroke="#e1ed5e" stroke-width="0.3" x1="184.98032266829074" x2="189.97916517819016" y1="98.17113171792111" y2="98.06355123074" /><path d="M 185.9800911702706 98.14961562048488 a86.0,86.0 0 0,1 -9.607161424134198,41.387399972396054" fill="none" id="id52" stroke="none" /><text fill="#e1ed5e" style="font-size:6.75px; font-family:Arial;" text-anchor="middle"><textPath startOffset="21.466115282336823" xlink:href="#id52">April</textPath></text><line stroke="#e1ed5e" stroke-width="0.3" x1="174.80103733775053" x2="179.2010983576182" y1="140.37084112569926" y2="142.7455964860345" /><path d="M 175.68104954172406 140.8457921977663 a86.0,86.0 0 0,1 -30.038265399797805,32.042727171017184" fill="none" id="id53" stroke="none" /><text fill="#e1ed5e" style="font-size:6.75px; font-family:Arial;" text-anchor="middle"><textPath startOffset="22.206326154141568" xlink:href="#id53">May</textPath></text><line stroke="#e1ed5e" stroke-width="0.3" x1="143.8653032363475" x2="146.44561519142675" y1="172.8068346515853" y2="177.08958963109032" /><path d="M 144.38136562736335 173.6633856474863 a86.0,86.0 0 0,1 -40.68145358897372,12.25698825130547" fill="none" id="id54" stroke="none" /><text fill="#e1ed5e" style="font-size:6.75px; font-family:Arial;" text-anchor="middle"><textPath startOffset="21.466115282336833" xlink:href="#id54">June</textPath></text><line stroke="#e1ed5e" stroke-width="0.3" x1="102.19456741930631" x2="102.32365962044197" y1="184.97166512339345" y2="189.96999836594603" /><path d="M 102.22038585953345 185.97133177190398 a86.0,86.0 0 0,1 -42.740103519485714,-10.115201625700543" fill="none" id="id55" stroke="none" /><text fill="#e1ed5e" style="font-size:6.75px; font-family:Arial;" text-anchor="middle"><textPath startOffset="22.20632615414155" xlink:href="#id55">July</textPath></text><line stroke="#e1ed5e" stroke-width="0.3" x1="58.666819895761336" x2="56.23545636021788" y1="174.27360380694188" y2="178.64263932499728" /><path d="M 58.180547188652646 175.14741091055294 a86.0,86.0 0 0,1 -31.652253787137756,-30.449443065178592" fill="none" id="id56" stroke="none" /><text fill="#e1ed5e" style="font-size:6.75px; font-family:Arial;" text-anchor="middle"><textPath startOffset="22.20632615414155" xlink:href="#id56">August</textPath></text><line stroke="#e1ed5e" stroke-width="0.3" x1="26.63291911575756" x2="22.317208475507996" y1="142.92168965132927" y2="145.44649492493687" /><path d="M 25.769776987707644 143.4266507060508 a86.0,86.0 0 0,1 -11.730757126820373,-40.83630448921669" fill="none" id="id57" stroke="none" /><text fill="#e1ed5e" style="font-size:6.75px; font-family:Arial;" text-anchor="middle"><textPath startOffset="21.46611528233685" xlink:href="#id57">September</textPath></text><line stroke="#e1ed5e" stroke-width="0.3" x1="15.007084014347285" x2="10.007500721073583" y1="101.09737516637583" y2="101.16192664675087" /><path d="M 14.007167355692545 101.11028546245083 a86.0,86.0 0 0,1 10.666146001902534,-42.60595125391555" fill="none" id="id58" stroke="none" /><text fill="#e1ed5e" style="font-size:6.75px; font-family:Arial;" text-anchor="middle"><textPath startOffset="22.20632615414155" xlink:href="#id58">October</textPath></text><line stroke="#e1ed5e" stroke-width="0.3" x1="26.266209847984243" x2="21.928928074336255" y1="57.711370442889674" y2="55.22380399835377" /><path d="M 25.398753493254645 57.213857153982495 a86.0,86.0 0 0,1 29.58750427330803,-30.492523968695096" fill="none" id="id59" stroke="none" /><text fill="#e1ed5e" style="font-size:6.75px; font-family:Arial;" text-anchor="middle"><textPath startOffset="21.46611528233685" xlink:href="#id59">November</textPath></text><line stroke="#e1ed5e" stroke-width="0.3" x1="56.762969772571076" x2="54.21961505331055" y1="26.818313649435495" y2="22.513508569990535" /><path d="M 56.25429882871897 25.957352633546506 a86.0,86.0 0 0,1 42.265352541879196,-11.944610805530505" fill="none" id="id60" stroke="none" /><text fill="#e1ed5e" style="font-size:6.75px; font-family:Arial;" text-anchor="middle"><textPath startOffset="22.20632615414155" xlink:href="#id60">December</textPath></text></svg>