<?xml version="1.0" encoding="utf-8" ?>
<svg baseProfile="full" height="200mm" version="1.1" viewBox="0,0,200,200" width="200mm" xmlns="http://www.w3.org/2000/svg" xmlns:ev="http://www.w3.org/2001/xml-events" xmlns:xlink="http://www.w3.org/1999/xlink"><defs /><rect fill="#1a1a1a" height="200" width="200" x="0" y="0" /><rect fill="#1a1a1a" height="200" width="180" x="10" y="0" /><text alignment-baseline="middle" fill="#e1ed5e" style="dominant-baseline: central; font-size:9.0px; font-family:Arial;" text-anchor="middle" x="100.0" y="100.0">2026</text><line stroke="#e1ed5e" stroke-width="0.3" x1="100.0" x2="100.0" y1="15.0" y2="10.0" /><path d="M 100.0 14.0 a86.0,86.0 0 0,1 42.46469731375804,11.215312516191453" fill="none" id="id49" stroke="none" /><text fill="#e1ed5e" style="font-size:6.75px; font-family:Arial;" text-anchor="middle"><textPath startOffset="22.20632615414155" xlink:href="#id49">January</textPath></text><path d="M 100.0 79.0 l 0.0 -18.41678704987826 a39.41678704987826,39.41678704987826 0 0,0 0.6784951940082468,0.005840022343406541 l -0.3170147147357184 18.41405840414341" fill="red" stroke="none" /><path d="M 100.36148047927253 79.00311137660856 l 0.4200085697111954 -24.396540518159377 a45.40015566452032,45.40015566452032 0 0,0 0.7812574769125948,0.02017757569458078 l -0.839892681818658 24.38569615032244" fill="red" stroke="none" /><path d="M 100.72285384407766 79.0124445844662 l 1.0823380396360585 -31.424927419714347 a52.44356085061547,52.44356085061547 0 0,0 0.9019272753975106,0.03883888573303832 l -1.6231061474229005 31.401640807457113" fill="red" stroke="none" /><path d="M 101.08401301168833 79.027996857942 l 0.6315777832080757 -12.218904303800057 a33.23521609460436,33.23521609460436 0 0,0 0.5710727277118949,0.03444866646755406 l -0.8418125597595825 12.2062223679522" fill="red" stroke="none" /><path d="M 101.44485096284872 79.0497635885617 l 1.2665700442069237 -18.365175744814344 a39.408798978064794,39.408798978064794 0 0,0 0.6763484655781855,0.05249765804185095 l -1.5825086991474504 18.34065282458403" fill="red" stroke="none" /><path d="M 102.16513564639614 79.11191278185805 l 2.37991858557961 -22.960199777972083 a44.08321438444777,44.08321438444777 0 0,0 0.7541027820577462,0.08473223412282518 l -2.7747880711470816 22.915831590378655" fill="red" stroke="none" /><path d="M 102.52436894288641 79.15227682838746 l 3.7487668701078247 -30.959521255066054 a52.185657110109204,52.185657110109204 0 0,0 0.8908471170054262,0.11565752327075593 l -4.281128715621097 30.89040540863116" fill="red" stroke="none" /><path d="M 103.59715602781102 79.31037775812273 l 5.753869072420479 -33.09430467213927 a54.59077270672612,54.59077270672612 0 0,0 0.9244164341559241,0.1689311946208494 l -6.322680627679305 32.99035799616769" fill="red" stroke="none" /><path d="M 103.95276090670814 79.375362276772 l 6.376564995970733 -33.27151478788501 a54.877046468490875,54.877046468490875 0 0,0 0.9262032675079348,0.18578766219413842 l -6.948334672945793 33.15682316961366" fill="red" stroke="none" /><path d="M 104.307194497241 79.44645832069477 l 3.976462733013591 -18.975319682348136 a40.38749630340015,40.38749630340015 0 0,0 0.6791970558461075,0.14844616953930556 l -4.302502513013226 18.904060014712957" fill="red" stroke="none" /><path d="M 105.01212808612495 79.60689891045804 l 6.577824155567508 -26.763528514976386 a48.56001141497444,48.56001141497444 0 0,0 0.8100066840009175,0.20648873930299017 l -7.03753972825345 26.646336779504527" fill="red" stroke="none" /><path d="M 105.36241919743992 79.69619591428918 l 3.3407973128002775 -12.649308387070743 a34.0830397597971,34.0830397597971 0 0,0 0.5659441859958779,0.1546939246981539 l -3.5580393880198664 12.589927921546296" fill="red" stroke="none" /><path d="M 105.71112130821622 79.79150937346287 l 5.743792504111584 -20.324095867675926 a42.12013317118929,42.12013317118929 0 0,0 0.6960046781521262,0.20318285125753446 l -6.092787399987137 20.222214687499687" fill="red" stroke="none" /><path d="M 106.0581310904928 79.89281104454417 l 6.457018770699267 -21.43111374977101 a43.38271046948485,43.38271046948485 0 0,0 0.7131593440724778,0.22158207968512417 l -6.824963487482463 21.316791535203365" fill="red" stroke="none" /><path d="M 107.08798089147638 80.2323363322302 l 12.974589480461862 -36.18482117884654 a59.440619869242646,59.440619869242646 0 0,0 0.9601575631752796,0.35363413362045826 l -13.595529369409718 35.956123777419755" fill="red" stroke="none" /><path d="M 107.4271985657038 80.35727306442388 l 8.671266217651933 -22.9329151485911 a45.5175336245282,45.5175336245282 0 0,0 0.7304845294837966,0.28341664868163935 l -9.064733912135397 22.780255796018913" fill="red" stroke="none" /><path d="M 107.76421540070413 80.48803036053334 l 6.804586552387835 -17.10036099813428 a39.404476205951894,39.404476205951894 0 0,0 0.6280625617406037,0.25620248864575745 l -7.0979329837168255 16.980697623304945" fill="red" stroke="none" /><path d="M 108.76106565485865 80.91482961587045 l 18.911558097648445 -41.19707838541575 a66.33041249729393,66.33041249729393 0 0,0 1.0335598201238105,0.4852701940722629 l -19.617896129071855 40.86544320870348" fill="red" stroke="none" /><path d="M 109.08828744355905 81.06846463323043 l 15.364479887121094 -32.005281102898756 a56.5021867027556,56.5021867027556 0 0,0 0.8731706219897764,0.42846103207200675 l -15.913121776121303 31.736064910691915" fill="red" stroke="none" /><path d="M 109.41281617654863 81.2277094730956 l 19.784660396816978 -39.45720239076948 a65.13959228995577,65.13959228995577 0 0,0 0.9979990791446489,0.5112138908324247 l -20.460919963550385 39.11079597462455" fill="red" stroke="none" /><path d="M 109.73455568895987 81.39251694778311 l 14.156741981207562 -27.060437569706238 a51.53982031686587,51.53982031686587 0 0,0 0.7825584290034986,0.41801561105901724 l -14.620445456739372 26.812743232145465" fill="red" stroke="none" /><path d="M 110.05341064243156 81.56283822128135 l 13.82034008910309 -25.34541312619414 a49.86852553761491,49.86852553761491 0 0,0 0.7501079014680281,0.4174342350423644 l -14.254572079643152 25.103763493591593" fill="red" stroke="none" /><path d="M 110.36928655335952 81.73862282372117 l 6.103771877738455 -10.74936832768238 a33.361429956912424,33.361429956912424 0 0,0 0.4969316333405375,0.28785487674836147 l -6.287900243544321 10.642709293543968" fill="red" stroke="none" /><line stroke="#e1ed5e" stroke-width="0.3" x1="143.23703022742887" x2="145.7803849466894" y1="26.81831364943548" y2="22.513508569990506" /><path d="M 143.74570117128098 25.957352633546492 a86.0,86.0 0 0,1 28.547481713284135,27.462654790039103" fill="none" id="id50" stroke="none" /><text fill="#e1ed5e" style="font-size:6.75px; font-family:Arial;" text-anchor="middle"><textPath startOffset="19.985693538727396" xlink:href="#id50">February</textPath></text><path d="M 110.68208982089419 81.91981866633111 l 26.362588628692283 -44.62051815922423 a72.82640948400068,72.82640948400068 0 0,0 1.0738009027340103,0.646953029056935 l -27.126751597643928 44.160118520708686" fill="red" stroke="none" /><path d="M 110.99172775467656 82.1063720568725 l 20.716792732147578 -33.72523315692736 a60.58000571748159,60.58000571748159 0 0,0 0.8838358810007214,0.5534579475993922 l -21.294247765520563 33.363630868005025" fill="red" stroke="none" /><path d="M 111.2981086023043 82.29822771554956 l 17.50770513747739 -27.43091082552694 a53.54189004804213,53.54189004804213 0 0,0 0.7726170564947266,0.5025316252857792 l -17.977289219756397 27.125480276081632" fill="red" stroke="none" /><path d="M 111.60114157652 82.49532879139004 l 11.810277717123544 -17.820231479550184 a42.37857127453414,42.37857127453414 0 0,0 0.6045914767432478,0.4082228639352391 l -12.115273888273334 17.614296703316274" fill="red" stroke="none" /><path d="M 111.90073688211348 82.69761687909136 l 35.70221064634041 -51.90714936272591 a84.0,84.0 0 0,0 1.1842754416653962,0.8296606289442576 l -36.590417227589455 51.28490389101772" fill="red" stroke="none" /><path d="M 112.19680574252982 82.90503203632743 l 35.789312857961335 -50.16208093036357 a82.62068871823311,82.62068871823311 0 0,0 1.150609875320141,0.8359670075630233 l -36.647468049635265 49.538594687983874" fill="red" stroke="none" /><path d="M 112.48926042617603 83.11751280151076 l 24.526734929425068 -33.15426809412274 a62.240346981508836,62.240346981508836 0 0,0 0.8558161705868331,0.6445829967560943 l -25.093797253770283 32.7271685078608" fill="red" stroke="none" /><path d="M 112.77801427241765 83.33499621200491 l 31.086086399976036 -40.54227335837265 a72.08836165636737,72.08836165636737 0 0,0 0.978230296378948,0.763524262755619 l -31.779349251514414 40.0011707063938" fill="red" stroke="none" /><line stroke="#e1ed5e" stroke-width="0.3" x1="172.23445277983987" x2="176.4835382374775" y1="55.19839476539836" y2="52.563006222186495" /><path d="M 173.08426987136738 54.67131705675599 a86.0,86.0 0 0,1 12.851231095245387,41.99856678651699" fill="none" id="id51" stroke="none" /><text fill="#e1ed5e" style="font-size:6.75px; font-family:Arial;" text-anchor="middle"><textPath startOffset="22.20632615414155" xlink:href="#id51">March</textPath></text><line stroke="#e1ed5e" stroke-width="0.3" x1="184.98032266829074" x2="189.97916517819016" y1="98.17113171792111" y2="98.06355123074" /><path d="M 185.9800911702706 98.14961562048488 a86.0,86.0 0 0,1 -9.607161424134198,41.387399972396054" fill="none" id="id52" stroke="none" /><text fill="#e1ed5e" style="font-size:6.75px; font-family:Arial;" text-anchor="middle"><textPath startOffset="21.466115282336823" xlink:href="#id52">April</textPath></text><line stroke="#e1ed5e" stroke-width="0.3" x1="174.80103733775053" x2="179.2010983576182" y1="140.37084112569926" y2="142.7455964860345" /><path d="M 175.68104954172406 140.8457921977663 a86.0,86.0 0 0,1 -30.038265399797805,32.042727171017184" fill="none" id="id53" stroke="none" /><text fill="#e1ed5e" style="font-size:6.75px; font-family:Arial;" text-anchor="middle"><textPath startOffset="22.206326154141568" xlink:href="#id53">May</textPath></text><line stroke="#e1ed5e" stroke-width="0.3" x1="143.8653032363475" x2="146.44561519142675" y1="172.8068346515853" y2="177.08958963109032" /><path d="M 144.38136562736335 173.6633856474863 a86.0,86.0 0 0,1 -40.68145358897372,12.25698825130547" fill="none" id="id54" stroke="none" /><text fill="#e1ed5e" style="font-size:6.75px; font-family:Arial;" text-anchor="middle"><textPath startOffset="21.466115282336833" xlink:href="#id54">June</textPath></text><line stroke="#e1ed5e" stroke-width="0.3" x1="102.19456741930631" x2="102.32365962044197" y1="184.97166512339345" y2="189.96999836594603" /><path d="M 102.22038585953345 185.97133177190398 a86.0,86.0 0 0,1 -42.740103519485714,-10.115201625700543" fill="none" id="id55" stroke="none" /><text fill="#e1ed5e" style="font-size:6.75px; font-family:Arial;" text-anchor="middle"><textPath startOffset="22.20632615414155" xlink:href="#id55">July</textPath></text><line stroke="#e1ed5e" stroke-width="0.3" x1="58.666819895761336" x2="56.23545636021788" y1="174.27360380694188" y2="178.64263932499728" /><path d="M 58.180547188652646 175.14741091055294 a86.0,86.0 0 0,1 -31.652253787137756,-30.449443065178592" fill="none" id="id56" stroke="none" /><text fill="#e1ed5e" style="font-size:6.75px; font-family:Arial;" text-anchor="middle"><textPath startOffset="22.20632615414155" xlink:href="#id56">August</textPath></text><line stroke="#e1ed5e" stroke-width="0.3" x1="26.63291911575756" x2="22.317208475507996" y1="142.92168965132927" y2="145.44649492493687" /><path d="M 25.769776987707644 143.4266507060508 a86.0,86.0 0 0,1 -11.730757126820373,-40.83630448921669" fill="none" id="id57" stroke="none" /><text fill="#e1ed5e" style="font-size:6.75px; font-family:Arial;" text-anchor="middle"><textPath startOffset="21.46611528233685" xlink:href="#id57">September</textPath></text><line stroke="#e1ed5e" stroke-width="0.3" x1="15.007084014347285" x2="10.007500721073583" y1="101.09737516637583" y2="101.16192664675087" /><path d="M 14.007167355692545 101.11028546245083 a86.0,86.0 0 0,1 10.666146001902534,-42.60595125391555" fill="none" id="id58" stroke="none" /><text fill="#e1ed5e" style="font-size:6.75px; font-family:Arial;" text-anchor="middle"><textPath startOffset="22.20632615414155" xlink:href="#id58">October</textPath></text><line stroke="#e1ed5e" stroke-width="0.3" x1="26.266209847984243" x2="21.928928074336255" y1="57.711370442889674" y2="55.22380399835377" /><path d="M 25.398753493254645 57.213857153982495 a86.0,86.0 0 0,1 29.58750427330803,-30.492523968695096" fill="none" id="id59" stroke="none" /><text fill="#e1ed5e" style="font-size:6.75px; font-family:Arial;" text-anchor="middle"><textPath startOffset="21.46611528233685" xlink:href="#id59">November</textPath></text><line stroke="#e1ed5e" stroke-width="0.3" x1="56.762969772571076" x2="54.21961505331055" y1="26.818313649435495" y2="22.513508569990535" /><path d="M 56.25429882871897 25.957352633546506 a86.0,86.0 0 0,1 42.265352541879196,-11.944610805530505" fill="none" id="id60" stroke="none" /><text fill="#e1ed5e" style="font-size:6.75px; font-family:Arial;" text-anchor="middle"><textPath startOffset="22.20632615414155" xlink:href="#id60">December</textPath></text></svg>