<?xml version="1.0" encoding="utf-8" ?>
<svg baseProfile="full" height="200mm" version="1.1" viewBox="0,0,200,200" width="200mm" xmlns="http://www.w3.org/2000/svg" xmlns:ev="http://www.w3.org/2001/xml-events" xmlns:xlink="http://www.w3.org/1999/xlink"><defs /><rect fill="#1a1a1a" height="200" width="200" x="0" y="0" /><rect fill="#1a1a1a" height="200" width="180" x="10" y="0" /><text alignment-baseline="middle" fill="#e1ed5e" style="dominant-baseline: central; font-size:9.0px; font-family:Arial;" text-anchor="middle" x="100.0" y="100.0">2026</text><line stroke="#e1ed5e" stroke-width="0.3" x1="100.0" x2="100.0" y1="15.0" y2="10.0" /><path d="M 100.0 14.0 a86.0,86.0 0 0,1 42.46469731375804,11.215312516191453" fill="none" id="id61" stroke="none" /><text fill="#e1ed5e" style="font-size:6.75px; font-family:Arial;" text-anchor="middle"><textPath startOffset="22.20632615414155" xlink:href="#id61">January</textPath></text><path d="M 100.0 79.0 l 0.0 -15.502866640420173 a36.50286664042017,36.50286664042017 0 0,0 0.6283368441904892,0.005408293590968914 l -0.2668563649179608 15.500569723437764" fill="red" stroke="none" /><path d="M 100.36148047927253 79.00311137660856 l 0.3535544406541489 -20.536498202227527 a41.53954135691936,41.53954135691936 0 0,0 0.7148230396481855,0.018461770180722682 l -0.7070041154972022 20.527369639904446" fill="red" stroke="none" /><path d="M 100.72285384407766 79.0124445844662 l 0.9110895533997352 -26.452847483835946 a47.46853271674499,47.46853271674499 0 0,0 0.8163664649371144,0.03515445725266791 l -1.3662968507261812 26.433245300059085" fill="red" stroke="none" /><path d="M 101.08401301168833 79.027996857942 l 0.5316489852225187 -10.285618408946124 a31.29934933371713,31.29934933371713 0 0,0 0.5378091945824642,0.03244211931041808 l -0.7086202286445948 10.274943020255401" fill="red" stroke="none" /><path d="M 101.44485096284872 79.0497635885617 l 1.0661722065261545 -15.459421321897615 a36.49614244842604,36.49614244842604 0 0,0 0.62636037089725,0.04861761981557947 l -1.3321227667857458 15.438778439893571" fill="red" stroke="none" /><path d="M 102.16513564639614 79.11191278185805 l 2.0033657525264146 -19.327416570072078 a40.430967696218644,40.430967696218644 0 0,0 0.6916261812287825,0.07771226006280021 l -2.3357586372649224 19.29006835653868" fill="red" stroke="none" /><path d="M 102.52436894288641 79.15227682838746 l 3.155633645320947 -26.061078296049228 a47.25143473519666,47.25143473519666 0 0,0 0.8066163528305127,0.10472195264173376 l -3.6037647266593056 26.002898020243357" fill="red" stroke="none" /><path d="M 103.59715602781102 79.31037775812273 l 4.843486795747169 -27.858094384221097 a49.276010805287726,49.276010805287726 0 0,0 0.8344185645212614,0.15248465919702048 l -5.322300481371331 27.770594243673337" fill="red" stroke="none" /><path d="M 103.95276090670814 79.375362276772 l 5.36765921703803 -28.00726615801091 a49.516990078125644,49.516990078125644 0 0,0 0.835737361227181,0.16764105245327907 l -5.848962987732336 27.910721149480423" fill="red" stroke="none" /><path d="M 104.307194497241 79.44645832069477 l 3.3473032665009788 -15.973027743551379 a37.31998941342151,37.31998941342151 0 0,0 0.6276107521839579,0.13717140161529287 l -3.621756742838465 15.913042843840216" fill="red" stroke="none" /><path d="M 105.01212808612495 79.60689891045804 l 5.537074973594353 -22.52897925523356 a44.19944192315731,44.19944192315731 0 0,0 0.7372700776554508,0.18794655879743244 l -5.924053939934828 22.430329700267258" fill="red" stroke="none" /><path d="M 105.36241919743992 79.69619591428918 l 2.8122133938318585 -10.647923575768464 a32.01302958535267,32.01302958535267 0 0,0 0.5315719518455366,0.14529869468619838 l -2.995083234901106 10.597938340255972" fill="red" stroke="none" /><path d="M 105.71112130821622 79.79150937346287 l 4.835004551028653 -17.108399362514074 a38.77848693662483,38.77848693662483 0 0,0 0.6407863956615766,0.18706312041353915 l -5.128781164413656 17.022637913181832" fill="red" stroke="none" /><path d="M 106.0581310904928 79.89281104454417 l 5.435383524049718 -18.04026389177211 a39.84129813304507,39.84129813304507 0 0,0 0.6549428040819196,0.20349391732646188 l -5.745111700842356 17.94402983956313" fill="red" stroke="none" /><path d="M 107.08798089147638 80.2323363322302 l 10.92173840556669 -30.45962662346239 a53.358510840895775,53.358510840895775 0 0,0 0.86191190227083,0.31744942758011024 l -11.444432633610099 30.267113928075958" fill="red" stroke="none" /><path d="M 107.4271985657038 80.35727306442388 l 7.299290772693556 -19.304448938992838 a41.63834767181014,41.63834767181014 0 0,0 0.6682297212855683,0.25926275028720186 l -7.630503658978792 19.175943484815086" fill="red" stroke="none" /><path d="M 107.76421540070413 80.48803036053334 l 5.727958822522324 -14.39472668816413 a36.492503629157426,36.492503629157426 0 0,0 0.5816490287515858,0.2372692431651272 l -5.974891720862297 14.293996558815424" fill="red" stroke="none" /><path d="M 108.76106565485865 80.91482961587045 l 15.919354573431958 -34.67884004165962 a59.158194358088586,59.158194358088586 0 0,0 0.9218023892447513,0.432798581771001 l -16.513935173976307 34.39967647724862" fill="red" stroke="none" /><path d="M 109.08828744355905 81.06846463323043 l 12.93349822878203 -26.941377091650686 a50.88499918066635,50.88499918066635 0 0,0 0.7863640148703269,0.3858654069554485 l -13.395333510662788 26.714756524560407" fill="red" stroke="none" /><path d="M 109.41281617654863 81.2277094730956 l 16.654313851116804 -33.21424877268213 a58.15578678194176,58.15578678194176 0 0,0 0.8910006896721064,0.45640515990459435 l -17.223575028377667 32.92265108746504" fill="red" stroke="none" /><path d="M 109.73455568895987 81.39251694778311 l 11.91684968735897 -22.778911095534692 a46.7077828131751,46.7077828131751 0 0,0 0.7091908531266997,0.3788251929056888 l -12.307185587013981 22.570407176127247" fill="red" stroke="none" /><path d="M 110.05341064243156 81.56283822128135 l 11.633673601500108 -21.335239343191507 a45.30092177876196,45.30092177876196 0 0,0 0.6814033301306152,0.3792002154779552 l -11.99920102070276 21.131823730153375" fill="red" stroke="none" /><path d="M 110.36928655335952 81.73862282372117 l 5.138027668335981 -9.048593720581566 a31.405593526595887,31.405593526595887 0 0,0 0.4677986797135679,0.2709791896055785 l -5.293023080514877 8.958810373585937" fill="red" stroke="none" /><line stroke="#e1ed5e" stroke-width="0.3" x1="143.23703022742887" x2="145.7803849466894" y1="26.81831364943548" y2="22.513508569990506" /><path d="M 143.74570117128098 25.957352633546492 a86.0,86.0 0 0,1 28.547481713284135,27.462654790039103" fill="none" id="id62" stroke="none" /><text fill="#e1ed5e" style="font-size:6.75px; font-family:Arial;" text-anchor="middle"><textPath startOffset="19.985693538727396" xlink:href="#id62">February</textPath></text><path d="M 110.68208982089419 81.91981866633111 l 22.19147643397306 -37.56062013289513 a64.62638893017882,64.62638893017882 0 0,0 0.9528943588645673,0.5741081892081484 l -22.834732859055265 37.17306533422837" fill="red" stroke="none" /><path d="M 110.99172775467656 82.1063720568725 l 17.438963380196803 -28.389196803596505 a54.31762204793702,54.31762204793702 0 0,0 0.7924704325795232,0.49624491217992023 l -17.92505296514859 28.08480755009364" fill="red" stroke="none" /><path d="M 111.2981086023043 82.29822771554956 l 14.737620475874769 -23.090767743671837 a48.39308329274233,48.39308329274233 0 0,0 0.6983190457937509,0.4542061323922421 l -15.1329065474528 22.833662687120068" fill="red" stroke="none" /><path d="M 111.60114157652 82.49532879139004 l 9.941645083858564 -15.00069862244023 a38.99603473364867,38.99603473364867 0 0,0 0.5563347115695515,0.37563968067640136 l -10.198384489834657 14.827347029465159" fill="red" stroke="none" /><path d="M 111.90073688211348 82.69761687909136 l 15.474435999416416 -22.498154769247733 a48.30613735996103,48.30613735996103 0 0,0 0.681044906632347,0.4771154798087258 l -15.859412045632414 22.228454446675073" fill="red" stroke="none" /><path d="M 112.19680574252982 82.90503203632743 l 15.194023714817344 -21.2958502518717 a47.160496833901604,47.160496833901604 0 0,0 0.6567765801027068,0.47717611684253314 l -15.55834561127384 21.031154900212492" fill="red" stroke="none" /><path d="M 112.48926042617603 83.11751280151076 l 12.242881932625064 -16.549442516785 a41.58572820263029,41.58572820263029 0 0,0 0.5718113793937135,0.43067647606623355 l -12.52593946577716 16.336249451212918" fill="red" stroke="none" /><path d="M 112.77801427241765 83.33499621200491 l 15.594405630561333 -20.33812322982061 a46.628592303945446,46.628592303945446 0 0,0 0.6327443240651421,0.49386698135700585 l -15.942182509785905 20.06667785924038" fill="red" stroke="none" /><path d="M 113.06298171725822 83.55741782278167 l 19.133164161614935 -24.08321705158085 a51.75840233804189,51.75840233804189 0 0,0 0.6928148091883463,0.5602080603231875 l -19.54488236936777 23.750302893993535" fill="red" stroke="none" /><path d="M 113.34407831869373 83.78471172551755 l 17.867935361952775 -21.71253164469179 a49.11933755479785,49.11933755479785 0 0,0 0.6482406758511049,0.5428829236214707 l -18.239033574762995 21.4017475636765" fill="red" stroke="none" /><path d="M 113.6212207817346 84.01681056812373 l 16.633414758796235 -19.517708673021826 a46.64393570384803,46.64393570384803 0 0,0 0.606607052202024,0.5260436580644419 l -16.96691560964502 19.228500021537712" fill="red" stroke="none" /><path d="M 113.89432698308785 84.25364557470407 l 13.315678684474102 -15.090575904417808 a41.12542620555285,41.12542620555285 0 0,0 0.5267756085583644,0.4729443425441011 l -13.573465280628458 14.85913255310441" fill="red" stroke="none" /><path d="M 114.16331599549186 84.49514656593476 l 21.100098379060807 -23.09868203998467 a52.28519240136386,52.28519240136386 0 0,0 0.6592717496262253,0.6127212412467 l -21.49457801248188 22.73205621266333" fill="red" stroke="none" /><path d="M 114.42810811169701 84.74124197986012 l 14.136453710023641 -14.950312594988489 a41.57549926936191,41.57549926936191 0 0,0 0.5157673435642115,0.4961677758668407 l -14.39170429720027 14.704761732359348" fill="red" stroke="none" /><path d="M 114.68862486808459 84.99185889309783 l 17.93328701015783 -18.323383187749787 a46.63882123721383,46.63882123721383 0 0,0 0.5689141106366745,0.5664710126452916 l -18.246036920961824 18.011976324454377" fill="red" stroke="none" /><path d="M 114.94478906791727 85.2469230424477 l 23.687454275208374 -23.38359104718713 a54.28494885533366,54.28494885533366 0 0,0 0.6507362652350708,0.6706409226573519 l -24.086454804146552 22.972385928979666" fill="red" stroke="none" /><path d="M 115.19652480421416 85.50635884689758 l 24.712344722552963 -23.56932661085263 a55.14986293640631,55.14986293640631 0 0,0 0.6492784907966496,0.6926050243482756 l -25.114390535320073 23.1404521696263" fill="red" stroke="none" /><path d="M 115.9244219780498 86.31012108654704 l 11.833892410800416 -10.173339691826454 a36.60569928185505,36.60569928185505 0 0,0 0.40665338706376375,0.4813493452025006 l -12.007256411351298 9.968131396994847" fill="red" stroke="none" /><path d="M 116.15771136456269 86.58626213691792 l 11.943830603525043 -9.915476838391855 a36.5232654560304,36.5232654560304 0 0,0 0.3974105348093597,0.487178325325701 l -12.112739630410811 9.708414343458054" fill="red" stroke="none" /><path d="M 116.82858285166822 87.43820079747576 l 12.344786056800936 -9.21484149975719 a36.404773502191915,36.404773502191915 0 0,0 0.3705267228757933,0.5053980335962757 l -12.501575392190356 9.000981022489421" fill="red" stroke="none" /><path d="M 117.04232023915458 87.72973835380427 l 51.126960717463746 -36.81078493858721 a84.0,84.0 0 0,0 0.8347495207844684,1.1806939986728273 l -51.75302285805209 35.92526443958259" fill="red" stroke="none" /><path d="M 117.45458315368197 88.32363383020206 l 12.913008112299073 -8.638247602090084 a36.53592932988937,36.53592932988937 0 0,0 0.3451833956845298,0.5257379932990883 l -13.059788143341528 8.414691544813323" fill="red" stroke="none" /><line stroke="#e1ed5e" stroke-width="0.3" x1="172.23445277983987" x2="176.4835382374775" y1="55.19839476539836" y2="52.563006222186495" /><path d="M 173.08426987136738 54.67131705675599 a86.0,86.0 0 0,1 12.851231095245387,41.99856678651699" fill="none" id="id63" stroke="none" /><text fill="#e1ed5e" style="font-size:6.75px; font-family:Arial;" text-anchor="middle"><textPath startOffset="22.20632615414155" xlink:href="#id63">March</textPath></text><path d="M 117.84615892207809 88.93136811851018 l 17.55060636321269 -10.885322829385261 a41.65221626887482,41.65221626887482 0 0,0 0.3726568287279572,0.6125498429131828 l -17.73537899022687 10.581605213264996" fill="red" stroke="none" /><line stroke="#e1ed5e" stroke-width="0.3" x1="184.98032266829074" x2="189.97916517819016" y1="98.17113171792111" y2="98.06355123074" /><path d="M 185.9800911702706 98.14961562048488 a86.0,86.0 0 0,1 -9.607161424134198,41.387399972396054" fill="none" id="id64" stroke="none" /><text fill="#e1ed5e" style="font-size:6.75px; font-family:Arial;" text-anchor="middle"><textPath startOffset="21.466115282336823" xlink:href="#id64">April</textPath></text><line stroke="#e1ed5e" stroke-width="0.3" x1="174.80103733775053" x2="179.2010983576182" y1="140.37084112569926" y2="142.7455964860345" /><path d="M 175.68104954172406 140.8457921977663 a86.0,86.0 0 0,1 -30.038265399797805,32.042727171017184" fill="none" id="id65" stroke="none" /><text fill="#e1ed5e" style="font-size:6.75px; font-family:Arial;" text-anchor="middle"><textPath startOffset="22.206326154141568" xlink:href="#id65">May</textPath></text><line stroke="#e1ed5e" stroke-width="0.3" x1="143.8653032363475" x2="146.44561519142675" y1="172.8068346515853" y2="177.08958963109032" /><path d="M 144.38136562736335 173.6633856474863 a86.0,86.0 0 0,1 -40.68145358897372,12.25698825130547" fill="none" id="id66" stroke="none" /><text fill="#e1ed5e" style="font-size:6.75px; font-family:Arial;" text-anchor="middle"><textPath startOffset="21.466115282336833" xlink:href="#id66">June</textPath></text><line stroke="#e1ed5e" stroke-width="0.3" x1="102.19456741930631" x2="102.32365962044197" y1="184.97166512339345" y2="189.96999836594603" /><path d="M 102.22038585953345 185.97133177190398 a86.0,86.0 0 0,1 -42.740103519485714,-10.115201625700543" fill="none" id="id67" stroke="none" /><text fill="#e1ed5e" style="font-size:6.75px; font-family:Arial;" text-anchor="middle"><textPath startOffset="22.20632615414155" xlink:href="#id67">July</textPath></text><line stroke="#e1ed5e" stroke-width="0.3" x1="58.666819895761336" x2="56.23545636021788" y1="174.27360380694188" y2="178.64263932499728" /><path d="M 58.180547188652646 175.14741091055294 a86.0,86.0 0 0,1 -31.652253787137756,-30.449443065178592" fill="none" id="id68" stroke="none" /><text fill="#e1ed5e" style="font-size:6.75px; font-family:Arial;" text-anchor="middle"><textPath startOffset="22.20632615414155" xlink:href="#id68">August</textPath></text><line stroke="#e1ed5e" stroke-width="0.3" x1="26.63291911575756" x2="22.317208475507996" y1="142.92168965132927" y2="145.44649492493687" /><path d="M 25.769776987707644 143.4266507060508 a86.0,86.0 0 0,1 -11.730757126820373,-40.83630448921669" fill="none" id="id69" stroke="none" /><text fill="#e1ed5e" style="font-size:6.75px; font-family:Arial;" text-anchor="middle"><textPath startOffset="21.46611528233685" xlink:href="#id69">September</textPath></text><line stroke="#e1ed5e" stroke-width="0.3" x1="15.007084014347285" x2="10.007500721073583" y1="101.09737516637583" y2="101.16192664675087" /><path d="M 14.007167355692545 101.11028546245083 a86.0,86.0 0 0,1 10.666146001902534,-42.60595125391555" fill="none" id="id70" stroke="none" /><text fill="#e1ed5e" style="font-size:6.75px; font-family:Arial;" text-anchor="middle"><textPath startOffset="22.20632615414155" xlink:href="#id70">October</textPath></text><line stroke="#e1ed5e" stroke-width="0.3" x1="26.266209847984243" x2="21.928928074336255" y1="57.711370442889674" y2="55.22380399835377" /><path d="M 25.398753493254645 57.213857153982495 a86.0,86.0 0 0,1 29.58750427330803,-30.492523968695096" fill="none" id="id71" stroke="none" /><text fill="#e1ed5e" style="font-size:6.75px; font-family:Arial;" text-anchor="middle"><textPath startOffset="21.46611528233685" xlink:href="#id71">November</textPath></text><line stroke="#e1ed5e" stroke-width="0.3" x1="56.762969772571076" x2="54.21961505331055" y1="26.818313649435495" y2="22.513508569990535" /><path d="M 56.25429882871897 25.957352633546506 a86.0,86.0 0 0,1 42.265352541879196,-11.944610805530505" fill="none" id="id72" stroke="none" /><text fill="#e1ed5e" style="font-size:6.75px; font-family:Arial;" text-anchor="middle"><textPath startOffset="22.20632615414155" xlink:href="#id72">December</textPath></text></svg>